G04 #@! TF.GenerationSoftware,KiCad,Pcbnew,9.0.0*
G04 #@! TF.CreationDate,2025-03-09T13:33:35+09:00*
G04 #@! TF.ProjectId,GPIOBoard,4750494f-426f-4617-9264-2e6b69636164,rev?*
G04 #@! TF.SameCoordinates,Original*
G04 #@! TF.FileFunction,Profile,NP*
%FSLAX46Y46*%
G04 Gerber Fmt 4.6, Leading zero omitted, Abs format (unit mm)*
G04 Created by KiCad (PCBNEW 9.0.0) date 2025-03-09 13:33:35*
%MOMM*%
%LPD*%
G01*
G04 APERTURE LIST*
G04 #@! TA.AperFunction,Profile*
%ADD10C,0.250000*%
G04 #@! TD*
G04 #@! TA.AperFunction,Profile*
%ADD11C,0.100000*%
G04 #@! TD*
G04 #@! TA.AperFunction,Profile*
%ADD12C,0.050000*%
G04 #@! TD*
G04 APERTURE END LIST*
D10*
X177050000Y-65550000D02*
X113950000Y-65550000D01*
D11*
X110500000Y-69000000D02*
X110500000Y-107100000D01*
D10*
X180500000Y-107100000D02*
G75*
G02*
X177050000Y-110550000I-3450000J0D01*
G01*
D11*
X113950000Y-110550000D02*
X177050000Y-110550000D01*
D10*
X180500000Y-107100000D02*
X180500000Y-69000000D01*
D11*
X113950000Y-110550000D02*
G75*
G02*
X110500000Y-107100000I0J3450000D01*
G01*
D10*
X110500000Y-69000000D02*
G75*
G02*
X113950000Y-65550000I3450000J0D01*
G01*
X177050000Y-65550000D02*
G75*
G02*
X180500000Y-69000000I0J-3450000D01*
G01*
D12*
G04 #@! TO.C,SW1*
X175850000Y-74000000D02*
G75*
G02*
X175100000Y-74000000I-375000J0D01*
G01*
X175100000Y-74000000D02*
G75*
G02*
X175850000Y-74000000I375000J0D01*
G01*
X175850000Y-75800000D02*
G75*
G02*
X175100000Y-75800000I-375000J0D01*
G01*
X175100000Y-75800000D02*
G75*
G02*
X175850000Y-75800000I375000J0D01*
G01*
G04 #@! TO.C,J3*
X148050000Y-71650000D02*
G75*
G02*
X146950000Y-71650000I-550000J0D01*
G01*
X146950000Y-71650000D02*
G75*
G02*
X148050000Y-71650000I550000J0D01*
G01*
X155050000Y-71650000D02*
G75*
G02*
X153950000Y-71650000I-550000J0D01*
G01*
X153950000Y-71650000D02*
G75*
G02*
X155050000Y-71650000I550000J0D01*
G01*
G04 #@! TO.C,J4*
X156550000Y-71650000D02*
G75*
G02*
X155450000Y-71650000I-550000J0D01*
G01*
X155450000Y-71650000D02*
G75*
G02*
X156550000Y-71650000I550000J0D01*
G01*
X163550000Y-71650000D02*
G75*
G02*
X162450000Y-71650000I-550000J0D01*
G01*
X162450000Y-71650000D02*
G75*
G02*
X163550000Y-71650000I550000J0D01*
G01*
G04 #@! TO.C,J5*
X165050000Y-71650000D02*
G75*
G02*
X163950000Y-71650000I-550000J0D01*
G01*
X163950000Y-71650000D02*
G75*
G02*
X165050000Y-71650000I550000J0D01*
G01*
X172050000Y-71650000D02*
G75*
G02*
X170950000Y-71650000I-550000J0D01*
G01*
X170950000Y-71650000D02*
G75*
G02*
X172050000Y-71650000I550000J0D01*
G01*
G04 #@! TO.C,J9*
X120550000Y-71650000D02*
G75*
G02*
X119450000Y-71650000I-550000J0D01*
G01*
X119450000Y-71650000D02*
G75*
G02*
X120550000Y-71650000I550000J0D01*
G01*
X129550000Y-71650000D02*
G75*
G02*
X128450000Y-71650000I-550000J0D01*
G01*
X128450000Y-71650000D02*
G75*
G02*
X129550000Y-71650000I550000J0D01*
G01*
G04 #@! TO.C,J8*
X174950000Y-95450000D02*
G75*
G02*
X173850000Y-95450000I-550000J0D01*
G01*
X173850000Y-95450000D02*
G75*
G02*
X174950000Y-95450000I550000J0D01*
G01*
X174950000Y-102450000D02*
G75*
G02*
X173850000Y-102450000I-550000J0D01*
G01*
X173850000Y-102450000D02*
G75*
G02*
X174950000Y-102450000I550000J0D01*
G01*
G04 #@! TO.C,J2*
X139550000Y-71650000D02*
G75*
G02*
X138450000Y-71650000I-550000J0D01*
G01*
X138450000Y-71650000D02*
G75*
G02*
X139550000Y-71650000I550000J0D01*
G01*
X146550000Y-71650000D02*
G75*
G02*
X145450000Y-71650000I-550000J0D01*
G01*
X145450000Y-71650000D02*
G75*
G02*
X146550000Y-71650000I550000J0D01*
G01*
G04 #@! TO.C,J7*
X174950000Y-86950000D02*
G75*
G02*
X173850000Y-86950000I-550000J0D01*
G01*
X173850000Y-86950000D02*
G75*
G02*
X174950000Y-86950000I550000J0D01*
G01*
X174950000Y-93950000D02*
G75*
G02*
X173850000Y-93950000I-550000J0D01*
G01*
X173850000Y-93950000D02*
G75*
G02*
X174950000Y-93950000I550000J0D01*
G01*
G04 #@! TO.C,J1*
X131050000Y-71650000D02*
G75*
G02*
X129950000Y-71650000I-550000J0D01*
G01*
X129950000Y-71650000D02*
G75*
G02*
X131050000Y-71650000I550000J0D01*
G01*
X138050000Y-71650000D02*
G75*
G02*
X136950000Y-71650000I-550000J0D01*
G01*
X136950000Y-71650000D02*
G75*
G02*
X138050000Y-71650000I550000J0D01*
G01*
G04 #@! TO.C,J6*
X174950000Y-78450000D02*
G75*
G02*
X173850000Y-78450000I-550000J0D01*
G01*
X173850000Y-78450000D02*
G75*
G02*
X174950000Y-78450000I550000J0D01*
G01*
X174950000Y-85450000D02*
G75*
G02*
X173850000Y-85450000I-550000J0D01*
G01*
X173850000Y-85450000D02*
G75*
G02*
X174950000Y-85450000I550000J0D01*
G01*
G04 #@! TD*
M02*
