M48
; DRILL file {KiCad 9.0.0} date 2025-03-09T13:33:35+0900
; FORMAT={-:-/ absolute / metric / decimal}
; #@! TF.CreationDate,2025-03-09T13:33:35+09:00
; #@! TF.GenerationSoftware,Kicad,Pcbnew,9.0.0
; #@! TF.FileFunction,Plated,1,2,PTH
FMAT,2
METRIC
; #@! TA.AperFunction,Plated,PTH,ViaDrill
T1C0.300
; #@! TA.AperFunction,Plated,PTH,ComponentDrill
T2C0.600
; #@! TA.AperFunction,Plated,PTH,ViaDrill
T3C0.800
; #@! TA.AperFunction,Plated,PTH,ComponentDrill
T4C0.890
; #@! TA.AperFunction,Plated,PTH,ComponentDrill
T5C1.000
; #@! TA.AperFunction,Plated,PTH,ComponentDrill
T6C3.200
%
G90
G05
T1
X111.09Y-71.53
X111.1Y-104.41
X111.11Y-80.1
X111.13Y-97.16
X111.26Y-88.41
X116.5Y-109.99
X116.61Y-66.12
X118.78Y-72.09
X119.021Y-80.161
X121.83Y-87.79
X122.127Y-78.0
X123.75Y-82.537
X124.45Y-78.96
X124.61Y-90.48
X124.7Y-86.5
X125.61Y-81.16
X126.868Y-78.0
X126.962Y-106.75
X126.962Y-108.75
X127.55Y-84.25
X127.57Y-87.57
X127.8Y-66.13
X128.3Y-109.99
X128.47Y-101.64
X128.63Y-85.0
X129.3Y-97.96
X129.3Y-99.23
X130.375Y-94.145
X130.55Y-80.3
X130.825Y-78.46
X131.5Y-84.0
X132.25Y-98.5
X133.0Y-84.25
X133.0Y-106.0
X134.0Y-83.025
X134.0Y-84.25
X134.25Y-96.69
X134.25Y-100.5
X135.32Y-84.33
X136.705Y-97.82
X138.0Y-99.25
X138.99Y-66.27
X139.0Y-96.5
X139.325Y-78.48
X139.61Y-109.97
X140.46Y-99.34
X141.23Y-84.5
X141.25Y-80.11
X141.65Y-91.2
X141.65Y-92.0
X141.8Y-103.68
X143.025Y-93.375
X143.14Y-98.5
X143.825Y-93.375
X145.0Y-105.0
X146.25Y-80.0
X146.825Y-97.5
X147.825Y-78.48
X147.825Y-93.375
X148.55Y-103.5
X149.92Y-96.05
X150.0Y-89.6
X150.2Y-94.25
X151.22Y-66.23
X151.22Y-93.09
X151.5Y-87.75
X151.94Y-109.97
X152.68Y-80.75
X153.5Y-87.0
X153.56Y-78.31
X154.65Y-99.64
X154.68Y-103.13
X155.17Y-84.11
X155.6Y-98.06
X156.325Y-78.48
X156.5Y-86.987
X157.5Y-87.75
X158.5Y-88.55
X159.27Y-78.83
X159.68Y-89.14
X162.45Y-94.4
X163.13Y-66.15
X163.175Y-78.48
X163.48Y-86.02
X163.56Y-90.05
X163.59Y-109.93
X165.92Y-80.67
X167.25Y-90.17
X168.7Y-92.35
X169.42Y-96.92
X169.53Y-81.162
X169.53Y-89.662
X169.53Y-98.162
X169.81Y-84.03
X169.85Y-105.8
X171.18Y-76.2
X172.5Y-77.25
X174.36Y-66.14
X174.61Y-110.0
X179.85Y-78.83
X179.89Y-95.62
X179.92Y-104.48
X179.96Y-71.58
X179.97Y-87.14
T3
X137.25Y-83.75
X141.75Y-95.0
T4
X121.5Y-73.75
X123.5Y-73.75
X125.5Y-73.75
X127.5Y-73.75
X132.0Y-73.75
X134.0Y-73.75
X136.0Y-73.75
X140.5Y-73.75
X142.5Y-73.75
X144.5Y-73.75
X149.0Y-73.75
X151.0Y-73.75
X153.0Y-73.75
X157.5Y-73.75
X159.5Y-73.75
X161.5Y-73.75
X166.0Y-73.75
X168.0Y-73.75
X170.0Y-73.75
X172.3Y-79.95
X172.3Y-81.95
X172.3Y-83.95
X172.3Y-88.45
X172.3Y-90.45
X172.3Y-92.45
X172.3Y-96.95
X172.3Y-98.95
X172.3Y-100.95
T5
X121.635Y-93.02
X121.635Y-95.56
X121.635Y-98.1
X124.175Y-93.02
X124.175Y-95.56
X124.175Y-98.1
T6
X113.95Y-69.0
X177.05Y-69.0
T2
G00X113.5Y-77.0
M15
G01X112.7Y-77.0
M16
G05
G00X113.5Y-85.64
M15
G01X112.7Y-85.64
M16
G05
G00X117.83Y-77.0
M15
G01X116.73Y-77.0
M16
G05
G00X117.83Y-85.64
M15
G01X116.73Y-85.64
M16
G05
T6
G00X113.95Y-106.2
M15
G01X113.95Y-108.0
M16
G05
G00X177.05Y-105.95
M15
G01X177.05Y-108.25
M16
G05
M30
