%TF.GenerationSoftware,KiCad,Pcbnew,9.0.0*%
%TF.CreationDate,2025-03-09T13:33:35+09:00*%
%TF.ProjectId,GPIOBoard,4750494f-426f-4617-9264-2e6b69636164,rev?*%
%TF.SameCoordinates,Original*%
%TF.FileFunction,Drillmap*%
%TF.FilePolarity,Positive*%
%FSLAX45Y45*%
G04 Gerber Fmt 4.5, Leading zero omitted, Abs format (unit mm)*
G04 Created by KiCad (PCBNEW 9.0.0) date 2025-03-09 13:33:35*
%MOMM*%
%LPD*%
G01*
G04 APERTURE LIST*
%ADD10C,0.250000*%
%ADD11C,0.100000*%
%ADD12C,0.050000*%
%ADD13C,0.200000*%
G04 APERTURE END LIST*
D10*
X17705000Y-6555000D02*
X11395000Y-6555000D01*
D11*
X11050000Y-6900000D02*
X11050000Y-10710000D01*
D10*
X18050000Y-10710000D02*
G75*
G02*
X17705000Y-11055000I-345000J0D01*
G01*
D11*
X11395000Y-11055000D02*
X17705000Y-11055000D01*
D10*
X18050000Y-10710000D02*
X18050000Y-6900000D01*
D11*
X11395000Y-11055000D02*
G75*
G02*
X11050000Y-10710000I0J345000D01*
G01*
D10*
X11050000Y-6900000D02*
G75*
G02*
X11395000Y-6555000I345000J0D01*
G01*
X17705000Y-6555000D02*
G75*
G02*
X18050000Y-6900000I0J-345000D01*
G01*
D12*
X17585000Y-7400000D02*
G75*
G02*
X17510000Y-7400000I-37500J0D01*
G01*
X17510000Y-7400000D02*
G75*
G02*
X17585000Y-7400000I37500J0D01*
G01*
X17585000Y-7580000D02*
G75*
G02*
X17510000Y-7580000I-37500J0D01*
G01*
X17510000Y-7580000D02*
G75*
G02*
X17585000Y-7580000I37500J0D01*
G01*
X14805000Y-7165000D02*
G75*
G02*
X14695000Y-7165000I-55000J0D01*
G01*
X14695000Y-7165000D02*
G75*
G02*
X14805000Y-7165000I55000J0D01*
G01*
X15505000Y-7165000D02*
G75*
G02*
X15395000Y-7165000I-55000J0D01*
G01*
X15395000Y-7165000D02*
G75*
G02*
X15505000Y-7165000I55000J0D01*
G01*
X15655000Y-7165000D02*
G75*
G02*
X15545000Y-7165000I-55000J0D01*
G01*
X15545000Y-7165000D02*
G75*
G02*
X15655000Y-7165000I55000J0D01*
G01*
X16355000Y-7165000D02*
G75*
G02*
X16245000Y-7165000I-55000J0D01*
G01*
X16245000Y-7165000D02*
G75*
G02*
X16355000Y-7165000I55000J0D01*
G01*
X16505000Y-7165000D02*
G75*
G02*
X16395000Y-7165000I-55000J0D01*
G01*
X16395000Y-7165000D02*
G75*
G02*
X16505000Y-7165000I55000J0D01*
G01*
X17205000Y-7165000D02*
G75*
G02*
X17095000Y-7165000I-55000J0D01*
G01*
X17095000Y-7165000D02*
G75*
G02*
X17205000Y-7165000I55000J0D01*
G01*
X12055000Y-7165000D02*
G75*
G02*
X11945000Y-7165000I-55000J0D01*
G01*
X11945000Y-7165000D02*
G75*
G02*
X12055000Y-7165000I55000J0D01*
G01*
X12955000Y-7165000D02*
G75*
G02*
X12845000Y-7165000I-55000J0D01*
G01*
X12845000Y-7165000D02*
G75*
G02*
X12955000Y-7165000I55000J0D01*
G01*
X17495000Y-9545000D02*
G75*
G02*
X17385000Y-9545000I-55000J0D01*
G01*
X17385000Y-9545000D02*
G75*
G02*
X17495000Y-9545000I55000J0D01*
G01*
X17495000Y-10245000D02*
G75*
G02*
X17385000Y-10245000I-55000J0D01*
G01*
X17385000Y-10245000D02*
G75*
G02*
X17495000Y-10245000I55000J0D01*
G01*
X13955000Y-7165000D02*
G75*
G02*
X13845000Y-7165000I-55000J0D01*
G01*
X13845000Y-7165000D02*
G75*
G02*
X13955000Y-7165000I55000J0D01*
G01*
X14655000Y-7165000D02*
G75*
G02*
X14545000Y-7165000I-55000J0D01*
G01*
X14545000Y-7165000D02*
G75*
G02*
X14655000Y-7165000I55000J0D01*
G01*
X17495000Y-8695000D02*
G75*
G02*
X17385000Y-8695000I-55000J0D01*
G01*
X17385000Y-8695000D02*
G75*
G02*
X17495000Y-8695000I55000J0D01*
G01*
X17495000Y-9395000D02*
G75*
G02*
X17385000Y-9395000I-55000J0D01*
G01*
X17385000Y-9395000D02*
G75*
G02*
X17495000Y-9395000I55000J0D01*
G01*
X13105000Y-7165000D02*
G75*
G02*
X12995000Y-7165000I-55000J0D01*
G01*
X12995000Y-7165000D02*
G75*
G02*
X13105000Y-7165000I55000J0D01*
G01*
X13805000Y-7165000D02*
G75*
G02*
X13695000Y-7165000I-55000J0D01*
G01*
X13695000Y-7165000D02*
G75*
G02*
X13805000Y-7165000I55000J0D01*
G01*
X17495000Y-7845000D02*
G75*
G02*
X17385000Y-7845000I-55000J0D01*
G01*
X17385000Y-7845000D02*
G75*
G02*
X17495000Y-7845000I55000J0D01*
G01*
X17495000Y-8545000D02*
G75*
G02*
X17385000Y-8545000I-55000J0D01*
G01*
X17385000Y-8545000D02*
G75*
G02*
X17495000Y-8545000I55000J0D01*
G01*
D13*
D11*
X11645500Y-7810500D02*
X11710500Y-7875500D01*
X11710500Y-7810500D02*
X11645500Y-7875500D01*
X11645500Y-8388500D02*
X11710500Y-8453500D01*
X11710500Y-8388500D02*
X11645500Y-8453500D01*
D13*
X11298277Y-11378984D02*
X11298277Y-11178984D01*
X11298277Y-11178984D02*
X11345896Y-11178984D01*
X11345896Y-11178984D02*
X11374467Y-11188508D01*
X11374467Y-11188508D02*
X11393515Y-11207555D01*
X11393515Y-11207555D02*
X11403039Y-11226603D01*
X11403039Y-11226603D02*
X11412562Y-11264698D01*
X11412562Y-11264698D02*
X11412562Y-11293269D01*
X11412562Y-11293269D02*
X11403039Y-11331365D01*
X11403039Y-11331365D02*
X11393515Y-11350412D01*
X11393515Y-11350412D02*
X11374467Y-11369460D01*
X11374467Y-11369460D02*
X11345896Y-11378984D01*
X11345896Y-11378984D02*
X11298277Y-11378984D01*
X11498277Y-11378984D02*
X11498277Y-11245650D01*
X11498277Y-11283746D02*
X11507801Y-11264698D01*
X11507801Y-11264698D02*
X11517324Y-11255174D01*
X11517324Y-11255174D02*
X11536372Y-11245650D01*
X11536372Y-11245650D02*
X11555420Y-11245650D01*
X11622086Y-11378984D02*
X11622086Y-11245650D01*
X11622086Y-11178984D02*
X11612562Y-11188508D01*
X11612562Y-11188508D02*
X11622086Y-11198031D01*
X11622086Y-11198031D02*
X11631610Y-11188508D01*
X11631610Y-11188508D02*
X11622086Y-11178984D01*
X11622086Y-11178984D02*
X11622086Y-11198031D01*
X11745896Y-11378984D02*
X11726848Y-11369460D01*
X11726848Y-11369460D02*
X11717324Y-11350412D01*
X11717324Y-11350412D02*
X11717324Y-11178984D01*
X11850658Y-11378984D02*
X11831610Y-11369460D01*
X11831610Y-11369460D02*
X11822086Y-11350412D01*
X11822086Y-11350412D02*
X11822086Y-11178984D01*
X12079229Y-11378984D02*
X12079229Y-11178984D01*
X12079229Y-11178984D02*
X12145896Y-11321841D01*
X12145896Y-11321841D02*
X12212562Y-11178984D01*
X12212562Y-11178984D02*
X12212562Y-11378984D01*
X12393515Y-11378984D02*
X12393515Y-11274222D01*
X12393515Y-11274222D02*
X12383991Y-11255174D01*
X12383991Y-11255174D02*
X12364943Y-11245650D01*
X12364943Y-11245650D02*
X12326848Y-11245650D01*
X12326848Y-11245650D02*
X12307801Y-11255174D01*
X12393515Y-11369460D02*
X12374467Y-11378984D01*
X12374467Y-11378984D02*
X12326848Y-11378984D01*
X12326848Y-11378984D02*
X12307801Y-11369460D01*
X12307801Y-11369460D02*
X12298277Y-11350412D01*
X12298277Y-11350412D02*
X12298277Y-11331365D01*
X12298277Y-11331365D02*
X12307801Y-11312317D01*
X12307801Y-11312317D02*
X12326848Y-11302793D01*
X12326848Y-11302793D02*
X12374467Y-11302793D01*
X12374467Y-11302793D02*
X12393515Y-11293269D01*
X12488753Y-11245650D02*
X12488753Y-11445650D01*
X12488753Y-11255174D02*
X12507801Y-11245650D01*
X12507801Y-11245650D02*
X12545896Y-11245650D01*
X12545896Y-11245650D02*
X12564943Y-11255174D01*
X12564943Y-11255174D02*
X12574467Y-11264698D01*
X12574467Y-11264698D02*
X12583991Y-11283746D01*
X12583991Y-11283746D02*
X12583991Y-11340888D01*
X12583991Y-11340888D02*
X12574467Y-11359936D01*
X12574467Y-11359936D02*
X12564943Y-11369460D01*
X12564943Y-11369460D02*
X12545896Y-11378984D01*
X12545896Y-11378984D02*
X12507801Y-11378984D01*
X12507801Y-11378984D02*
X12488753Y-11369460D01*
X12669705Y-11359936D02*
X12679229Y-11369460D01*
X12679229Y-11369460D02*
X12669705Y-11378984D01*
X12669705Y-11378984D02*
X12660182Y-11369460D01*
X12660182Y-11369460D02*
X12669705Y-11359936D01*
X12669705Y-11359936D02*
X12669705Y-11378984D01*
X12669705Y-11255174D02*
X12679229Y-11264698D01*
X12679229Y-11264698D02*
X12669705Y-11274222D01*
X12669705Y-11274222D02*
X12660182Y-11264698D01*
X12660182Y-11264698D02*
X12669705Y-11255174D01*
X12669705Y-11255174D02*
X12669705Y-11274222D01*
D11*
X10972500Y-11675000D02*
X11037500Y-11740000D01*
X11037500Y-11675000D02*
X10972500Y-11740000D01*
D13*
X11336372Y-11598984D02*
X11355420Y-11598984D01*
X11355420Y-11598984D02*
X11374467Y-11608508D01*
X11374467Y-11608508D02*
X11383991Y-11618031D01*
X11383991Y-11618031D02*
X11393515Y-11637079D01*
X11393515Y-11637079D02*
X11403039Y-11675174D01*
X11403039Y-11675174D02*
X11403039Y-11722793D01*
X11403039Y-11722793D02*
X11393515Y-11760888D01*
X11393515Y-11760888D02*
X11383991Y-11779936D01*
X11383991Y-11779936D02*
X11374467Y-11789460D01*
X11374467Y-11789460D02*
X11355420Y-11798984D01*
X11355420Y-11798984D02*
X11336372Y-11798984D01*
X11336372Y-11798984D02*
X11317324Y-11789460D01*
X11317324Y-11789460D02*
X11307801Y-11779936D01*
X11307801Y-11779936D02*
X11298277Y-11760888D01*
X11298277Y-11760888D02*
X11288753Y-11722793D01*
X11288753Y-11722793D02*
X11288753Y-11675174D01*
X11288753Y-11675174D02*
X11298277Y-11637079D01*
X11298277Y-11637079D02*
X11307801Y-11618031D01*
X11307801Y-11618031D02*
X11317324Y-11608508D01*
X11317324Y-11608508D02*
X11336372Y-11598984D01*
X11488753Y-11779936D02*
X11498277Y-11789460D01*
X11498277Y-11789460D02*
X11488753Y-11798984D01*
X11488753Y-11798984D02*
X11479229Y-11789460D01*
X11479229Y-11789460D02*
X11488753Y-11779936D01*
X11488753Y-11779936D02*
X11488753Y-11798984D01*
X11669705Y-11598984D02*
X11631610Y-11598984D01*
X11631610Y-11598984D02*
X11612562Y-11608508D01*
X11612562Y-11608508D02*
X11603039Y-11618031D01*
X11603039Y-11618031D02*
X11583991Y-11646603D01*
X11583991Y-11646603D02*
X11574467Y-11684698D01*
X11574467Y-11684698D02*
X11574467Y-11760888D01*
X11574467Y-11760888D02*
X11583991Y-11779936D01*
X11583991Y-11779936D02*
X11593515Y-11789460D01*
X11593515Y-11789460D02*
X11612562Y-11798984D01*
X11612562Y-11798984D02*
X11650658Y-11798984D01*
X11650658Y-11798984D02*
X11669705Y-11789460D01*
X11669705Y-11789460D02*
X11679229Y-11779936D01*
X11679229Y-11779936D02*
X11688753Y-11760888D01*
X11688753Y-11760888D02*
X11688753Y-11713269D01*
X11688753Y-11713269D02*
X11679229Y-11694222D01*
X11679229Y-11694222D02*
X11669705Y-11684698D01*
X11669705Y-11684698D02*
X11650658Y-11675174D01*
X11650658Y-11675174D02*
X11612562Y-11675174D01*
X11612562Y-11675174D02*
X11593515Y-11684698D01*
X11593515Y-11684698D02*
X11583991Y-11694222D01*
X11583991Y-11694222D02*
X11574467Y-11713269D01*
X11869705Y-11598984D02*
X11774467Y-11598984D01*
X11774467Y-11598984D02*
X11764943Y-11694222D01*
X11764943Y-11694222D02*
X11774467Y-11684698D01*
X11774467Y-11684698D02*
X11793515Y-11675174D01*
X11793515Y-11675174D02*
X11841134Y-11675174D01*
X11841134Y-11675174D02*
X11860182Y-11684698D01*
X11860182Y-11684698D02*
X11869705Y-11694222D01*
X11869705Y-11694222D02*
X11879229Y-11713269D01*
X11879229Y-11713269D02*
X11879229Y-11760888D01*
X11879229Y-11760888D02*
X11869705Y-11779936D01*
X11869705Y-11779936D02*
X11860182Y-11789460D01*
X11860182Y-11789460D02*
X11841134Y-11798984D01*
X11841134Y-11798984D02*
X11793515Y-11798984D01*
X11793515Y-11798984D02*
X11774467Y-11789460D01*
X11774467Y-11789460D02*
X11764943Y-11779936D01*
X12003039Y-11598984D02*
X12022086Y-11598984D01*
X12022086Y-11598984D02*
X12041134Y-11608508D01*
X12041134Y-11608508D02*
X12050658Y-11618031D01*
X12050658Y-11618031D02*
X12060182Y-11637079D01*
X12060182Y-11637079D02*
X12069705Y-11675174D01*
X12069705Y-11675174D02*
X12069705Y-11722793D01*
X12069705Y-11722793D02*
X12060182Y-11760888D01*
X12060182Y-11760888D02*
X12050658Y-11779936D01*
X12050658Y-11779936D02*
X12041134Y-11789460D01*
X12041134Y-11789460D02*
X12022086Y-11798984D01*
X12022086Y-11798984D02*
X12003039Y-11798984D01*
X12003039Y-11798984D02*
X11983991Y-11789460D01*
X11983991Y-11789460D02*
X11974467Y-11779936D01*
X11974467Y-11779936D02*
X11964943Y-11760888D01*
X11964943Y-11760888D02*
X11955420Y-11722793D01*
X11955420Y-11722793D02*
X11955420Y-11675174D01*
X11955420Y-11675174D02*
X11964943Y-11637079D01*
X11964943Y-11637079D02*
X11974467Y-11618031D01*
X11974467Y-11618031D02*
X11983991Y-11608508D01*
X11983991Y-11608508D02*
X12003039Y-11598984D01*
X12155420Y-11798984D02*
X12155420Y-11665650D01*
X12155420Y-11684698D02*
X12164943Y-11675174D01*
X12164943Y-11675174D02*
X12183991Y-11665650D01*
X12183991Y-11665650D02*
X12212563Y-11665650D01*
X12212563Y-11665650D02*
X12231610Y-11675174D01*
X12231610Y-11675174D02*
X12241134Y-11694222D01*
X12241134Y-11694222D02*
X12241134Y-11798984D01*
X12241134Y-11694222D02*
X12250658Y-11675174D01*
X12250658Y-11675174D02*
X12269705Y-11665650D01*
X12269705Y-11665650D02*
X12298277Y-11665650D01*
X12298277Y-11665650D02*
X12317324Y-11675174D01*
X12317324Y-11675174D02*
X12326848Y-11694222D01*
X12326848Y-11694222D02*
X12326848Y-11798984D01*
X12422086Y-11798984D02*
X12422086Y-11665650D01*
X12422086Y-11684698D02*
X12431610Y-11675174D01*
X12431610Y-11675174D02*
X12450658Y-11665650D01*
X12450658Y-11665650D02*
X12479229Y-11665650D01*
X12479229Y-11665650D02*
X12498277Y-11675174D01*
X12498277Y-11675174D02*
X12507801Y-11694222D01*
X12507801Y-11694222D02*
X12507801Y-11798984D01*
X12507801Y-11694222D02*
X12517324Y-11675174D01*
X12517324Y-11675174D02*
X12536372Y-11665650D01*
X12536372Y-11665650D02*
X12564943Y-11665650D01*
X12564943Y-11665650D02*
X12583991Y-11675174D01*
X12583991Y-11675174D02*
X12593515Y-11694222D01*
X12593515Y-11694222D02*
X12593515Y-11798984D01*
X12983991Y-11589460D02*
X12812563Y-11846603D01*
X13241134Y-11598984D02*
X13260182Y-11598984D01*
X13260182Y-11598984D02*
X13279229Y-11608508D01*
X13279229Y-11608508D02*
X13288753Y-11618031D01*
X13288753Y-11618031D02*
X13298277Y-11637079D01*
X13298277Y-11637079D02*
X13307801Y-11675174D01*
X13307801Y-11675174D02*
X13307801Y-11722793D01*
X13307801Y-11722793D02*
X13298277Y-11760888D01*
X13298277Y-11760888D02*
X13288753Y-11779936D01*
X13288753Y-11779936D02*
X13279229Y-11789460D01*
X13279229Y-11789460D02*
X13260182Y-11798984D01*
X13260182Y-11798984D02*
X13241134Y-11798984D01*
X13241134Y-11798984D02*
X13222086Y-11789460D01*
X13222086Y-11789460D02*
X13212563Y-11779936D01*
X13212563Y-11779936D02*
X13203039Y-11760888D01*
X13203039Y-11760888D02*
X13193515Y-11722793D01*
X13193515Y-11722793D02*
X13193515Y-11675174D01*
X13193515Y-11675174D02*
X13203039Y-11637079D01*
X13203039Y-11637079D02*
X13212563Y-11618031D01*
X13212563Y-11618031D02*
X13222086Y-11608508D01*
X13222086Y-11608508D02*
X13241134Y-11598984D01*
X13393515Y-11779936D02*
X13403039Y-11789460D01*
X13403039Y-11789460D02*
X13393515Y-11798984D01*
X13393515Y-11798984D02*
X13383991Y-11789460D01*
X13383991Y-11789460D02*
X13393515Y-11779936D01*
X13393515Y-11779936D02*
X13393515Y-11798984D01*
X13526848Y-11598984D02*
X13545896Y-11598984D01*
X13545896Y-11598984D02*
X13564944Y-11608508D01*
X13564944Y-11608508D02*
X13574467Y-11618031D01*
X13574467Y-11618031D02*
X13583991Y-11637079D01*
X13583991Y-11637079D02*
X13593515Y-11675174D01*
X13593515Y-11675174D02*
X13593515Y-11722793D01*
X13593515Y-11722793D02*
X13583991Y-11760888D01*
X13583991Y-11760888D02*
X13574467Y-11779936D01*
X13574467Y-11779936D02*
X13564944Y-11789460D01*
X13564944Y-11789460D02*
X13545896Y-11798984D01*
X13545896Y-11798984D02*
X13526848Y-11798984D01*
X13526848Y-11798984D02*
X13507801Y-11789460D01*
X13507801Y-11789460D02*
X13498277Y-11779936D01*
X13498277Y-11779936D02*
X13488753Y-11760888D01*
X13488753Y-11760888D02*
X13479229Y-11722793D01*
X13479229Y-11722793D02*
X13479229Y-11675174D01*
X13479229Y-11675174D02*
X13488753Y-11637079D01*
X13488753Y-11637079D02*
X13498277Y-11618031D01*
X13498277Y-11618031D02*
X13507801Y-11608508D01*
X13507801Y-11608508D02*
X13526848Y-11598984D01*
X13669706Y-11618031D02*
X13679229Y-11608508D01*
X13679229Y-11608508D02*
X13698277Y-11598984D01*
X13698277Y-11598984D02*
X13745896Y-11598984D01*
X13745896Y-11598984D02*
X13764944Y-11608508D01*
X13764944Y-11608508D02*
X13774467Y-11618031D01*
X13774467Y-11618031D02*
X13783991Y-11637079D01*
X13783991Y-11637079D02*
X13783991Y-11656127D01*
X13783991Y-11656127D02*
X13774467Y-11684698D01*
X13774467Y-11684698D02*
X13660182Y-11798984D01*
X13660182Y-11798984D02*
X13783991Y-11798984D01*
X13964944Y-11598984D02*
X13869706Y-11598984D01*
X13869706Y-11598984D02*
X13860182Y-11694222D01*
X13860182Y-11694222D02*
X13869706Y-11684698D01*
X13869706Y-11684698D02*
X13888753Y-11675174D01*
X13888753Y-11675174D02*
X13936372Y-11675174D01*
X13936372Y-11675174D02*
X13955420Y-11684698D01*
X13955420Y-11684698D02*
X13964944Y-11694222D01*
X13964944Y-11694222D02*
X13974467Y-11713269D01*
X13974467Y-11713269D02*
X13974467Y-11760888D01*
X13974467Y-11760888D02*
X13964944Y-11779936D01*
X13964944Y-11779936D02*
X13955420Y-11789460D01*
X13955420Y-11789460D02*
X13936372Y-11798984D01*
X13936372Y-11798984D02*
X13888753Y-11798984D01*
X13888753Y-11798984D02*
X13869706Y-11789460D01*
X13869706Y-11789460D02*
X13860182Y-11779936D01*
X14145896Y-11598984D02*
X14107801Y-11598984D01*
X14107801Y-11598984D02*
X14088753Y-11608508D01*
X14088753Y-11608508D02*
X14079229Y-11618031D01*
X14079229Y-11618031D02*
X14060182Y-11646603D01*
X14060182Y-11646603D02*
X14050658Y-11684698D01*
X14050658Y-11684698D02*
X14050658Y-11760888D01*
X14050658Y-11760888D02*
X14060182Y-11779936D01*
X14060182Y-11779936D02*
X14069706Y-11789460D01*
X14069706Y-11789460D02*
X14088753Y-11798984D01*
X14088753Y-11798984D02*
X14126848Y-11798984D01*
X14126848Y-11798984D02*
X14145896Y-11789460D01*
X14145896Y-11789460D02*
X14155420Y-11779936D01*
X14155420Y-11779936D02*
X14164944Y-11760888D01*
X14164944Y-11760888D02*
X14164944Y-11713269D01*
X14164944Y-11713269D02*
X14155420Y-11694222D01*
X14155420Y-11694222D02*
X14145896Y-11684698D01*
X14145896Y-11684698D02*
X14126848Y-11675174D01*
X14126848Y-11675174D02*
X14088753Y-11675174D01*
X14088753Y-11675174D02*
X14069706Y-11684698D01*
X14069706Y-11684698D02*
X14060182Y-11694222D01*
X14060182Y-11694222D02*
X14050658Y-11713269D01*
X14241134Y-11598984D02*
X14241134Y-11637079D01*
X14317325Y-11598984D02*
X14317325Y-11637079D01*
X14612563Y-11875174D02*
X14603039Y-11865650D01*
X14603039Y-11865650D02*
X14583991Y-11837079D01*
X14583991Y-11837079D02*
X14574468Y-11818031D01*
X14574468Y-11818031D02*
X14564944Y-11789460D01*
X14564944Y-11789460D02*
X14555420Y-11741841D01*
X14555420Y-11741841D02*
X14555420Y-11703746D01*
X14555420Y-11703746D02*
X14564944Y-11656127D01*
X14564944Y-11656127D02*
X14574468Y-11627555D01*
X14574468Y-11627555D02*
X14583991Y-11608508D01*
X14583991Y-11608508D02*
X14603039Y-11579936D01*
X14603039Y-11579936D02*
X14612563Y-11570412D01*
X14679229Y-11618031D02*
X14688753Y-11608508D01*
X14688753Y-11608508D02*
X14707801Y-11598984D01*
X14707801Y-11598984D02*
X14755420Y-11598984D01*
X14755420Y-11598984D02*
X14774468Y-11608508D01*
X14774468Y-11608508D02*
X14783991Y-11618031D01*
X14783991Y-11618031D02*
X14793515Y-11637079D01*
X14793515Y-11637079D02*
X14793515Y-11656127D01*
X14793515Y-11656127D02*
X14783991Y-11684698D01*
X14783991Y-11684698D02*
X14669706Y-11798984D01*
X14669706Y-11798984D02*
X14793515Y-11798984D01*
X15031610Y-11798984D02*
X15031610Y-11598984D01*
X15117325Y-11798984D02*
X15117325Y-11694222D01*
X15117325Y-11694222D02*
X15107801Y-11675174D01*
X15107801Y-11675174D02*
X15088753Y-11665650D01*
X15088753Y-11665650D02*
X15060182Y-11665650D01*
X15060182Y-11665650D02*
X15041134Y-11675174D01*
X15041134Y-11675174D02*
X15031610Y-11684698D01*
X15241134Y-11798984D02*
X15222087Y-11789460D01*
X15222087Y-11789460D02*
X15212563Y-11779936D01*
X15212563Y-11779936D02*
X15203039Y-11760888D01*
X15203039Y-11760888D02*
X15203039Y-11703746D01*
X15203039Y-11703746D02*
X15212563Y-11684698D01*
X15212563Y-11684698D02*
X15222087Y-11675174D01*
X15222087Y-11675174D02*
X15241134Y-11665650D01*
X15241134Y-11665650D02*
X15269706Y-11665650D01*
X15269706Y-11665650D02*
X15288753Y-11675174D01*
X15288753Y-11675174D02*
X15298277Y-11684698D01*
X15298277Y-11684698D02*
X15307801Y-11703746D01*
X15307801Y-11703746D02*
X15307801Y-11760888D01*
X15307801Y-11760888D02*
X15298277Y-11779936D01*
X15298277Y-11779936D02*
X15288753Y-11789460D01*
X15288753Y-11789460D02*
X15269706Y-11798984D01*
X15269706Y-11798984D02*
X15241134Y-11798984D01*
X15422087Y-11798984D02*
X15403039Y-11789460D01*
X15403039Y-11789460D02*
X15393515Y-11770412D01*
X15393515Y-11770412D02*
X15393515Y-11598984D01*
X15574468Y-11789460D02*
X15555420Y-11798984D01*
X15555420Y-11798984D02*
X15517325Y-11798984D01*
X15517325Y-11798984D02*
X15498277Y-11789460D01*
X15498277Y-11789460D02*
X15488753Y-11770412D01*
X15488753Y-11770412D02*
X15488753Y-11694222D01*
X15488753Y-11694222D02*
X15498277Y-11675174D01*
X15498277Y-11675174D02*
X15517325Y-11665650D01*
X15517325Y-11665650D02*
X15555420Y-11665650D01*
X15555420Y-11665650D02*
X15574468Y-11675174D01*
X15574468Y-11675174D02*
X15583991Y-11694222D01*
X15583991Y-11694222D02*
X15583991Y-11713269D01*
X15583991Y-11713269D02*
X15488753Y-11732317D01*
X15660182Y-11789460D02*
X15679230Y-11798984D01*
X15679230Y-11798984D02*
X15717325Y-11798984D01*
X15717325Y-11798984D02*
X15736372Y-11789460D01*
X15736372Y-11789460D02*
X15745896Y-11770412D01*
X15745896Y-11770412D02*
X15745896Y-11760888D01*
X15745896Y-11760888D02*
X15736372Y-11741841D01*
X15736372Y-11741841D02*
X15717325Y-11732317D01*
X15717325Y-11732317D02*
X15688753Y-11732317D01*
X15688753Y-11732317D02*
X15669706Y-11722793D01*
X15669706Y-11722793D02*
X15660182Y-11703746D01*
X15660182Y-11703746D02*
X15660182Y-11694222D01*
X15660182Y-11694222D02*
X15669706Y-11675174D01*
X15669706Y-11675174D02*
X15688753Y-11665650D01*
X15688753Y-11665650D02*
X15717325Y-11665650D01*
X15717325Y-11665650D02*
X15736372Y-11675174D01*
X15812563Y-11875174D02*
X15822087Y-11865650D01*
X15822087Y-11865650D02*
X15841134Y-11837079D01*
X15841134Y-11837079D02*
X15850658Y-11818031D01*
X15850658Y-11818031D02*
X15860182Y-11789460D01*
X15860182Y-11789460D02*
X15869706Y-11741841D01*
X15869706Y-11741841D02*
X15869706Y-11703746D01*
X15869706Y-11703746D02*
X15860182Y-11656127D01*
X15860182Y-11656127D02*
X15850658Y-11627555D01*
X15850658Y-11627555D02*
X15841134Y-11608508D01*
X15841134Y-11608508D02*
X15822087Y-11579936D01*
X15822087Y-11579936D02*
X15812563Y-11570412D01*
X16174468Y-11875174D02*
X16164944Y-11865650D01*
X16164944Y-11865650D02*
X16145896Y-11837079D01*
X16145896Y-11837079D02*
X16136372Y-11818031D01*
X16136372Y-11818031D02*
X16126849Y-11789460D01*
X16126849Y-11789460D02*
X16117325Y-11741841D01*
X16117325Y-11741841D02*
X16117325Y-11703746D01*
X16117325Y-11703746D02*
X16126849Y-11656127D01*
X16126849Y-11656127D02*
X16136372Y-11627555D01*
X16136372Y-11627555D02*
X16145896Y-11608508D01*
X16145896Y-11608508D02*
X16164944Y-11579936D01*
X16164944Y-11579936D02*
X16174468Y-11570412D01*
X16250658Y-11665650D02*
X16250658Y-11798984D01*
X16250658Y-11684698D02*
X16260182Y-11675174D01*
X16260182Y-11675174D02*
X16279230Y-11665650D01*
X16279230Y-11665650D02*
X16307801Y-11665650D01*
X16307801Y-11665650D02*
X16326849Y-11675174D01*
X16326849Y-11675174D02*
X16336372Y-11694222D01*
X16336372Y-11694222D02*
X16336372Y-11798984D01*
X16460182Y-11798984D02*
X16441134Y-11789460D01*
X16441134Y-11789460D02*
X16431611Y-11779936D01*
X16431611Y-11779936D02*
X16422087Y-11760888D01*
X16422087Y-11760888D02*
X16422087Y-11703746D01*
X16422087Y-11703746D02*
X16431611Y-11684698D01*
X16431611Y-11684698D02*
X16441134Y-11675174D01*
X16441134Y-11675174D02*
X16460182Y-11665650D01*
X16460182Y-11665650D02*
X16488753Y-11665650D01*
X16488753Y-11665650D02*
X16507801Y-11675174D01*
X16507801Y-11675174D02*
X16517325Y-11684698D01*
X16517325Y-11684698D02*
X16526849Y-11703746D01*
X16526849Y-11703746D02*
X16526849Y-11760888D01*
X16526849Y-11760888D02*
X16517325Y-11779936D01*
X16517325Y-11779936D02*
X16507801Y-11789460D01*
X16507801Y-11789460D02*
X16488753Y-11798984D01*
X16488753Y-11798984D02*
X16460182Y-11798984D01*
X16583992Y-11665650D02*
X16660182Y-11665650D01*
X16612563Y-11598984D02*
X16612563Y-11770412D01*
X16612563Y-11770412D02*
X16622087Y-11789460D01*
X16622087Y-11789460D02*
X16641134Y-11798984D01*
X16641134Y-11798984D02*
X16660182Y-11798984D01*
X16879230Y-11665650D02*
X16879230Y-11865650D01*
X16879230Y-11675174D02*
X16898277Y-11665650D01*
X16898277Y-11665650D02*
X16936373Y-11665650D01*
X16936373Y-11665650D02*
X16955420Y-11675174D01*
X16955420Y-11675174D02*
X16964944Y-11684698D01*
X16964944Y-11684698D02*
X16974468Y-11703746D01*
X16974468Y-11703746D02*
X16974468Y-11760888D01*
X16974468Y-11760888D02*
X16964944Y-11779936D01*
X16964944Y-11779936D02*
X16955420Y-11789460D01*
X16955420Y-11789460D02*
X16936373Y-11798984D01*
X16936373Y-11798984D02*
X16898277Y-11798984D01*
X16898277Y-11798984D02*
X16879230Y-11789460D01*
X17088754Y-11798984D02*
X17069706Y-11789460D01*
X17069706Y-11789460D02*
X17060182Y-11770412D01*
X17060182Y-11770412D02*
X17060182Y-11598984D01*
X17250658Y-11798984D02*
X17250658Y-11694222D01*
X17250658Y-11694222D02*
X17241135Y-11675174D01*
X17241135Y-11675174D02*
X17222087Y-11665650D01*
X17222087Y-11665650D02*
X17183992Y-11665650D01*
X17183992Y-11665650D02*
X17164944Y-11675174D01*
X17250658Y-11789460D02*
X17231611Y-11798984D01*
X17231611Y-11798984D02*
X17183992Y-11798984D01*
X17183992Y-11798984D02*
X17164944Y-11789460D01*
X17164944Y-11789460D02*
X17155420Y-11770412D01*
X17155420Y-11770412D02*
X17155420Y-11751365D01*
X17155420Y-11751365D02*
X17164944Y-11732317D01*
X17164944Y-11732317D02*
X17183992Y-11722793D01*
X17183992Y-11722793D02*
X17231611Y-11722793D01*
X17231611Y-11722793D02*
X17250658Y-11713269D01*
X17317325Y-11665650D02*
X17393515Y-11665650D01*
X17345896Y-11598984D02*
X17345896Y-11770412D01*
X17345896Y-11770412D02*
X17355420Y-11789460D01*
X17355420Y-11789460D02*
X17374468Y-11798984D01*
X17374468Y-11798984D02*
X17393515Y-11798984D01*
X17536373Y-11789460D02*
X17517325Y-11798984D01*
X17517325Y-11798984D02*
X17479230Y-11798984D01*
X17479230Y-11798984D02*
X17460182Y-11789460D01*
X17460182Y-11789460D02*
X17450658Y-11770412D01*
X17450658Y-11770412D02*
X17450658Y-11694222D01*
X17450658Y-11694222D02*
X17460182Y-11675174D01*
X17460182Y-11675174D02*
X17479230Y-11665650D01*
X17479230Y-11665650D02*
X17517325Y-11665650D01*
X17517325Y-11665650D02*
X17536373Y-11675174D01*
X17536373Y-11675174D02*
X17545896Y-11694222D01*
X17545896Y-11694222D02*
X17545896Y-11713269D01*
X17545896Y-11713269D02*
X17450658Y-11732317D01*
X17717325Y-11798984D02*
X17717325Y-11598984D01*
X17717325Y-11789460D02*
X17698277Y-11798984D01*
X17698277Y-11798984D02*
X17660182Y-11798984D01*
X17660182Y-11798984D02*
X17641135Y-11789460D01*
X17641135Y-11789460D02*
X17631611Y-11779936D01*
X17631611Y-11779936D02*
X17622087Y-11760888D01*
X17622087Y-11760888D02*
X17622087Y-11703746D01*
X17622087Y-11703746D02*
X17631611Y-11684698D01*
X17631611Y-11684698D02*
X17641135Y-11675174D01*
X17641135Y-11675174D02*
X17660182Y-11665650D01*
X17660182Y-11665650D02*
X17698277Y-11665650D01*
X17698277Y-11665650D02*
X17717325Y-11675174D01*
X17793516Y-11875174D02*
X17803039Y-11865650D01*
X17803039Y-11865650D02*
X17822087Y-11837079D01*
X17822087Y-11837079D02*
X17831611Y-11818031D01*
X17831611Y-11818031D02*
X17841135Y-11789460D01*
X17841135Y-11789460D02*
X17850658Y-11741841D01*
X17850658Y-11741841D02*
X17850658Y-11703746D01*
X17850658Y-11703746D02*
X17841135Y-11656127D01*
X17841135Y-11656127D02*
X17831611Y-11627555D01*
X17831611Y-11627555D02*
X17822087Y-11608508D01*
X17822087Y-11608508D02*
X17803039Y-11579936D01*
X17803039Y-11579936D02*
X17793516Y-11570412D01*
M02*
