G04 #@! TF.GenerationSoftware,KiCad,Pcbnew,9.0.0*
G04 #@! TF.CreationDate,2025-03-09T13:33:34+09:00*
G04 #@! TF.ProjectId,GPIOBoard,4750494f-426f-4617-9264-2e6b69636164,rev?*
G04 #@! TF.SameCoordinates,Original*
G04 #@! TF.FileFunction,Soldermask,Top*
G04 #@! TF.FilePolarity,Negative*
%FSLAX46Y46*%
G04 Gerber Fmt 4.6, Leading zero omitted, Abs format (unit mm)*
G04 Created by KiCad (PCBNEW 9.0.0) date 2025-03-09 13:33:34*
%MOMM*%
%LPD*%
G01*
G04 APERTURE LIST*
G04 Aperture macros list*
%AMRoundRect*
0 Rectangle with rounded corners*
0 $1 Rounding radius*
0 $2 $3 $4 $5 $6 $7 $8 $9 X,Y pos of 4 corners*
0 Add a 4 corners polygon primitive as box body*
4,1,4,$2,$3,$4,$5,$6,$7,$8,$9,$2,$3,0*
0 Add four circle primitives for the rounded corners*
1,1,$1+$1,$2,$3*
1,1,$1+$1,$4,$5*
1,1,$1+$1,$6,$7*
1,1,$1+$1,$8,$9*
0 Add four rect primitives between the rounded corners*
20,1,$1+$1,$2,$3,$4,$5,0*
20,1,$1+$1,$4,$5,$6,$7,0*
20,1,$1+$1,$6,$7,$8,$9,0*
20,1,$1+$1,$8,$9,$2,$3,0*%
G04 Aperture macros list end*
%ADD10RoundRect,0.157500X-0.367500X-0.642500X0.367500X-0.642500X0.367500X0.642500X-0.367500X0.642500X0*%
%ADD11RoundRect,0.225000X-0.250000X0.225000X-0.250000X-0.225000X0.250000X-0.225000X0.250000X0.225000X0*%
%ADD12RoundRect,0.200000X-0.275000X0.200000X-0.275000X-0.200000X0.275000X-0.200000X0.275000X0.200000X0*%
%ADD13RoundRect,0.225000X0.225000X0.375000X-0.225000X0.375000X-0.225000X-0.375000X0.225000X-0.375000X0*%
%ADD14RoundRect,0.218750X0.218750X0.256250X-0.218750X0.256250X-0.218750X-0.256250X0.218750X-0.256250X0*%
%ADD15RoundRect,0.225000X-0.675000X-0.525000X0.675000X-0.525000X0.675000X0.525000X-0.675000X0.525000X0*%
%ADD16RoundRect,0.225000X0.250000X-0.225000X0.250000X0.225000X-0.250000X0.225000X-0.250000X-0.225000X0*%
%ADD17RoundRect,0.218750X-0.218750X-0.256250X0.218750X-0.256250X0.218750X0.256250X-0.218750X0.256250X0*%
%ADD18C,6.400000*%
%ADD19RoundRect,0.250000X0.600000X0.600000X-0.600000X0.600000X-0.600000X-0.600000X0.600000X-0.600000X0*%
%ADD20C,1.700000*%
%ADD21C,0.650000*%
%ADD22RoundRect,0.150000X-0.425000X0.150000X-0.425000X-0.150000X0.425000X-0.150000X0.425000X0.150000X0*%
%ADD23RoundRect,0.075000X-0.500000X0.075000X-0.500000X-0.075000X0.500000X-0.075000X0.500000X0.075000X0*%
%ADD24O,2.100000X1.000000*%
%ADD25O,1.800000X1.000000*%
%ADD26O,1.524000X2.974000*%
%ADD27R,1.524000X2.974000*%
%ADD28RoundRect,0.097222X0.252778X0.402778X-0.252778X0.402778X-0.252778X-0.402778X0.252778X-0.402778X0*%
%ADD29RoundRect,0.125000X0.625000X0.125000X-0.625000X0.125000X-0.625000X-0.125000X0.625000X-0.125000X0*%
%ADD30RoundRect,0.125000X0.125000X0.625000X-0.125000X0.625000X-0.125000X-0.625000X0.125000X-0.625000X0*%
%ADD31RoundRect,0.218750X-0.256250X0.218750X-0.256250X-0.218750X0.256250X-0.218750X0.256250X0.218750X0*%
%ADD32RoundRect,0.200000X0.200000X0.275000X-0.200000X0.275000X-0.200000X-0.275000X0.200000X-0.275000X0*%
%ADD33RoundRect,0.250000X-1.100000X-0.250000X1.100000X-0.250000X1.100000X0.250000X-1.100000X0.250000X0*%
%ADD34RoundRect,0.175000X0.200000X0.175000X-0.200000X0.175000X-0.200000X-0.175000X0.200000X-0.175000X0*%
%ADD35RoundRect,0.200000X-0.200000X-0.275000X0.200000X-0.275000X0.200000X0.275000X-0.200000X0.275000X0*%
%ADD36O,2.974000X1.524000*%
%ADD37R,2.974000X1.524000*%
%ADD38RoundRect,0.087500X-0.725000X-0.087500X0.725000X-0.087500X0.725000X0.087500X-0.725000X0.087500X0*%
%ADD39RoundRect,0.225000X-0.225000X-0.250000X0.225000X-0.250000X0.225000X0.250000X-0.225000X0.250000X0*%
%ADD40RoundRect,0.150000X0.825000X0.150000X-0.825000X0.150000X-0.825000X-0.150000X0.825000X-0.150000X0*%
%ADD41RoundRect,0.375000X-0.625000X-0.375000X0.625000X-0.375000X0.625000X0.375000X-0.625000X0.375000X0*%
%ADD42RoundRect,0.500000X-0.500000X-1.400000X0.500000X-1.400000X0.500000X1.400000X-0.500000X1.400000X0*%
%ADD43R,1.000000X1.500000*%
G04 APERTURE END LIST*
G04 #@! TO.C,JP1*
G36*
X129875000Y-94895000D02*
G01*
X129575000Y-94895000D01*
X129575000Y-93395000D01*
X129875000Y-93395000D01*
X129875000Y-94895000D01*
G37*
G04 #@! TD*
D10*
G04 #@! TO.C,SW1*
X173250000Y-74900000D03*
X177700000Y-74900000D03*
G04 #@! TD*
D11*
G04 #@! TO.C,C11*
X134000000Y-81475000D03*
X134000000Y-83025000D03*
G04 #@! TD*
D12*
G04 #@! TO.C,R12*
X149255000Y-80850000D03*
X149255000Y-82500000D03*
G04 #@! TD*
D13*
G04 #@! TO.C,D15*
X127900000Y-89000000D03*
X124600000Y-89000000D03*
G04 #@! TD*
D14*
G04 #@! TO.C,D9*
X126868000Y-76500000D03*
X125293000Y-76500000D03*
G04 #@! TD*
D15*
G04 #@! TO.C,SW3*
X132170000Y-86950000D03*
X132170000Y-91250000D03*
X134710000Y-86950000D03*
X134710000Y-91250000D03*
X137250000Y-86950000D03*
X137250000Y-91250000D03*
G04 #@! TD*
D16*
G04 #@! TO.C,C3*
X141230000Y-84500000D03*
X141230000Y-82950000D03*
G04 #@! TD*
D17*
G04 #@! TO.C,D4*
X158712500Y-76520000D03*
X160287500Y-76520000D03*
G04 #@! TD*
G04 #@! TO.C,D13*
X125387500Y-106750000D03*
X126962500Y-106750000D03*
G04 #@! TD*
D16*
G04 #@! TO.C,C8*
X158500000Y-88550000D03*
X158500000Y-87000000D03*
G04 #@! TD*
D17*
G04 #@! TO.C,D11*
X115925000Y-73200000D03*
X117500000Y-73200000D03*
G04 #@! TD*
D18*
G04 #@! TO.C,H3*
X113950000Y-107100000D03*
G04 #@! TD*
D19*
G04 #@! TO.C,J12*
X124175000Y-98100000D03*
D20*
X121635000Y-98100000D03*
X124175000Y-95560000D03*
X121635000Y-95560000D03*
X124175000Y-93020000D03*
X121635000Y-93020000D03*
G04 #@! TD*
D21*
G04 #@! TO.C,J10*
X116780000Y-78430000D03*
X116780000Y-84210000D03*
D22*
X117855000Y-78120000D03*
X117855000Y-78920000D03*
D23*
X117855000Y-80070000D03*
X117855000Y-81070000D03*
X117855000Y-81570000D03*
X117855000Y-82570000D03*
D22*
X117855000Y-83720000D03*
X117855000Y-84520000D03*
X117855000Y-84520000D03*
X117855000Y-83720000D03*
D23*
X117855000Y-83070000D03*
X117855000Y-82070000D03*
X117855000Y-80570000D03*
X117855000Y-79570000D03*
D22*
X117855000Y-78920000D03*
X117855000Y-78120000D03*
D24*
X117280000Y-77000000D03*
D25*
X113100000Y-77000000D03*
D24*
X117280000Y-85640000D03*
D25*
X113100000Y-85640000D03*
G04 #@! TD*
D26*
G04 #@! TO.C,J3*
X153000000Y-73750000D03*
X151000000Y-73750000D03*
D27*
X149000000Y-73750000D03*
G04 #@! TD*
D12*
G04 #@! TO.C,R10*
X145255000Y-80850000D03*
X145255000Y-82500000D03*
G04 #@! TD*
D11*
G04 #@! TO.C,C1*
X136250000Y-107450000D03*
X136250000Y-109000000D03*
G04 #@! TD*
D28*
G04 #@! TO.C,F1*
X122850000Y-103015000D03*
X121150000Y-103015000D03*
G04 #@! TD*
D29*
G04 #@! TO.C,U1*
X150000000Y-92000000D03*
X150000000Y-91200000D03*
X150000000Y-90400000D03*
X150000000Y-89600000D03*
X150000000Y-88800000D03*
X150000000Y-88000000D03*
X150000000Y-87200000D03*
X150000000Y-86400000D03*
D30*
X148625000Y-85025000D03*
X147825000Y-85025000D03*
X147025000Y-85025000D03*
X146225000Y-85025000D03*
X145425000Y-85025000D03*
X144625000Y-85025000D03*
X143825000Y-85025000D03*
X143025000Y-85025000D03*
D29*
X141650000Y-86400000D03*
X141650000Y-87200000D03*
X141650000Y-88000000D03*
X141650000Y-88800000D03*
X141650000Y-89600000D03*
X141650000Y-90400000D03*
X141650000Y-91200000D03*
X141650000Y-92000000D03*
D30*
X143025000Y-93375000D03*
X143825000Y-93375000D03*
X144625000Y-93375000D03*
X145425000Y-93375000D03*
X146225000Y-93375000D03*
X147025000Y-93375000D03*
X147825000Y-93375000D03*
X148625000Y-93375000D03*
G04 #@! TD*
D31*
G04 #@! TO.C,FB1*
X156500000Y-86987500D03*
X156500000Y-88562500D03*
G04 #@! TD*
D26*
G04 #@! TO.C,J4*
X161500000Y-73750000D03*
X159500000Y-73750000D03*
D27*
X157500000Y-73750000D03*
G04 #@! TD*
D17*
G04 #@! TO.C,D2*
X141712500Y-76520000D03*
X143287500Y-76520000D03*
G04 #@! TD*
D32*
G04 #@! TO.C,R15*
X162500000Y-87000000D03*
X160850000Y-87000000D03*
G04 #@! TD*
D26*
G04 #@! TO.C,J5*
X170000000Y-73750000D03*
X168000000Y-73750000D03*
D27*
X166000000Y-73750000D03*
G04 #@! TD*
D31*
G04 #@! TO.C,D8*
X169530000Y-98162500D03*
X169530000Y-99737500D03*
G04 #@! TD*
D33*
G04 #@! TO.C,SW2*
X151250000Y-101517500D03*
X163950000Y-101517500D03*
X151250000Y-98977500D03*
X163950000Y-104057500D03*
X151250000Y-104057500D03*
X163950000Y-98977500D03*
G04 #@! TD*
D34*
G04 #@! TO.C,Y1*
X152007500Y-92180000D03*
X153357500Y-92180000D03*
X152007500Y-91180000D03*
X153357500Y-91180000D03*
G04 #@! TD*
D32*
G04 #@! TO.C,R16*
X162500000Y-89000000D03*
X160850000Y-89000000D03*
G04 #@! TD*
D17*
G04 #@! TO.C,D1*
X133212500Y-76500000D03*
X134787500Y-76500000D03*
G04 #@! TD*
D35*
G04 #@! TO.C,R19*
X115850000Y-75000000D03*
X117500000Y-75000000D03*
G04 #@! TD*
D17*
G04 #@! TO.C,D10*
X122127000Y-76500000D03*
X123702000Y-76500000D03*
G04 #@! TD*
D16*
G04 #@! TO.C,C6*
X152500000Y-88550000D03*
X152500000Y-87000000D03*
G04 #@! TD*
D26*
G04 #@! TO.C,J9*
X127500000Y-73750000D03*
X125500000Y-73750000D03*
X123500000Y-73750000D03*
D27*
X121500000Y-73750000D03*
G04 #@! TD*
D16*
G04 #@! TO.C,C2*
X136250000Y-105775000D03*
X136250000Y-104225000D03*
G04 #@! TD*
D32*
G04 #@! TO.C,R24*
X123500000Y-108760000D03*
X121850000Y-108760000D03*
G04 #@! TD*
D36*
G04 #@! TO.C,J8*
X172300000Y-100950000D03*
X172300000Y-98950000D03*
D37*
X172300000Y-96950000D03*
G04 #@! TD*
D35*
G04 #@! TO.C,R22*
X124700000Y-86500000D03*
X126350000Y-86500000D03*
G04 #@! TD*
D32*
G04 #@! TO.C,R14*
X162500000Y-85000000D03*
X160850000Y-85000000D03*
G04 #@! TD*
D16*
G04 #@! TO.C,C5*
X139250000Y-84500000D03*
X139250000Y-82950000D03*
G04 #@! TD*
D32*
G04 #@! TO.C,R23*
X123500000Y-106750000D03*
X121850000Y-106750000D03*
G04 #@! TD*
G04 #@! TO.C,R26*
X146825000Y-97500000D03*
X145175000Y-97500000D03*
G04 #@! TD*
D11*
G04 #@! TO.C,C12*
X136705000Y-97820000D03*
X136705000Y-99370000D03*
G04 #@! TD*
D26*
G04 #@! TO.C,J2*
X144500000Y-73750000D03*
X142500000Y-73750000D03*
D27*
X140500000Y-73750000D03*
G04 #@! TD*
D38*
G04 #@! TO.C,U3*
X127275000Y-81250000D03*
X127275000Y-81750000D03*
X127275000Y-82250000D03*
X127275000Y-82750000D03*
X127275000Y-83250000D03*
X131500000Y-83250000D03*
X131500000Y-82750000D03*
X131500000Y-82250000D03*
X131500000Y-81750000D03*
X131500000Y-81250000D03*
G04 #@! TD*
D16*
G04 #@! TO.C,C7*
X154500000Y-88550000D03*
X154500000Y-87000000D03*
G04 #@! TD*
D12*
G04 #@! TO.C,R11*
X147255000Y-80850000D03*
X147255000Y-82500000D03*
G04 #@! TD*
D17*
G04 #@! TO.C,D14*
X125387500Y-108750000D03*
X126962500Y-108750000D03*
G04 #@! TD*
D18*
G04 #@! TO.C,H4*
X177050000Y-107100000D03*
G04 #@! TD*
D36*
G04 #@! TO.C,J7*
X172300000Y-92450000D03*
X172300000Y-90450000D03*
D37*
X172300000Y-88450000D03*
G04 #@! TD*
D32*
G04 #@! TO.C,R25*
X137000000Y-94145000D03*
X135350000Y-94145000D03*
G04 #@! TD*
D39*
G04 #@! TO.C,C9*
X155075000Y-93000000D03*
X156625000Y-93000000D03*
G04 #@! TD*
D31*
G04 #@! TO.C,D7*
X169530000Y-89662500D03*
X169530000Y-91237500D03*
G04 #@! TD*
D26*
G04 #@! TO.C,J1*
X136000000Y-73750000D03*
X134000000Y-73750000D03*
D27*
X132000000Y-73750000D03*
G04 #@! TD*
D18*
G04 #@! TO.C,H2*
X177050000Y-69000000D03*
G04 #@! TD*
D12*
G04 #@! TO.C,R20*
X122000000Y-81675000D03*
X122000000Y-83325000D03*
G04 #@! TD*
G04 #@! TO.C,R9*
X143255000Y-80850000D03*
X143255000Y-82500000D03*
G04 #@! TD*
G04 #@! TO.C,R13*
X151255000Y-80850000D03*
X151255000Y-82500000D03*
G04 #@! TD*
D39*
G04 #@! TO.C,C4*
X150200000Y-94250000D03*
X151750000Y-94250000D03*
G04 #@! TD*
D36*
G04 #@! TO.C,J6*
X172300000Y-83950000D03*
X172300000Y-81950000D03*
D37*
X172300000Y-79950000D03*
G04 #@! TD*
D31*
G04 #@! TO.C,D6*
X169530000Y-81162500D03*
X169530000Y-82737500D03*
G04 #@! TD*
G04 #@! TO.C,D12*
X123750000Y-80962500D03*
X123750000Y-82537500D03*
G04 #@! TD*
D17*
G04 #@! TO.C,D5*
X167212500Y-76520000D03*
X168787500Y-76520000D03*
G04 #@! TD*
D39*
G04 #@! TO.C,C10*
X155075000Y-91000000D03*
X156625000Y-91000000D03*
G04 #@! TD*
D13*
G04 #@! TO.C,D16*
X127900000Y-103000000D03*
X124600000Y-103000000D03*
G04 #@! TD*
D40*
G04 #@! TO.C,U4*
X134250000Y-100500000D03*
X134250000Y-99230000D03*
X134250000Y-97960000D03*
X134250000Y-96690000D03*
X129300000Y-96690000D03*
X129300000Y-97960000D03*
X129300000Y-99230000D03*
X129300000Y-100500000D03*
G04 #@! TD*
D41*
G04 #@! TO.C,U2*
X138700000Y-102700000D03*
X138700000Y-105000000D03*
D42*
X145000000Y-105000000D03*
D41*
X138700000Y-107300000D03*
G04 #@! TD*
D43*
G04 #@! TO.C,JP1*
X130375000Y-94145000D03*
X129075000Y-94145000D03*
G04 #@! TD*
D35*
G04 #@! TO.C,R21*
X121350000Y-86500000D03*
X123000000Y-86500000D03*
G04 #@! TD*
D18*
G04 #@! TO.C,H1*
X113950000Y-69000000D03*
G04 #@! TD*
D17*
G04 #@! TO.C,D3*
X150212500Y-76520000D03*
X151787500Y-76520000D03*
G04 #@! TD*
D28*
G04 #@! TO.C,F2*
X122850000Y-89000000D03*
X121150000Y-89000000D03*
G04 #@! TD*
M02*
