G04 #@! TF.GenerationSoftware,KiCad,Pcbnew,9.0.0*
G04 #@! TF.CreationDate,2025-03-09T13:33:35+09:00*
G04 #@! TF.ProjectId,GPIOBoard,4750494f-426f-4617-9264-2e6b69636164,rev?*
G04 #@! TF.SameCoordinates,Original*
G04 #@! TF.FileFunction,Copper,L2,Bot*
G04 #@! TF.FilePolarity,Positive*
%FSLAX46Y46*%
G04 Gerber Fmt 4.6, Leading zero omitted, Abs format (unit mm)*
G04 Created by KiCad (PCBNEW 9.0.0) date 2025-03-09 13:33:35*
%MOMM*%
%LPD*%
G01*
G04 APERTURE LIST*
G04 Aperture macros list*
%AMRoundRect*
0 Rectangle with rounded corners*
0 $1 Rounding radius*
0 $2 $3 $4 $5 $6 $7 $8 $9 X,Y pos of 4 corners*
0 Add a 4 corners polygon primitive as box body*
4,1,4,$2,$3,$4,$5,$6,$7,$8,$9,$2,$3,0*
0 Add four circle primitives for the rounded corners*
1,1,$1+$1,$2,$3*
1,1,$1+$1,$4,$5*
1,1,$1+$1,$6,$7*
1,1,$1+$1,$8,$9*
0 Add four rect primitives between the rounded corners*
20,1,$1+$1,$2,$3,$4,$5,0*
20,1,$1+$1,$4,$5,$6,$7,0*
20,1,$1+$1,$6,$7,$8,$9,0*
20,1,$1+$1,$8,$9,$2,$3,0*%
G04 Aperture macros list end*
G04 #@! TA.AperFunction,ComponentPad*
%ADD10C,6.400000*%
G04 #@! TD*
G04 #@! TA.AperFunction,ComponentPad*
%ADD11RoundRect,0.250000X0.600000X0.600000X-0.600000X0.600000X-0.600000X-0.600000X0.600000X-0.600000X0*%
G04 #@! TD*
G04 #@! TA.AperFunction,ComponentPad*
%ADD12C,1.700000*%
G04 #@! TD*
G04 #@! TA.AperFunction,HeatsinkPad*
%ADD13O,2.100000X1.000000*%
G04 #@! TD*
G04 #@! TA.AperFunction,HeatsinkPad*
%ADD14O,1.800000X1.000000*%
G04 #@! TD*
G04 #@! TA.AperFunction,ComponentPad*
%ADD15O,1.524000X2.974000*%
G04 #@! TD*
G04 #@! TA.AperFunction,ComponentPad*
%ADD16R,1.524000X2.974000*%
G04 #@! TD*
G04 #@! TA.AperFunction,ComponentPad*
%ADD17O,2.974000X1.524000*%
G04 #@! TD*
G04 #@! TA.AperFunction,ComponentPad*
%ADD18R,2.974000X1.524000*%
G04 #@! TD*
G04 #@! TA.AperFunction,SMDPad,CuDef*
%ADD19RoundRect,0.200000X-0.200000X-0.275000X0.200000X-0.275000X0.200000X0.275000X-0.200000X0.275000X0*%
G04 #@! TD*
G04 #@! TA.AperFunction,SMDPad,CuDef*
%ADD20RoundRect,0.200000X-0.275000X0.200000X-0.275000X-0.200000X0.275000X-0.200000X0.275000X0.200000X0*%
G04 #@! TD*
G04 #@! TA.AperFunction,SMDPad,CuDef*
%ADD21RoundRect,0.200000X0.200000X0.275000X-0.200000X0.275000X-0.200000X-0.275000X0.200000X-0.275000X0*%
G04 #@! TD*
G04 #@! TA.AperFunction,SMDPad,CuDef*
%ADD22RoundRect,0.150000X0.625000X-0.150000X0.625000X0.150000X-0.625000X0.150000X-0.625000X-0.150000X0*%
G04 #@! TD*
G04 #@! TA.AperFunction,SMDPad,CuDef*
%ADD23RoundRect,0.250000X0.650000X-0.350000X0.650000X0.350000X-0.650000X0.350000X-0.650000X-0.350000X0*%
G04 #@! TD*
G04 #@! TA.AperFunction,ViaPad*
%ADD24C,0.600000*%
G04 #@! TD*
G04 #@! TA.AperFunction,ViaPad*
%ADD25C,1.200000*%
G04 #@! TD*
G04 #@! TA.AperFunction,Conductor*
%ADD26C,0.500000*%
G04 #@! TD*
G04 #@! TA.AperFunction,Conductor*
%ADD27C,0.200000*%
G04 #@! TD*
G04 #@! TA.AperFunction,Conductor*
%ADD28C,1.000000*%
G04 #@! TD*
G04 APERTURE END LIST*
D10*
G04 #@! TO.P,H3,1,1*
G04 #@! TO.N,GNDD*
X113950000Y-107100000D03*
G04 #@! TD*
D11*
G04 #@! TO.P,J12,1,Pin_1*
G04 #@! TO.N,Net-(J12-Pin_1)*
X124175000Y-98100000D03*
D12*
G04 #@! TO.P,J12,2,Pin_2*
X121635000Y-98100000D03*
G04 #@! TO.P,J12,3,Pin_3*
G04 #@! TO.N,/CAN/CAN_H*
X124175000Y-95560000D03*
G04 #@! TO.P,J12,4,Pin_4*
G04 #@! TO.N,/CAN/CAN_L*
X121635000Y-95560000D03*
G04 #@! TO.P,J12,5,Pin_5*
G04 #@! TO.N,GNDD*
X124175000Y-93020000D03*
G04 #@! TO.P,J12,6,Pin_6*
X121635000Y-93020000D03*
G04 #@! TD*
D13*
G04 #@! TO.P,J10,S1,SHIELD*
G04 #@! TO.N,unconnected-(J10-SHIELD-PadS1)_3*
X117280000Y-77000000D03*
D14*
G04 #@! TO.N,unconnected-(J10-SHIELD-PadS1)_1*
X113100000Y-77000000D03*
D13*
G04 #@! TO.N,unconnected-(J10-SHIELD-PadS1)*
X117280000Y-85640000D03*
D14*
G04 #@! TO.N,unconnected-(J10-SHIELD-PadS1)_2*
X113100000Y-85640000D03*
G04 #@! TD*
D15*
G04 #@! TO.P,J3,1,Pin_1*
G04 #@! TO.N,+3.3V*
X153000000Y-73750000D03*
G04 #@! TO.P,J3,2,Pin_2*
G04 #@! TO.N,Net-(D3-A)*
X151000000Y-73750000D03*
D16*
G04 #@! TO.P,J3,3,Pin_3*
G04 #@! TO.N,GNDD*
X149000000Y-73750000D03*
G04 #@! TD*
D15*
G04 #@! TO.P,J4,1,Pin_1*
G04 #@! TO.N,+3.3V*
X161500000Y-73750000D03*
G04 #@! TO.P,J4,2,Pin_2*
G04 #@! TO.N,Net-(D4-A)*
X159500000Y-73750000D03*
D16*
G04 #@! TO.P,J4,3,Pin_3*
G04 #@! TO.N,GNDD*
X157500000Y-73750000D03*
G04 #@! TD*
D15*
G04 #@! TO.P,J5,1,Pin_1*
G04 #@! TO.N,+3.3V*
X170000000Y-73750000D03*
G04 #@! TO.P,J5,2,Pin_2*
G04 #@! TO.N,Net-(D5-A)*
X168000000Y-73750000D03*
D16*
G04 #@! TO.P,J5,3,Pin_3*
G04 #@! TO.N,GNDD*
X166000000Y-73750000D03*
G04 #@! TD*
D15*
G04 #@! TO.P,J9,1,Pin_1*
G04 #@! TO.N,+5V*
X127500000Y-73750000D03*
G04 #@! TO.P,J9,2,Pin_2*
G04 #@! TO.N,/MCU/UART1_TX*
X125500000Y-73750000D03*
G04 #@! TO.P,J9,3,Pin_3*
G04 #@! TO.N,/MCU/UART1_RX*
X123500000Y-73750000D03*
D16*
G04 #@! TO.P,J9,4,Pin_4*
G04 #@! TO.N,GNDD*
X121500000Y-73750000D03*
G04 #@! TD*
D17*
G04 #@! TO.P,J8,1,Pin_1*
G04 #@! TO.N,+3.3V*
X172300000Y-100950000D03*
G04 #@! TO.P,J8,2,Pin_2*
G04 #@! TO.N,Net-(D8-A)*
X172300000Y-98950000D03*
D18*
G04 #@! TO.P,J8,3,Pin_3*
G04 #@! TO.N,GNDD*
X172300000Y-96950000D03*
G04 #@! TD*
D15*
G04 #@! TO.P,J2,1,Pin_1*
G04 #@! TO.N,+3.3V*
X144500000Y-73750000D03*
G04 #@! TO.P,J2,2,Pin_2*
G04 #@! TO.N,Net-(D2-A)*
X142500000Y-73750000D03*
D16*
G04 #@! TO.P,J2,3,Pin_3*
G04 #@! TO.N,GNDD*
X140500000Y-73750000D03*
G04 #@! TD*
D10*
G04 #@! TO.P,H4,1,1*
G04 #@! TO.N,GNDD*
X177050000Y-107100000D03*
G04 #@! TD*
D17*
G04 #@! TO.P,J7,1,Pin_1*
G04 #@! TO.N,+3.3V*
X172300000Y-92450000D03*
G04 #@! TO.P,J7,2,Pin_2*
G04 #@! TO.N,Net-(D7-A)*
X172300000Y-90450000D03*
D18*
G04 #@! TO.P,J7,3,Pin_3*
G04 #@! TO.N,GNDD*
X172300000Y-88450000D03*
G04 #@! TD*
D15*
G04 #@! TO.P,J1,1,Pin_1*
G04 #@! TO.N,+3.3V*
X136000000Y-73750000D03*
G04 #@! TO.P,J1,2,Pin_2*
G04 #@! TO.N,Net-(D1-A)*
X134000000Y-73750000D03*
D16*
G04 #@! TO.P,J1,3,Pin_3*
G04 #@! TO.N,GNDD*
X132000000Y-73750000D03*
G04 #@! TD*
D10*
G04 #@! TO.P,H2,1,1*
G04 #@! TO.N,GNDD*
X177050000Y-69000000D03*
G04 #@! TD*
D17*
G04 #@! TO.P,J6,1,Pin_1*
G04 #@! TO.N,+3.3V*
X172300000Y-83950000D03*
G04 #@! TO.P,J6,2,Pin_2*
G04 #@! TO.N,Net-(D6-A)*
X172300000Y-81950000D03*
D18*
G04 #@! TO.P,J6,3,Pin_3*
G04 #@! TO.N,GNDD*
X172300000Y-79950000D03*
G04 #@! TD*
D10*
G04 #@! TO.P,H1,1,1*
G04 #@! TO.N,GNDD*
X113950000Y-69000000D03*
G04 #@! TD*
D19*
G04 #@! TO.P,R5,1*
G04 #@! TO.N,Net-(D5-K)*
X163175000Y-78480000D03*
G04 #@! TO.P,R5,2*
G04 #@! TO.N,GNDD*
X164825000Y-78480000D03*
G04 #@! TD*
D20*
G04 #@! TO.P,R6,1*
G04 #@! TO.N,Net-(D6-K)*
X167570000Y-85125000D03*
G04 #@! TO.P,R6,2*
G04 #@! TO.N,GNDD*
X167570000Y-86775000D03*
G04 #@! TD*
D21*
G04 #@! TO.P,R17,1*
G04 #@! TO.N,Net-(D9-K)*
X126905000Y-77960000D03*
G04 #@! TO.P,R17,2*
G04 #@! TO.N,GNDD*
X125255000Y-77960000D03*
G04 #@! TD*
G04 #@! TO.P,R3,1*
G04 #@! TO.N,Net-(D3-K)*
X147825000Y-78480000D03*
G04 #@! TO.P,R3,2*
G04 #@! TO.N,GNDD*
X146175000Y-78480000D03*
G04 #@! TD*
D22*
G04 #@! TO.P,J11,1,Pin_1*
G04 #@! TO.N,/MCU/SWDIO*
X115675000Y-82820000D03*
G04 #@! TO.P,J11,2,Pin_2*
G04 #@! TO.N,/MCU/SWCLK*
X115675000Y-81820000D03*
G04 #@! TO.P,J11,3,Pin_3*
G04 #@! TO.N,GNDD*
X115675000Y-80820000D03*
G04 #@! TO.P,J11,4,Pin_4*
G04 #@! TO.N,/MCU/NRST*
X115675000Y-79820000D03*
D23*
G04 #@! TO.P,J11,MP*
G04 #@! TO.N,N/C*
X111800000Y-84120000D03*
X111800000Y-78520000D03*
G04 #@! TD*
D21*
G04 #@! TO.P,R2,1*
G04 #@! TO.N,Net-(D2-K)*
X139325000Y-78480000D03*
G04 #@! TO.P,R2,2*
G04 #@! TO.N,GNDD*
X137675000Y-78480000D03*
G04 #@! TD*
G04 #@! TO.P,R4,1*
G04 #@! TO.N,Net-(D4-K)*
X156325000Y-78480000D03*
G04 #@! TO.P,R4,2*
G04 #@! TO.N,GNDD*
X154675000Y-78480000D03*
G04 #@! TD*
D19*
G04 #@! TO.P,R18,1*
G04 #@! TO.N,Net-(D10-K)*
X122081000Y-77960000D03*
G04 #@! TO.P,R18,2*
G04 #@! TO.N,GNDD*
X123731000Y-77960000D03*
G04 #@! TD*
D20*
G04 #@! TO.P,R7,1*
G04 #@! TO.N,Net-(D7-K)*
X167570000Y-93625000D03*
G04 #@! TO.P,R7,2*
G04 #@! TO.N,GNDD*
X167570000Y-95275000D03*
G04 #@! TD*
G04 #@! TO.P,R8,1*
G04 #@! TO.N,Net-(D8-K)*
X167570000Y-100125000D03*
G04 #@! TO.P,R8,2*
G04 #@! TO.N,GNDD*
X167570000Y-101775000D03*
G04 #@! TD*
D21*
G04 #@! TO.P,R1,1*
G04 #@! TO.N,Net-(D1-K)*
X130825000Y-78460000D03*
G04 #@! TO.P,R1,2*
G04 #@! TO.N,GNDD*
X129175000Y-78460000D03*
G04 #@! TD*
D24*
G04 #@! TO.N,GNDD*
X155600000Y-98060000D03*
X167250000Y-90170000D03*
X155170000Y-84110000D03*
X124610000Y-90480000D03*
X125610000Y-81160000D03*
X127550000Y-84250000D03*
X127570000Y-87570000D03*
X121830000Y-87790000D03*
X132250000Y-98500000D03*
G04 #@! TO.N,+5V*
X136705000Y-97820000D03*
X130375000Y-94145000D03*
G04 #@! TO.N,GNDD*
X154650000Y-99640000D03*
X163480000Y-86020000D03*
X159270000Y-78830000D03*
X153500000Y-87000000D03*
X163130000Y-66150000D03*
X174360000Y-66140000D03*
X124450000Y-78960000D03*
X151220000Y-93090000D03*
X116610000Y-66120000D03*
X141800000Y-103680000D03*
X141250000Y-80110000D03*
X151500000Y-87750000D03*
X111100000Y-104410000D03*
X151940000Y-109970000D03*
X165920000Y-80670000D03*
X138000000Y-99250000D03*
X118780000Y-72090000D03*
X128300000Y-109990000D03*
X133000000Y-106000000D03*
X151220000Y-66230000D03*
X153560000Y-78310000D03*
X168700000Y-92350000D03*
X169810000Y-84030000D03*
X111090000Y-71530000D03*
X146250000Y-80000000D03*
X116500000Y-109990000D03*
X139000000Y-96500000D03*
X154680000Y-103130000D03*
X149920000Y-96050000D03*
X143140000Y-98500000D03*
X163590000Y-109930000D03*
X140460000Y-99340000D03*
X152680000Y-80750000D03*
X139610000Y-109970000D03*
X130550000Y-80300000D03*
X179920000Y-104480000D03*
X179890000Y-95620000D03*
X159680000Y-89140000D03*
X179970000Y-87140000D03*
X171180000Y-76200000D03*
X179960000Y-71580000D03*
X134000000Y-83025000D03*
X138990000Y-66270000D03*
X128470000Y-101640000D03*
X169420000Y-96920000D03*
X169850000Y-105800000D03*
X111260000Y-88410000D03*
X127800000Y-66130000D03*
X135320000Y-84330000D03*
X111110000Y-80100000D03*
X111130000Y-97160000D03*
X162450000Y-94400000D03*
X174610000Y-110000000D03*
X157500000Y-87750000D03*
X179850000Y-78830000D03*
X163560000Y-90050000D03*
X148550000Y-103500000D03*
G04 #@! TO.N,+5V*
X128630000Y-85000000D03*
G04 #@! TO.N,+3.3V*
X150200000Y-94250000D03*
D25*
X137250000Y-83750000D03*
D24*
X156500000Y-86987500D03*
X145000000Y-105000000D03*
X141230000Y-84500000D03*
D25*
X141750000Y-95000000D03*
D24*
G04 #@! TO.N,/MCU/NRST*
X150000000Y-89600000D03*
X172500000Y-77250000D03*
X158500000Y-88550000D03*
G04 #@! TO.N,Net-(D9-K)*
X126868000Y-78000000D03*
G04 #@! TO.N,Net-(D10-K)*
X122127000Y-78000000D03*
G04 #@! TO.N,/CAN/CAN_TX*
X134250000Y-100500000D03*
X126962500Y-106750000D03*
G04 #@! TO.N,/CAN/CAN_RX*
X134250000Y-96690000D03*
X126962500Y-108750000D03*
G04 #@! TO.N,/MCU/SWDIO*
X141650000Y-91200000D03*
G04 #@! TO.N,/MCU/SWCLK*
X141650000Y-92000000D03*
G04 #@! TO.N,Net-(J10-CC1)*
X124700000Y-86500000D03*
X119021235Y-80161235D03*
G04 #@! TO.N,/CAN/CAN_L*
X129300000Y-97960000D03*
G04 #@! TO.N,/CAN/CAN_H*
X129300000Y-99230000D03*
G04 #@! TO.N,/MCU/UART2_TX*
X143825000Y-93375000D03*
X134000000Y-84250000D03*
G04 #@! TO.N,/MCU/UART2_RX*
X133000000Y-84250000D03*
X143025000Y-93375000D03*
G04 #@! TO.N,Net-(D1-K)*
X130825000Y-78460000D03*
G04 #@! TO.N,Net-(D2-K)*
X139325000Y-78480000D03*
G04 #@! TO.N,Net-(D3-K)*
X147825000Y-78480000D03*
G04 #@! TO.N,Net-(D4-K)*
X156325000Y-78480000D03*
G04 #@! TO.N,Net-(D5-K)*
X163175000Y-78480000D03*
G04 #@! TO.N,Net-(D6-K)*
X169530000Y-81162500D03*
G04 #@! TO.N,Net-(D7-K)*
X169530000Y-89662500D03*
G04 #@! TO.N,Net-(D8-K)*
X169530000Y-98162500D03*
G04 #@! TO.N,Net-(D12-A)*
X123750000Y-82537500D03*
X131500000Y-84000000D03*
G04 #@! TO.N,Net-(U1-BOOT0)*
X146825000Y-97500000D03*
X147825000Y-93375000D03*
G04 #@! TD*
D26*
G04 #@! TO.N,+5V*
X130375000Y-94145000D02*
X133030000Y-94145000D01*
X133030000Y-94145000D02*
X136705000Y-97820000D01*
D27*
G04 #@! TO.N,GNDD*
X167500000Y-102055000D02*
X167570000Y-102125000D01*
D26*
G04 #@! TO.N,+5V*
X128630000Y-80130000D02*
X128040000Y-79540000D01*
X128040000Y-79540000D02*
X128040000Y-74290000D01*
X128040000Y-74290000D02*
X127500000Y-73750000D01*
X128630000Y-85000000D02*
X128630000Y-80130000D01*
D28*
G04 #@! TO.N,+3.3V*
X172351000Y-92399000D02*
X175042446Y-92399000D01*
X155188000Y-75938000D02*
X160349000Y-75938000D01*
X175951000Y-82799000D02*
X174851000Y-83899000D01*
X142750000Y-89000000D02*
X145000000Y-91250000D01*
X172300000Y-83950000D02*
X172351000Y-83899000D01*
X137250000Y-81000000D02*
X136000000Y-79750000D01*
D26*
X148500000Y-95950000D02*
X148500000Y-97250000D01*
D28*
X161500000Y-74787000D02*
X161500000Y-73750000D01*
X175951000Y-77807554D02*
X175951000Y-82799000D01*
X163688000Y-75938000D02*
X168849000Y-75938000D01*
X160349000Y-75938000D02*
X161500000Y-74787000D01*
D26*
X148500000Y-97250000D02*
X145000000Y-100750000D01*
D28*
X153000000Y-73750000D02*
X155188000Y-75938000D01*
D26*
X145000000Y-100750000D02*
X145000000Y-105000000D01*
D28*
X170000000Y-73750000D02*
X170650000Y-73750000D01*
X175042446Y-92399000D02*
X175951000Y-93307554D01*
X173949000Y-100950000D02*
X172300000Y-100950000D01*
X137250000Y-83750000D02*
X137250000Y-81000000D01*
X170000000Y-74787000D02*
X170000000Y-73750000D01*
X168849000Y-75938000D02*
X170000000Y-74787000D01*
X137250000Y-83750000D02*
X137250000Y-86000000D01*
X145000000Y-93750000D02*
X143750000Y-95000000D01*
X143750000Y-95000000D02*
X141750000Y-95000000D01*
X175951000Y-98948000D02*
X173949000Y-100950000D01*
X144500000Y-73750000D02*
X146688000Y-75938000D01*
X170650000Y-73750000D02*
X173799000Y-76899000D01*
X175042446Y-76899000D02*
X175951000Y-77807554D01*
X172351000Y-83899000D02*
X174899000Y-83899000D01*
X174851000Y-83899000D02*
X172351000Y-83899000D01*
X136000000Y-79750000D02*
X136000000Y-73750000D01*
X146688000Y-75938000D02*
X151849000Y-75938000D01*
D26*
X153262500Y-83750000D02*
X156500000Y-86987500D01*
D28*
X144500000Y-74787000D02*
X144500000Y-73750000D01*
X161500000Y-73750000D02*
X163688000Y-75938000D01*
X145000000Y-91250000D02*
X145000000Y-93750000D01*
X151849000Y-75938000D02*
X153000000Y-74787000D01*
X140250000Y-89000000D02*
X142750000Y-89000000D01*
X174899000Y-83899000D02*
X175951000Y-84951000D01*
X175951000Y-93307554D02*
X175951000Y-98948000D01*
X138188000Y-75938000D02*
X143349000Y-75938000D01*
X136000000Y-73750000D02*
X138188000Y-75938000D01*
X175951000Y-91490446D02*
X175042446Y-92399000D01*
X173799000Y-76899000D02*
X175042446Y-76899000D01*
D26*
X141980000Y-83750000D02*
X153262500Y-83750000D01*
D28*
X172300000Y-92450000D02*
X172351000Y-92399000D01*
X153000000Y-74787000D02*
X153000000Y-73750000D01*
X143349000Y-75938000D02*
X144500000Y-74787000D01*
D26*
X141230000Y-84500000D02*
X141980000Y-83750000D01*
D28*
X137250000Y-86000000D02*
X140250000Y-89000000D01*
X175951000Y-84951000D02*
X175951000Y-91490446D01*
D26*
X150200000Y-94250000D02*
X148500000Y-95950000D01*
D27*
G04 #@! TO.N,/MCU/NRST*
X165500000Y-83750000D02*
X160500000Y-83750000D01*
X149000000Y-89750000D02*
X149150000Y-89600000D01*
X159500000Y-87550000D02*
X158500000Y-88550000D01*
X172000000Y-77250000D02*
X165500000Y-83750000D01*
X142000000Y-96750000D02*
X146000000Y-96750000D01*
X148750000Y-92500000D02*
X149000000Y-92250000D01*
X114900001Y-79820000D02*
X114599000Y-80121001D01*
X138380000Y-93130000D02*
X142000000Y-96750000D01*
X119091000Y-83421000D02*
X128800000Y-93130000D01*
X115675000Y-79820000D02*
X114900001Y-79820000D01*
X114599000Y-80121001D02*
X114599000Y-83160968D01*
X149150000Y-89600000D02*
X150000000Y-89600000D01*
X114859032Y-83421000D02*
X119091000Y-83421000D01*
X159500000Y-84750000D02*
X159500000Y-87550000D01*
X172500000Y-77250000D02*
X172000000Y-77250000D01*
X146820000Y-92500000D02*
X148750000Y-92500000D01*
X146620000Y-96130000D02*
X146620000Y-92700000D01*
X149000000Y-92250000D02*
X149000000Y-89750000D01*
X128800000Y-93130000D02*
X138380000Y-93130000D01*
X114599000Y-83160968D02*
X114859032Y-83421000D01*
X146000000Y-96750000D02*
X146620000Y-96130000D01*
X146620000Y-92700000D02*
X146820000Y-92500000D01*
X160500000Y-83750000D02*
X159500000Y-84750000D01*
G04 #@! TO.N,/CAN/CAN_TX*
X126962500Y-106750000D02*
X127000000Y-106750000D01*
X127000000Y-106750000D02*
X133250000Y-100500000D01*
X133250000Y-100500000D02*
X134250000Y-100500000D01*
G04 #@! TO.N,/CAN/CAN_RX*
X126361500Y-108149000D02*
X126361500Y-106388500D01*
X126361500Y-106388500D02*
X133000000Y-99750000D01*
X133000000Y-99750000D02*
X133000000Y-97940000D01*
X133000000Y-97940000D02*
X134250000Y-96690000D01*
X126962500Y-108750000D02*
X126361500Y-108149000D01*
G04 #@! TO.N,/MCU/SWDIO*
X129149000Y-92601000D02*
X129150000Y-92600000D01*
X119102957Y-82820000D02*
X128883957Y-92601000D01*
X115675000Y-82820000D02*
X119102957Y-82820000D01*
X142624000Y-92376000D02*
X142624000Y-91623999D01*
X142400000Y-92600000D02*
X142624000Y-92376000D01*
X141400057Y-92600000D02*
X141401057Y-92601000D01*
X129150000Y-92600000D02*
X141400057Y-92600000D01*
X141401057Y-92601000D02*
X141898943Y-92601000D01*
X141898943Y-92601000D02*
X141899943Y-92600000D01*
X128883957Y-92601000D02*
X129149000Y-92601000D01*
X142624000Y-91623999D02*
X142200000Y-91200000D01*
X141899943Y-92600000D02*
X142400000Y-92600000D01*
X142200000Y-91200000D02*
X141650000Y-91200000D01*
G04 #@! TO.N,/MCU/SWCLK*
X128850057Y-92000000D02*
X119170057Y-82320000D01*
X141650000Y-92000000D02*
X128850057Y-92000000D01*
X116091968Y-81820000D02*
X115675000Y-81820000D01*
X116591968Y-82320000D02*
X116091968Y-81820000D01*
X119170057Y-82320000D02*
X116591968Y-82320000D01*
G04 #@! TO.N,Net-(J10-CC1)*
X119424059Y-80161235D02*
X119500000Y-80237176D01*
X119021235Y-80161235D02*
X119424059Y-80161235D01*
X119500000Y-80237176D02*
X119500000Y-82000000D01*
X119500000Y-82000000D02*
X124000000Y-86500000D01*
X124000000Y-86500000D02*
X124700000Y-86500000D01*
G04 #@! TO.N,/CAN/CAN_L*
X128460000Y-97960000D02*
X129300000Y-97960000D01*
X122945000Y-94250000D02*
X124750000Y-94250000D01*
X124750000Y-94250000D02*
X128460000Y-97960000D01*
X121635000Y-95560000D02*
X122945000Y-94250000D01*
G04 #@! TO.N,/CAN/CAN_H*
X129300000Y-99230000D02*
X127845000Y-99230000D01*
X127845000Y-99230000D02*
X124175000Y-95560000D01*
G04 #@! TO.N,/MCU/UART2_TX*
X142250000Y-90000000D02*
X143825000Y-91575000D01*
X143825000Y-91575000D02*
X143825000Y-93375000D01*
X134000000Y-84382785D02*
X139617215Y-90000000D01*
X139617215Y-90000000D02*
X142250000Y-90000000D01*
X134000000Y-84250000D02*
X134000000Y-84382785D01*
G04 #@! TO.N,/MCU/UART2_RX*
X133150057Y-84250000D02*
X133751057Y-84851000D01*
X133901115Y-84851000D02*
X139451115Y-90401000D01*
X133000000Y-84250000D02*
X133150057Y-84250000D01*
X142083900Y-90401000D02*
X143025000Y-91342100D01*
X133751057Y-84851000D02*
X133901115Y-84851000D01*
X143025000Y-91342100D02*
X143025000Y-93375000D01*
X139451115Y-90401000D02*
X142083900Y-90401000D01*
G04 #@! TO.N,Net-(D6-K)*
X169530000Y-81162500D02*
X167500000Y-83192500D01*
X167500000Y-85055000D02*
X167570000Y-85125000D01*
X167500000Y-83192500D02*
X167500000Y-85055000D01*
G04 #@! TO.N,Net-(D7-K)*
X167500000Y-91692500D02*
X167500000Y-93555000D01*
X169530000Y-89662500D02*
X167500000Y-91692500D01*
X167500000Y-93555000D02*
X167570000Y-93625000D01*
G04 #@! TO.N,Net-(D8-K)*
X169530000Y-98162500D02*
X167570000Y-100122500D01*
X167570000Y-100122500D02*
X167570000Y-100125000D01*
G04 #@! TO.N,Net-(D12-A)*
X129899000Y-85601000D02*
X131500000Y-84000000D01*
X123750000Y-82537500D02*
X126813500Y-85601000D01*
X126813500Y-85601000D02*
X129899000Y-85601000D01*
G04 #@! TO.N,Net-(U1-BOOT0)*
X147825000Y-96500000D02*
X146825000Y-97500000D01*
X147825000Y-93375000D02*
X147825000Y-96500000D01*
G04 #@! TD*
G04 #@! TA.AperFunction,Conductor*
G04 #@! TO.N,GNDD*
G36*
X173247082Y-77737509D02*
G01*
X173272639Y-77750589D01*
X173325084Y-77785631D01*
X173325085Y-77785631D01*
X173325086Y-77785632D01*
X173507165Y-77861052D01*
X173635764Y-77886632D01*
X173663871Y-77892223D01*
X173725782Y-77924608D01*
X173760356Y-77985323D01*
X173756617Y-78055093D01*
X173742784Y-78082729D01*
X173734917Y-78094502D01*
X173734912Y-78094511D01*
X173678343Y-78231082D01*
X173678340Y-78231092D01*
X173649500Y-78376079D01*
X173649500Y-78376082D01*
X173649500Y-78404381D01*
X173649500Y-78523918D01*
X173649500Y-78523920D01*
X173649499Y-78523920D01*
X173678340Y-78668907D01*
X173678343Y-78668917D01*
X173734912Y-78805488D01*
X173734919Y-78805501D01*
X173817048Y-78928415D01*
X173817051Y-78928419D01*
X173921580Y-79032948D01*
X173921584Y-79032951D01*
X174044498Y-79115080D01*
X174044511Y-79115087D01*
X174177531Y-79170185D01*
X174181087Y-79171658D01*
X174181091Y-79171658D01*
X174181092Y-79171659D01*
X174326079Y-79200500D01*
X174326082Y-79200500D01*
X174473920Y-79200500D01*
X174571462Y-79181096D01*
X174618913Y-79171658D01*
X174755495Y-79115084D01*
X174756077Y-79114694D01*
X174757608Y-79113673D01*
X174758879Y-79113274D01*
X174760870Y-79112211D01*
X174761071Y-79112588D01*
X174824285Y-79092794D01*
X174891665Y-79111278D01*
X174938356Y-79163256D01*
X174950500Y-79216774D01*
X174950500Y-82333218D01*
X174930815Y-82400257D01*
X174914181Y-82420899D01*
X174472899Y-82862181D01*
X174445971Y-82876884D01*
X174420153Y-82893477D01*
X174413952Y-82894368D01*
X174411576Y-82895666D01*
X174385218Y-82898500D01*
X174139774Y-82898500D01*
X174072735Y-82878815D01*
X174026980Y-82826011D01*
X174017036Y-82756853D01*
X174039456Y-82701614D01*
X174104787Y-82611694D01*
X174195005Y-82434632D01*
X174256413Y-82245636D01*
X174287500Y-82049361D01*
X174287500Y-81850639D01*
X174256413Y-81654364D01*
X174195005Y-81465368D01*
X174195005Y-81465367D01*
X174104786Y-81288305D01*
X174090132Y-81268135D01*
X173987981Y-81127536D01*
X173847464Y-80987019D01*
X173686694Y-80870213D01*
X173509632Y-80779994D01*
X173509629Y-80779993D01*
X173320637Y-80718587D01*
X173222498Y-80703043D01*
X173124361Y-80687500D01*
X171475639Y-80687500D01*
X171410214Y-80697862D01*
X171279362Y-80718587D01*
X171090370Y-80779993D01*
X171090367Y-80779994D01*
X170913305Y-80870213D01*
X170752533Y-80987021D01*
X170612021Y-81127533D01*
X170554818Y-81206267D01*
X170499488Y-81248932D01*
X170429875Y-81254911D01*
X170368080Y-81222305D01*
X170333722Y-81161466D01*
X170330500Y-81133381D01*
X170330500Y-81083655D01*
X170330499Y-81083653D01*
X170317487Y-81018238D01*
X170299737Y-80929003D01*
X170275386Y-80870213D01*
X170239397Y-80783327D01*
X170239390Y-80783314D01*
X170151789Y-80652211D01*
X170151786Y-80652207D01*
X170040292Y-80540713D01*
X170040288Y-80540710D01*
X169909185Y-80453109D01*
X169909176Y-80453104D01*
X169894623Y-80447076D01*
X169840221Y-80403233D01*
X169818158Y-80336938D01*
X169835439Y-80269239D01*
X169854394Y-80244839D01*
X172075685Y-78023548D01*
X172137006Y-77990065D01*
X172206698Y-77995049D01*
X172210798Y-77996663D01*
X172235706Y-78006980D01*
X172266497Y-78019735D01*
X172266499Y-78019735D01*
X172266503Y-78019737D01*
X172421153Y-78050499D01*
X172421156Y-78050500D01*
X172421158Y-78050500D01*
X172578844Y-78050500D01*
X172578845Y-78050499D01*
X172733497Y-78019737D01*
X172872762Y-77962052D01*
X172879172Y-77959397D01*
X172879172Y-77959396D01*
X172879179Y-77959394D01*
X173010289Y-77871789D01*
X173116069Y-77766008D01*
X173177390Y-77732525D01*
X173247082Y-77737509D01*
G37*
G04 #@! TD.AperFunction*
G04 #@! TA.AperFunction,Conductor*
G36*
X177053243Y-65750669D02*
G01*
X177383178Y-65767961D01*
X177396086Y-65769318D01*
X177719191Y-65820492D01*
X177731874Y-65823187D01*
X178047881Y-65907861D01*
X178060219Y-65911871D01*
X178365627Y-66029106D01*
X178377470Y-66034378D01*
X178668977Y-66182908D01*
X178680183Y-66189378D01*
X178954565Y-66367564D01*
X178965055Y-66375186D01*
X179219293Y-66581064D01*
X179228938Y-66589749D01*
X179460250Y-66821061D01*
X179468935Y-66830706D01*
X179674813Y-67084944D01*
X179682438Y-67095438D01*
X179860617Y-67369810D01*
X179867094Y-67381029D01*
X180015616Y-67672519D01*
X180020895Y-67684377D01*
X180138128Y-67989781D01*
X180142139Y-68002124D01*
X180226810Y-68318119D01*
X180229508Y-68330815D01*
X180280681Y-68653913D01*
X180282038Y-68666821D01*
X180299330Y-68996756D01*
X180299500Y-69003246D01*
X180299500Y-107096753D01*
X180299330Y-107103243D01*
X180282038Y-107433178D01*
X180280681Y-107446086D01*
X180229508Y-107769184D01*
X180226810Y-107781880D01*
X180142139Y-108097875D01*
X180138128Y-108110218D01*
X180020895Y-108415622D01*
X180015616Y-108427480D01*
X179867098Y-108718964D01*
X179860612Y-108730197D01*
X179796549Y-108828846D01*
X179682442Y-109004555D01*
X179674813Y-109015055D01*
X179468935Y-109269293D01*
X179460250Y-109278938D01*
X179228938Y-109510250D01*
X179219293Y-109518935D01*
X178965055Y-109724813D01*
X178954555Y-109732442D01*
X178680197Y-109910612D01*
X178668964Y-109917098D01*
X178377480Y-110065616D01*
X178365622Y-110070895D01*
X178060218Y-110188128D01*
X178047875Y-110192139D01*
X177731880Y-110276810D01*
X177719184Y-110279508D01*
X177396086Y-110330681D01*
X177383178Y-110332038D01*
X177053244Y-110349330D01*
X177046754Y-110349500D01*
X113953246Y-110349500D01*
X113946756Y-110349330D01*
X113616821Y-110332038D01*
X113603913Y-110330681D01*
X113280815Y-110279508D01*
X113268119Y-110276810D01*
X112952124Y-110192139D01*
X112939781Y-110188128D01*
X112634377Y-110070895D01*
X112622519Y-110065616D01*
X112331029Y-109917094D01*
X112319810Y-109910617D01*
X112045438Y-109732438D01*
X112034944Y-109724813D01*
X111780706Y-109518935D01*
X111771061Y-109510250D01*
X111539749Y-109278938D01*
X111531064Y-109269293D01*
X111325186Y-109015055D01*
X111317564Y-109004565D01*
X111139378Y-108730183D01*
X111132908Y-108718977D01*
X110984378Y-108427470D01*
X110979104Y-108415622D01*
X110965731Y-108380785D01*
X110861871Y-108110218D01*
X110857860Y-108097875D01*
X110828437Y-107988069D01*
X110773187Y-107781874D01*
X110770491Y-107769184D01*
X110749442Y-107636286D01*
X110719318Y-107446086D01*
X110717961Y-107433178D01*
X110700670Y-107103243D01*
X110700500Y-107096753D01*
X110700500Y-95453713D01*
X120284500Y-95453713D01*
X120284500Y-95666286D01*
X120306548Y-95805495D01*
X120317754Y-95876243D01*
X120380128Y-96068211D01*
X120383444Y-96078414D01*
X120479951Y-96267820D01*
X120604890Y-96439786D01*
X120755213Y-96590109D01*
X120927182Y-96715050D01*
X120935946Y-96719516D01*
X120986742Y-96767491D01*
X121003536Y-96835312D01*
X120980998Y-96901447D01*
X120935946Y-96940484D01*
X120927182Y-96944949D01*
X120755213Y-97069890D01*
X120604890Y-97220213D01*
X120479951Y-97392179D01*
X120383444Y-97581585D01*
X120317753Y-97783760D01*
X120284500Y-97993713D01*
X120284500Y-98206286D01*
X120304140Y-98330292D01*
X120317754Y-98416243D01*
X120380128Y-98608211D01*
X120383444Y-98618414D01*
X120479951Y-98807820D01*
X120604890Y-98979786D01*
X120755213Y-99130109D01*
X120927179Y-99255048D01*
X120927181Y-99255049D01*
X120927184Y-99255051D01*
X121116588Y-99351557D01*
X121318757Y-99417246D01*
X121528713Y-99450500D01*
X121528714Y-99450500D01*
X121741286Y-99450500D01*
X121741287Y-99450500D01*
X121951243Y-99417246D01*
X122153412Y-99351557D01*
X122342816Y-99255051D01*
X122384866Y-99224500D01*
X122514786Y-99130109D01*
X122514788Y-99130106D01*
X122514792Y-99130104D01*
X122665104Y-98979792D01*
X122668660Y-98974896D01*
X122723987Y-98932230D01*
X122793600Y-98926248D01*
X122855397Y-98958851D01*
X122886686Y-99008772D01*
X122889870Y-99018382D01*
X122890186Y-99019334D01*
X122982288Y-99168656D01*
X123106344Y-99292712D01*
X123255666Y-99384814D01*
X123422203Y-99439999D01*
X123524991Y-99450500D01*
X124825008Y-99450499D01*
X124927797Y-99439999D01*
X125094334Y-99384814D01*
X125243656Y-99292712D01*
X125367712Y-99168656D01*
X125459814Y-99019334D01*
X125514999Y-98852797D01*
X125525500Y-98750009D01*
X125525499Y-98059094D01*
X125545183Y-97992057D01*
X125597987Y-97946302D01*
X125667146Y-97936358D01*
X125730702Y-97965383D01*
X125737178Y-97971413D01*
X127476284Y-99710520D01*
X127476286Y-99710521D01*
X127476290Y-99710524D01*
X127598635Y-99781159D01*
X127613216Y-99789577D01*
X127765943Y-99830501D01*
X127765945Y-99830501D01*
X127931654Y-99830501D01*
X127931670Y-99830500D01*
X128720234Y-99830500D01*
X128787273Y-99850185D01*
X128789125Y-99851398D01*
X128920814Y-99939390D01*
X128920827Y-99939397D01*
X129058048Y-99996235D01*
X129066503Y-99999737D01*
X129221153Y-100030499D01*
X129221156Y-100030500D01*
X129221158Y-100030500D01*
X129378844Y-100030500D01*
X129378845Y-100030499D01*
X129533497Y-99999737D01*
X129679179Y-99939394D01*
X129810289Y-99851789D01*
X129921789Y-99740289D01*
X130009394Y-99609179D01*
X130069737Y-99463497D01*
X130100500Y-99308842D01*
X130100500Y-99151158D01*
X130100500Y-99151155D01*
X130100499Y-99151153D01*
X130079690Y-99046540D01*
X130069737Y-98996503D01*
X130056103Y-98963588D01*
X130009397Y-98850827D01*
X130009390Y-98850814D01*
X129921789Y-98719711D01*
X129921786Y-98719707D01*
X129884760Y-98682681D01*
X129851275Y-98621358D01*
X129856259Y-98551666D01*
X129884760Y-98507319D01*
X129921786Y-98470292D01*
X129921789Y-98470289D01*
X130009394Y-98339179D01*
X130069737Y-98193497D01*
X130100500Y-98038842D01*
X130100500Y-97881158D01*
X130100500Y-97881155D01*
X130100499Y-97881153D01*
X130081126Y-97783760D01*
X130069737Y-97726503D01*
X130053582Y-97687500D01*
X130009397Y-97580827D01*
X130009390Y-97580814D01*
X129921789Y-97449711D01*
X129921786Y-97449707D01*
X129810292Y-97338213D01*
X129810288Y-97338210D01*
X129679185Y-97250609D01*
X129679172Y-97250602D01*
X129533501Y-97190264D01*
X129533489Y-97190261D01*
X129378845Y-97159500D01*
X129378842Y-97159500D01*
X129221158Y-97159500D01*
X129221155Y-97159500D01*
X129066510Y-97190261D01*
X129066498Y-97190264D01*
X128920827Y-97250602D01*
X128920814Y-97250609D01*
X128813021Y-97322635D01*
X128746343Y-97343513D01*
X128678963Y-97325028D01*
X128656449Y-97307214D01*
X125237590Y-93888355D01*
X125237588Y-93888352D01*
X125118717Y-93769481D01*
X125118716Y-93769480D01*
X125020023Y-93712500D01*
X124981785Y-93690423D01*
X124829057Y-93649499D01*
X124670943Y-93649499D01*
X124663347Y-93649499D01*
X124663331Y-93649500D01*
X123031670Y-93649500D01*
X123031654Y-93649499D01*
X123024058Y-93649499D01*
X122865943Y-93649499D01*
X122789579Y-93669961D01*
X122713214Y-93690423D01*
X122713209Y-93690426D01*
X122576290Y-93769475D01*
X122576282Y-93769481D01*
X122119522Y-94226241D01*
X122058199Y-94259726D01*
X121993523Y-94256491D01*
X121951245Y-94242754D01*
X121811272Y-94220584D01*
X121741287Y-94209500D01*
X121528713Y-94209500D01*
X121480042Y-94217208D01*
X121318760Y-94242753D01*
X121116585Y-94308444D01*
X120927179Y-94404951D01*
X120755213Y-94529890D01*
X120604890Y-94680213D01*
X120479951Y-94852179D01*
X120383444Y-95041585D01*
X120317753Y-95243760D01*
X120284500Y-95453713D01*
X110700500Y-95453713D01*
X110700500Y-85283401D01*
X110720185Y-85216362D01*
X110772989Y-85170607D01*
X110842147Y-85160663D01*
X110863499Y-85165693D01*
X110997203Y-85209999D01*
X111099991Y-85220500D01*
X111612248Y-85220499D01*
X111679287Y-85240183D01*
X111725042Y-85292987D01*
X111734986Y-85362146D01*
X111733865Y-85368690D01*
X111699500Y-85541454D01*
X111699500Y-85541459D01*
X111699500Y-85738541D01*
X111699500Y-85738543D01*
X111699499Y-85738543D01*
X111737947Y-85931829D01*
X111737950Y-85931839D01*
X111813364Y-86113907D01*
X111813371Y-86113920D01*
X111922860Y-86277781D01*
X111922863Y-86277785D01*
X112062214Y-86417136D01*
X112062218Y-86417139D01*
X112226079Y-86526628D01*
X112226092Y-86526635D01*
X112408160Y-86602049D01*
X112408165Y-86602051D01*
X112408169Y-86602051D01*
X112408170Y-86602052D01*
X112601456Y-86640500D01*
X112601459Y-86640500D01*
X113598543Y-86640500D01*
X113728582Y-86614632D01*
X113791835Y-86602051D01*
X113973914Y-86526632D01*
X114137782Y-86417139D01*
X114277139Y-86277782D01*
X114386632Y-86113914D01*
X114462051Y-85931835D01*
X114490144Y-85790606D01*
X114500500Y-85738543D01*
X114500500Y-85541456D01*
X114462052Y-85348170D01*
X114462051Y-85348169D01*
X114462051Y-85348165D01*
X114455157Y-85331521D01*
X114386635Y-85166092D01*
X114386628Y-85166079D01*
X114277139Y-85002218D01*
X114277136Y-85002214D01*
X114137785Y-84862863D01*
X114137781Y-84862860D01*
X113973920Y-84753371D01*
X113973907Y-84753364D01*
X113791839Y-84677950D01*
X113791829Y-84677947D01*
X113598543Y-84639500D01*
X113598541Y-84639500D01*
X113324500Y-84639500D01*
X113257461Y-84619815D01*
X113211706Y-84567011D01*
X113200500Y-84515500D01*
X113200499Y-83719998D01*
X113200498Y-83719980D01*
X113189999Y-83617203D01*
X113189998Y-83617200D01*
X113160998Y-83529684D01*
X113134814Y-83450666D01*
X113042712Y-83301344D01*
X112981390Y-83240022D01*
X113998498Y-83240022D01*
X114000340Y-83246897D01*
X114039423Y-83392753D01*
X114039424Y-83392755D01*
X114039423Y-83392755D01*
X114043318Y-83399500D01*
X114043319Y-83399501D01*
X114118477Y-83529680D01*
X114118481Y-83529685D01*
X114247720Y-83658924D01*
X114247725Y-83658928D01*
X114490316Y-83901520D01*
X114490318Y-83901521D01*
X114490322Y-83901524D01*
X114596247Y-83962679D01*
X114627248Y-83980577D01*
X114779975Y-84021501D01*
X114779977Y-84021501D01*
X114945686Y-84021501D01*
X114945702Y-84021500D01*
X116130500Y-84021500D01*
X116197539Y-84041185D01*
X116243294Y-84093989D01*
X116254500Y-84145500D01*
X116254500Y-84279183D01*
X116283341Y-84386819D01*
X116290312Y-84412835D01*
X116290313Y-84412838D01*
X116359492Y-84532661D01*
X116364441Y-84539110D01*
X116361691Y-84541219D01*
X116387528Y-84588536D01*
X116382544Y-84658228D01*
X116340672Y-84714161D01*
X116313816Y-84729455D01*
X116256086Y-84753368D01*
X116256079Y-84753371D01*
X116092218Y-84862860D01*
X116092214Y-84862863D01*
X115952863Y-85002214D01*
X115952860Y-85002218D01*
X115843371Y-85166079D01*
X115843364Y-85166092D01*
X115767950Y-85348160D01*
X115767947Y-85348170D01*
X115729500Y-85541456D01*
X115729500Y-85541459D01*
X115729500Y-85738541D01*
X115729500Y-85738543D01*
X115729499Y-85738543D01*
X115767947Y-85931829D01*
X115767950Y-85931839D01*
X115843364Y-86113907D01*
X115843371Y-86113920D01*
X115952860Y-86277781D01*
X115952863Y-86277785D01*
X116092214Y-86417136D01*
X116092218Y-86417139D01*
X116256079Y-86526628D01*
X116256092Y-86526635D01*
X116438160Y-86602049D01*
X116438165Y-86602051D01*
X116438169Y-86602051D01*
X116438170Y-86602052D01*
X116631456Y-86640500D01*
X116631459Y-86640500D01*
X117928543Y-86640500D01*
X118058582Y-86614632D01*
X118121835Y-86602051D01*
X118303914Y-86526632D01*
X118467782Y-86417139D01*
X118607139Y-86277782D01*
X118716632Y-86113914D01*
X118792051Y-85931835D01*
X118820144Y-85790606D01*
X118830500Y-85738543D01*
X118830500Y-85541456D01*
X118792052Y-85348170D01*
X118792051Y-85348169D01*
X118792051Y-85348165D01*
X118785157Y-85331521D01*
X118716635Y-85166092D01*
X118716628Y-85166079D01*
X118607139Y-85002218D01*
X118607136Y-85002214D01*
X118467785Y-84862863D01*
X118467781Y-84862860D01*
X118303920Y-84753371D01*
X118303907Y-84753364D01*
X118121839Y-84677950D01*
X118121829Y-84677947D01*
X117928543Y-84639500D01*
X117928541Y-84639500D01*
X117353598Y-84639500D01*
X117286559Y-84619815D01*
X117240804Y-84567011D01*
X117230860Y-84497853D01*
X117246211Y-84453501D01*
X117264886Y-84421153D01*
X117269688Y-84412836D01*
X117305500Y-84279183D01*
X117305500Y-84145500D01*
X117325185Y-84078461D01*
X117377989Y-84032706D01*
X117429500Y-84021500D01*
X118790903Y-84021500D01*
X118857942Y-84041185D01*
X118878584Y-84057819D01*
X128315139Y-93494374D01*
X128315149Y-93494385D01*
X128319479Y-93498715D01*
X128319480Y-93498716D01*
X128431284Y-93610520D01*
X128431286Y-93610521D01*
X128431290Y-93610524D01*
X128554074Y-93681412D01*
X128568216Y-93689577D01*
X128680019Y-93719534D01*
X128720942Y-93730500D01*
X128720943Y-93730500D01*
X129494658Y-93730500D01*
X129561697Y-93750185D01*
X129607452Y-93802989D01*
X129617396Y-93872147D01*
X129609219Y-93901953D01*
X129605263Y-93911502D01*
X129605261Y-93911510D01*
X129574500Y-94066153D01*
X129574500Y-94223846D01*
X129605261Y-94378489D01*
X129605264Y-94378501D01*
X129665602Y-94524172D01*
X129665609Y-94524185D01*
X129753210Y-94655288D01*
X129753213Y-94655292D01*
X129864707Y-94766786D01*
X129864711Y-94766789D01*
X129995814Y-94854390D01*
X129995827Y-94854397D01*
X130095060Y-94895500D01*
X130141503Y-94914737D01*
X130296153Y-94945499D01*
X130296156Y-94945500D01*
X130296158Y-94945500D01*
X130453844Y-94945500D01*
X130453845Y-94945499D01*
X130530152Y-94930320D01*
X130608488Y-94914739D01*
X130608489Y-94914738D01*
X130608497Y-94914737D01*
X130632155Y-94904937D01*
X130679604Y-94895500D01*
X132667770Y-94895500D01*
X132734809Y-94915185D01*
X132755451Y-94931819D01*
X133728095Y-95904463D01*
X133761580Y-95965786D01*
X133756596Y-96035478D01*
X133728096Y-96079825D01*
X133628210Y-96179711D01*
X133540609Y-96310814D01*
X133540602Y-96310827D01*
X133480264Y-96456498D01*
X133480261Y-96456508D01*
X133449361Y-96611850D01*
X133416976Y-96673761D01*
X133415425Y-96675339D01*
X132519481Y-97571282D01*
X132519479Y-97571284D01*
X132499725Y-97605501D01*
X132485433Y-97630256D01*
X132440423Y-97708215D01*
X132399499Y-97860943D01*
X132399499Y-97860945D01*
X132399499Y-98029046D01*
X132399500Y-98029059D01*
X132399500Y-99449902D01*
X132379815Y-99516941D01*
X132363181Y-99537583D01*
X125994936Y-105905827D01*
X125994926Y-105905837D01*
X125992786Y-105907978D01*
X125992784Y-105907980D01*
X125880980Y-106019784D01*
X125868959Y-106040606D01*
X125801923Y-106156715D01*
X125760999Y-106309443D01*
X125760999Y-106309445D01*
X125760999Y-106477546D01*
X125761000Y-106477559D01*
X125761000Y-108062330D01*
X125760999Y-108062348D01*
X125760999Y-108228054D01*
X125760998Y-108228054D01*
X125801923Y-108380786D01*
X125801924Y-108380787D01*
X125825540Y-108421691D01*
X125880981Y-108517717D01*
X125999849Y-108636585D01*
X125999855Y-108636590D01*
X126127925Y-108764660D01*
X126161410Y-108825983D01*
X126161861Y-108828149D01*
X126192761Y-108983491D01*
X126192764Y-108983501D01*
X126253102Y-109129172D01*
X126253109Y-109129185D01*
X126340710Y-109260288D01*
X126340713Y-109260292D01*
X126452207Y-109371786D01*
X126452211Y-109371789D01*
X126583314Y-109459390D01*
X126583327Y-109459397D01*
X126706099Y-109510250D01*
X126729003Y-109519737D01*
X126883653Y-109550499D01*
X126883656Y-109550500D01*
X126883658Y-109550500D01*
X127041344Y-109550500D01*
X127041345Y-109550499D01*
X127195997Y-109519737D01*
X127341679Y-109459394D01*
X127472789Y-109371789D01*
X127584289Y-109260289D01*
X127671894Y-109129179D01*
X127732237Y-108983497D01*
X127763000Y-108828842D01*
X127763000Y-108671158D01*
X127763000Y-108671155D01*
X127762999Y-108671153D01*
X127732238Y-108516510D01*
X127732237Y-108516503D01*
X127690451Y-108415622D01*
X127671897Y-108370827D01*
X127671890Y-108370814D01*
X127584289Y-108239711D01*
X127584286Y-108239707D01*
X127472792Y-108128213D01*
X127472788Y-108128210D01*
X127341685Y-108040609D01*
X127341672Y-108040602D01*
X127196001Y-107980264D01*
X127195991Y-107980261D01*
X127061808Y-107953570D01*
X127033677Y-107938855D01*
X127004797Y-107925666D01*
X127002940Y-107922776D01*
X126999897Y-107921185D01*
X126984184Y-107893592D01*
X126967023Y-107866888D01*
X126966362Y-107862294D01*
X126965323Y-107860469D01*
X126962000Y-107831953D01*
X126962000Y-107668046D01*
X126981685Y-107601007D01*
X127034489Y-107555252D01*
X127061809Y-107546429D01*
X127091348Y-107540552D01*
X127195997Y-107519737D01*
X127341679Y-107459394D01*
X127472789Y-107371789D01*
X127584289Y-107260289D01*
X127671894Y-107129179D01*
X127732237Y-106983497D01*
X127753826Y-106874958D01*
X127786209Y-106813052D01*
X127787705Y-106811528D01*
X133462417Y-101136819D01*
X133489344Y-101122115D01*
X133515163Y-101105523D01*
X133521363Y-101104631D01*
X133523740Y-101103334D01*
X133550098Y-101100500D01*
X133670234Y-101100500D01*
X133737273Y-101120185D01*
X133739125Y-101121398D01*
X133870814Y-101209390D01*
X133870827Y-101209397D01*
X134016498Y-101269735D01*
X134016503Y-101269737D01*
X134171153Y-101300499D01*
X134171156Y-101300500D01*
X134171158Y-101300500D01*
X134328844Y-101300500D01*
X134328845Y-101300499D01*
X134483497Y-101269737D01*
X134629179Y-101209394D01*
X134760289Y-101121789D01*
X134871789Y-101010289D01*
X134959394Y-100879179D01*
X135019737Y-100733497D01*
X135050500Y-100578842D01*
X135050500Y-100421158D01*
X135050500Y-100421155D01*
X135050499Y-100421153D01*
X135045198Y-100394505D01*
X135019737Y-100266503D01*
X135019735Y-100266498D01*
X134959397Y-100120827D01*
X134959390Y-100120814D01*
X134871789Y-99989711D01*
X134871786Y-99989707D01*
X134760292Y-99878213D01*
X134760288Y-99878210D01*
X134629185Y-99790609D01*
X134629172Y-99790602D01*
X134483501Y-99730264D01*
X134483489Y-99730261D01*
X134328845Y-99699500D01*
X134328842Y-99699500D01*
X134171158Y-99699500D01*
X134171155Y-99699500D01*
X134016510Y-99730261D01*
X134016498Y-99730264D01*
X133870827Y-99790602D01*
X133870816Y-99790608D01*
X133793391Y-99842342D01*
X133783693Y-99845378D01*
X133776014Y-99852033D01*
X133750912Y-99855642D01*
X133726714Y-99863219D01*
X133716914Y-99860530D01*
X133706856Y-99861977D01*
X133683788Y-99851442D01*
X133659334Y-99844734D01*
X133652543Y-99837174D01*
X133643300Y-99832953D01*
X133629589Y-99811620D01*
X133612644Y-99792755D01*
X133610012Y-99781159D01*
X133605524Y-99774175D01*
X133600501Y-99739239D01*
X133600501Y-99705574D01*
X133600501Y-99699500D01*
X133600501Y-99670942D01*
X133600500Y-99670938D01*
X133600500Y-98240097D01*
X133620185Y-98173058D01*
X133636819Y-98152416D01*
X133928292Y-97860943D01*
X134264662Y-97524572D01*
X134325983Y-97491089D01*
X134328150Y-97490638D01*
X134386085Y-97479113D01*
X134483497Y-97459737D01*
X134629179Y-97399394D01*
X134760289Y-97311789D01*
X134860175Y-97211902D01*
X134921496Y-97178419D01*
X134991188Y-97183403D01*
X135035536Y-97211904D01*
X135958927Y-98135295D01*
X135985807Y-98175523D01*
X135995604Y-98199175D01*
X135995609Y-98199185D01*
X136083210Y-98330288D01*
X136083213Y-98330292D01*
X136194707Y-98441786D01*
X136194711Y-98441789D01*
X136325814Y-98529390D01*
X136325827Y-98529397D01*
X136471498Y-98589735D01*
X136471503Y-98589737D01*
X136615661Y-98618412D01*
X136626153Y-98620499D01*
X136626156Y-98620500D01*
X136626158Y-98620500D01*
X136783844Y-98620500D01*
X136783845Y-98620499D01*
X136938497Y-98589737D01*
X137054520Y-98541679D01*
X137084172Y-98529397D01*
X137084172Y-98529396D01*
X137084179Y-98529394D01*
X137215289Y-98441789D01*
X137326789Y-98330289D01*
X137414394Y-98199179D01*
X137474737Y-98053497D01*
X137505500Y-97898842D01*
X137505500Y-97741158D01*
X137505500Y-97741155D01*
X137505499Y-97741153D01*
X137478516Y-97605501D01*
X137474737Y-97586503D01*
X137472386Y-97580827D01*
X137414397Y-97440827D01*
X137414390Y-97440814D01*
X137326789Y-97309711D01*
X137326786Y-97309707D01*
X137215292Y-97198213D01*
X137215288Y-97198210D01*
X137084185Y-97110609D01*
X137084175Y-97110604D01*
X137060523Y-97100807D01*
X137020295Y-97073927D01*
X133888549Y-93942181D01*
X133855064Y-93880858D01*
X133860048Y-93811166D01*
X133901920Y-93755233D01*
X133967384Y-93730816D01*
X133976230Y-93730500D01*
X138079903Y-93730500D01*
X138146942Y-93750185D01*
X138167584Y-93766819D01*
X141515139Y-97114374D01*
X141515149Y-97114385D01*
X141519479Y-97118715D01*
X141519480Y-97118716D01*
X141631284Y-97230520D01*
X141687844Y-97263174D01*
X141718095Y-97280639D01*
X141718097Y-97280641D01*
X141756151Y-97302611D01*
X141768215Y-97309577D01*
X141920943Y-97350500D01*
X142079057Y-97350500D01*
X145900500Y-97350500D01*
X145967539Y-97370185D01*
X146013294Y-97422989D01*
X146024500Y-97474500D01*
X146024500Y-97578846D01*
X146055261Y-97733489D01*
X146055264Y-97733501D01*
X146115602Y-97879172D01*
X146115609Y-97879185D01*
X146203210Y-98010288D01*
X146203213Y-98010292D01*
X146314708Y-98121787D01*
X146314711Y-98121789D01*
X146323307Y-98127533D01*
X146340221Y-98138834D01*
X146385027Y-98192446D01*
X146393734Y-98261771D01*
X146363580Y-98324799D01*
X146359012Y-98329618D01*
X144417050Y-100271580D01*
X144417044Y-100271588D01*
X144367812Y-100345268D01*
X144367813Y-100345269D01*
X144334921Y-100394496D01*
X144334914Y-100394508D01*
X144278342Y-100531086D01*
X144278340Y-100531092D01*
X144249500Y-100676079D01*
X144249500Y-104695396D01*
X144240062Y-104742844D01*
X144230263Y-104766503D01*
X144230262Y-104766506D01*
X144230260Y-104766511D01*
X144199500Y-104921153D01*
X144199500Y-105078846D01*
X144230261Y-105233489D01*
X144230264Y-105233501D01*
X144290602Y-105379172D01*
X144290609Y-105379185D01*
X144378210Y-105510288D01*
X144378213Y-105510292D01*
X144489707Y-105621786D01*
X144489711Y-105621789D01*
X144620814Y-105709390D01*
X144620827Y-105709397D01*
X144766498Y-105769735D01*
X144766503Y-105769737D01*
X144921153Y-105800499D01*
X144921156Y-105800500D01*
X144921158Y-105800500D01*
X145078844Y-105800500D01*
X145078845Y-105800499D01*
X145233497Y-105769737D01*
X145379179Y-105709394D01*
X145510289Y-105621789D01*
X145621789Y-105510289D01*
X145709394Y-105379179D01*
X145769737Y-105233497D01*
X145800500Y-105078842D01*
X145800500Y-104921158D01*
X145800500Y-104921155D01*
X145800499Y-104921153D01*
X145769739Y-104766511D01*
X145769738Y-104766508D01*
X145769737Y-104766503D01*
X145759937Y-104742844D01*
X145750500Y-104695396D01*
X145750500Y-101112229D01*
X145770185Y-101045190D01*
X145786819Y-101024548D01*
X149082948Y-97728419D01*
X149082951Y-97728416D01*
X149165084Y-97605495D01*
X149221658Y-97468913D01*
X149225422Y-97449991D01*
X149235487Y-97399394D01*
X149250500Y-97323920D01*
X149250500Y-96312229D01*
X149270185Y-96245190D01*
X149286814Y-96224553D01*
X150515297Y-94996069D01*
X150555524Y-94969191D01*
X150579179Y-94959394D01*
X150710289Y-94871789D01*
X150821789Y-94760289D01*
X150909394Y-94629179D01*
X150969737Y-94483497D01*
X151000500Y-94328842D01*
X151000500Y-94171158D01*
X151000500Y-94171155D01*
X151000499Y-94171153D01*
X150971212Y-94023918D01*
X150969737Y-94016503D01*
X150958754Y-93989988D01*
X150909397Y-93870827D01*
X150909390Y-93870814D01*
X150821789Y-93739711D01*
X150821786Y-93739707D01*
X150710292Y-93628213D01*
X150710288Y-93628210D01*
X150579185Y-93540609D01*
X150579172Y-93540602D01*
X150433501Y-93480264D01*
X150433489Y-93480261D01*
X150278845Y-93449500D01*
X150278842Y-93449500D01*
X150121158Y-93449500D01*
X150121155Y-93449500D01*
X149966510Y-93480261D01*
X149966498Y-93480264D01*
X149820827Y-93540602D01*
X149820814Y-93540609D01*
X149689711Y-93628210D01*
X149689707Y-93628213D01*
X149578213Y-93739707D01*
X149578207Y-93739715D01*
X149490607Y-93870818D01*
X149490606Y-93870819D01*
X149480805Y-93894480D01*
X149453927Y-93934703D01*
X148637181Y-94751450D01*
X148575858Y-94784935D01*
X148506167Y-94779951D01*
X148450233Y-94738079D01*
X148425816Y-94672615D01*
X148425500Y-94663769D01*
X148425500Y-93954765D01*
X148445185Y-93887726D01*
X148446398Y-93885874D01*
X148456458Y-93870819D01*
X148534394Y-93754179D01*
X148540389Y-93739707D01*
X148577753Y-93649500D01*
X148594737Y-93608497D01*
X148625500Y-93453842D01*
X148625500Y-93296158D01*
X148625500Y-93296155D01*
X148625499Y-93296153D01*
X148616059Y-93248692D01*
X148622286Y-93179101D01*
X148665149Y-93123923D01*
X148731039Y-93100679D01*
X148737676Y-93100501D01*
X148829054Y-93100501D01*
X148829057Y-93100501D01*
X148981785Y-93059577D01*
X149031904Y-93030639D01*
X149118716Y-92980520D01*
X149230520Y-92868716D01*
X149230520Y-92868714D01*
X149240728Y-92858507D01*
X149240730Y-92858504D01*
X149358506Y-92740728D01*
X149358511Y-92740724D01*
X149368714Y-92730520D01*
X149368716Y-92730520D01*
X149480520Y-92618716D01*
X149559577Y-92481784D01*
X149596093Y-92345503D01*
X149600500Y-92329058D01*
X149600500Y-92170943D01*
X149600500Y-90486555D01*
X149620185Y-90419516D01*
X149672989Y-90373761D01*
X149742147Y-90363817D01*
X149760411Y-90368840D01*
X149760676Y-90367969D01*
X149766492Y-90369732D01*
X149766503Y-90369737D01*
X149921153Y-90400499D01*
X149921156Y-90400500D01*
X149921158Y-90400500D01*
X150078844Y-90400500D01*
X150078845Y-90400499D01*
X150233497Y-90369737D01*
X150379179Y-90309394D01*
X150510289Y-90221789D01*
X150621789Y-90110289D01*
X150709394Y-89979179D01*
X150769737Y-89833497D01*
X150800500Y-89678842D01*
X150800500Y-89521158D01*
X150800500Y-89521155D01*
X150800499Y-89521153D01*
X150772677Y-89381284D01*
X150769737Y-89366503D01*
X150769735Y-89366498D01*
X150709397Y-89220827D01*
X150709390Y-89220814D01*
X150621789Y-89089711D01*
X150621786Y-89089707D01*
X150510292Y-88978213D01*
X150510288Y-88978210D01*
X150379185Y-88890609D01*
X150379172Y-88890602D01*
X150233501Y-88830264D01*
X150233489Y-88830261D01*
X150078845Y-88799500D01*
X150078842Y-88799500D01*
X149921158Y-88799500D01*
X149921155Y-88799500D01*
X149766510Y-88830261D01*
X149766498Y-88830264D01*
X149620827Y-88890602D01*
X149620814Y-88890609D01*
X149489125Y-88978602D01*
X149471078Y-88984252D01*
X149455169Y-88994477D01*
X149424207Y-88998928D01*
X149422447Y-88999480D01*
X149420234Y-88999500D01*
X149236669Y-88999500D01*
X149236653Y-88999499D01*
X149229057Y-88999499D01*
X149070943Y-88999499D01*
X148991010Y-89020917D01*
X148918216Y-89040422D01*
X148880843Y-89062000D01*
X148880842Y-89061999D01*
X148781287Y-89119477D01*
X148781282Y-89119481D01*
X148519481Y-89381282D01*
X148519479Y-89381285D01*
X148469361Y-89468094D01*
X148469359Y-89468096D01*
X148440425Y-89518209D01*
X148440424Y-89518210D01*
X148439635Y-89521155D01*
X148399499Y-89670943D01*
X148399499Y-89670945D01*
X148399499Y-89839046D01*
X148399500Y-89839059D01*
X148399500Y-91775500D01*
X148379815Y-91842539D01*
X148327011Y-91888294D01*
X148275500Y-91899500D01*
X146906670Y-91899500D01*
X146906654Y-91899499D01*
X146899058Y-91899499D01*
X146740943Y-91899499D01*
X146664579Y-91919961D01*
X146588214Y-91940423D01*
X146588209Y-91940426D01*
X146451290Y-92019475D01*
X146451282Y-92019481D01*
X146212181Y-92258583D01*
X146150858Y-92292068D01*
X146081166Y-92287084D01*
X146025233Y-92245212D01*
X146000816Y-92179748D01*
X146000500Y-92170902D01*
X146000500Y-91354675D01*
X146000501Y-91354654D01*
X146000501Y-91151457D01*
X146000500Y-91151455D01*
X145964166Y-90968794D01*
X145962052Y-90958165D01*
X145886632Y-90776086D01*
X145886631Y-90776085D01*
X145886628Y-90776079D01*
X145777140Y-90612219D01*
X145777137Y-90612215D01*
X143534209Y-88369289D01*
X143534206Y-88369285D01*
X143534206Y-88369286D01*
X143527139Y-88362219D01*
X143527139Y-88362218D01*
X143387782Y-88222861D01*
X143387781Y-88222860D01*
X143387780Y-88222859D01*
X143223920Y-88113371D01*
X143223911Y-88113366D01*
X143151315Y-88083296D01*
X143095165Y-88060038D01*
X143041836Y-88037949D01*
X143041832Y-88037948D01*
X143041828Y-88037946D01*
X142945188Y-88018724D01*
X142848544Y-87999500D01*
X142848541Y-87999500D01*
X140715783Y-87999500D01*
X140648744Y-87979815D01*
X140628102Y-87963181D01*
X138286819Y-85621898D01*
X138253334Y-85560575D01*
X138250500Y-85534217D01*
X138250500Y-84421153D01*
X140429500Y-84421153D01*
X140429500Y-84578846D01*
X140460261Y-84733489D01*
X140460264Y-84733501D01*
X140520602Y-84879172D01*
X140520609Y-84879185D01*
X140608210Y-85010288D01*
X140608213Y-85010292D01*
X140719707Y-85121786D01*
X140719711Y-85121789D01*
X140850814Y-85209390D01*
X140850827Y-85209397D01*
X140996498Y-85269735D01*
X140996503Y-85269737D01*
X141113388Y-85292987D01*
X141151153Y-85300499D01*
X141151156Y-85300500D01*
X141151158Y-85300500D01*
X141308844Y-85300500D01*
X141308845Y-85300499D01*
X141463497Y-85269737D01*
X141594742Y-85215374D01*
X141609172Y-85209397D01*
X141609172Y-85209396D01*
X141609179Y-85209394D01*
X141740289Y-85121789D01*
X141851789Y-85010289D01*
X141939394Y-84879179D01*
X141949192Y-84855521D01*
X141976067Y-84815298D01*
X142254549Y-84536816D01*
X142315871Y-84503334D01*
X142342229Y-84500500D01*
X152900270Y-84500500D01*
X152967309Y-84520185D01*
X152987951Y-84536819D01*
X155753926Y-87302793D01*
X155780805Y-87343019D01*
X155790603Y-87366672D01*
X155790606Y-87366678D01*
X155790609Y-87366685D01*
X155878210Y-87497788D01*
X155878213Y-87497792D01*
X155989707Y-87609286D01*
X155989711Y-87609289D01*
X156120814Y-87696890D01*
X156120827Y-87696897D01*
X156247824Y-87749500D01*
X156266503Y-87757237D01*
X156421153Y-87787999D01*
X156421156Y-87788000D01*
X156421158Y-87788000D01*
X156578844Y-87788000D01*
X156578845Y-87787999D01*
X156733497Y-87757237D01*
X156879179Y-87696894D01*
X157010289Y-87609289D01*
X157121789Y-87497789D01*
X157209394Y-87366679D01*
X157269737Y-87220997D01*
X157300500Y-87066342D01*
X157300500Y-86908658D01*
X157300500Y-86908655D01*
X157300499Y-86908653D01*
X157269738Y-86754010D01*
X157269737Y-86754003D01*
X157222723Y-86640500D01*
X157209397Y-86608327D01*
X157209390Y-86608314D01*
X157121789Y-86477211D01*
X157121786Y-86477207D01*
X157010292Y-86365713D01*
X157010288Y-86365710D01*
X156879185Y-86278109D01*
X156879180Y-86278107D01*
X156879179Y-86278106D01*
X156855519Y-86268305D01*
X156815293Y-86241426D01*
X153740921Y-83167052D01*
X153740920Y-83167051D01*
X153729303Y-83159289D01*
X153658692Y-83112109D01*
X153618401Y-83085187D01*
X153618000Y-83084919D01*
X153617988Y-83084912D01*
X153481417Y-83028343D01*
X153481407Y-83028340D01*
X153336420Y-82999500D01*
X153336418Y-82999500D01*
X142053917Y-82999500D01*
X141906082Y-82999500D01*
X141906080Y-82999500D01*
X141761092Y-83028340D01*
X141761082Y-83028343D01*
X141624511Y-83084912D01*
X141624498Y-83084919D01*
X141501584Y-83167048D01*
X141501580Y-83167051D01*
X140914704Y-83753927D01*
X140874478Y-83780806D01*
X140850826Y-83790603D01*
X140850814Y-83790609D01*
X140719711Y-83878210D01*
X140719707Y-83878213D01*
X140608213Y-83989707D01*
X140608210Y-83989711D01*
X140520609Y-84120814D01*
X140520602Y-84120827D01*
X140460264Y-84266498D01*
X140460261Y-84266510D01*
X140429500Y-84421153D01*
X138250500Y-84421153D01*
X138250500Y-84240235D01*
X138264016Y-84183939D01*
X138269873Y-84172445D01*
X138323402Y-84007701D01*
X138350500Y-83836611D01*
X138350500Y-83663389D01*
X138323402Y-83492299D01*
X138269873Y-83327555D01*
X138269871Y-83327552D01*
X138269871Y-83327550D01*
X138264016Y-83316059D01*
X138250500Y-83259763D01*
X138250500Y-80901456D01*
X138212052Y-80708169D01*
X138212051Y-80708167D01*
X138212051Y-80708165D01*
X138203491Y-80687500D01*
X138180380Y-80631706D01*
X138169688Y-80605892D01*
X138169688Y-80605891D01*
X138136635Y-80526093D01*
X138136634Y-80526092D01*
X138136632Y-80526086D01*
X138111235Y-80488076D01*
X138027139Y-80362217D01*
X137884686Y-80219764D01*
X137884655Y-80219735D01*
X137036819Y-79371899D01*
X137003334Y-79310576D01*
X137000500Y-79284218D01*
X137000500Y-78148386D01*
X138424500Y-78148386D01*
X138424500Y-78811613D01*
X138430913Y-78882192D01*
X138430913Y-78882194D01*
X138430914Y-78882196D01*
X138481522Y-79044606D01*
X138524129Y-79115087D01*
X138569530Y-79190188D01*
X138689811Y-79310469D01*
X138689813Y-79310470D01*
X138689815Y-79310472D01*
X138835394Y-79398478D01*
X138997804Y-79449086D01*
X139068384Y-79455500D01*
X139068387Y-79455500D01*
X139581613Y-79455500D01*
X139581616Y-79455500D01*
X139652196Y-79449086D01*
X139814606Y-79398478D01*
X139960185Y-79310472D01*
X140080472Y-79190185D01*
X140168478Y-79044606D01*
X140219086Y-78882196D01*
X140225500Y-78811616D01*
X140225500Y-78148386D01*
X146924500Y-78148386D01*
X146924500Y-78811613D01*
X146930913Y-78882192D01*
X146930913Y-78882194D01*
X146930914Y-78882196D01*
X146981522Y-79044606D01*
X147024129Y-79115087D01*
X147069530Y-79190188D01*
X147189811Y-79310469D01*
X147189813Y-79310470D01*
X147189815Y-79310472D01*
X147335394Y-79398478D01*
X147497804Y-79449086D01*
X147568384Y-79455500D01*
X147568387Y-79455500D01*
X148081613Y-79455500D01*
X148081616Y-79455500D01*
X148152196Y-79449086D01*
X148314606Y-79398478D01*
X148460185Y-79310472D01*
X148580472Y-79190185D01*
X148668478Y-79044606D01*
X148719086Y-78882196D01*
X148725500Y-78811616D01*
X148725500Y-78148386D01*
X155424500Y-78148386D01*
X155424500Y-78811613D01*
X155430913Y-78882192D01*
X155430913Y-78882194D01*
X155430914Y-78882196D01*
X155481522Y-79044606D01*
X155524129Y-79115087D01*
X155569530Y-79190188D01*
X155689811Y-79310469D01*
X155689813Y-79310470D01*
X155689815Y-79310472D01*
X155835394Y-79398478D01*
X155997804Y-79449086D01*
X156068384Y-79455500D01*
X156068387Y-79455500D01*
X156581613Y-79455500D01*
X156581616Y-79455500D01*
X156652196Y-79449086D01*
X156814606Y-79398478D01*
X156960185Y-79310472D01*
X157080472Y-79190185D01*
X157168478Y-79044606D01*
X157219086Y-78882196D01*
X157225500Y-78811616D01*
X157225500Y-78148386D01*
X162274500Y-78148386D01*
X162274500Y-78811613D01*
X162280913Y-78882192D01*
X162280913Y-78882194D01*
X162280914Y-78882196D01*
X162331522Y-79044606D01*
X162374129Y-79115087D01*
X162419530Y-79190188D01*
X162539811Y-79310469D01*
X162539813Y-79310470D01*
X162539815Y-79310472D01*
X162685394Y-79398478D01*
X162847804Y-79449086D01*
X162918384Y-79455500D01*
X162918387Y-79455500D01*
X163431613Y-79455500D01*
X163431616Y-79455500D01*
X163502196Y-79449086D01*
X163664606Y-79398478D01*
X163810185Y-79310472D01*
X163930472Y-79190185D01*
X164018478Y-79044606D01*
X164069086Y-78882196D01*
X164075500Y-78811616D01*
X164075500Y-78148384D01*
X164069086Y-78077804D01*
X164018478Y-77915394D01*
X163930472Y-77769815D01*
X163930470Y-77769813D01*
X163930469Y-77769811D01*
X163810188Y-77649530D01*
X163775208Y-77628384D01*
X163664606Y-77561522D01*
X163502196Y-77510914D01*
X163502194Y-77510913D01*
X163502192Y-77510913D01*
X163452778Y-77506423D01*
X163431616Y-77504500D01*
X162918384Y-77504500D01*
X162899145Y-77506248D01*
X162847807Y-77510913D01*
X162685393Y-77561522D01*
X162539811Y-77649530D01*
X162419530Y-77769811D01*
X162331522Y-77915393D01*
X162280913Y-78077807D01*
X162274500Y-78148386D01*
X157225500Y-78148386D01*
X157225500Y-78148384D01*
X157219086Y-78077804D01*
X157168478Y-77915394D01*
X157080472Y-77769815D01*
X157080470Y-77769813D01*
X157080469Y-77769811D01*
X156960188Y-77649530D01*
X156925208Y-77628384D01*
X156814606Y-77561522D01*
X156652196Y-77510914D01*
X156652194Y-77510913D01*
X156652192Y-77510913D01*
X156602778Y-77506423D01*
X156581616Y-77504500D01*
X156068384Y-77504500D01*
X156049145Y-77506248D01*
X155997807Y-77510913D01*
X155835393Y-77561522D01*
X155689811Y-77649530D01*
X155569530Y-77769811D01*
X155481522Y-77915393D01*
X155430913Y-78077807D01*
X155424500Y-78148386D01*
X148725500Y-78148386D01*
X148725500Y-78148384D01*
X148719086Y-78077804D01*
X148668478Y-77915394D01*
X148580472Y-77769815D01*
X148580470Y-77769813D01*
X148580469Y-77769811D01*
X148460188Y-77649530D01*
X148425208Y-77628384D01*
X148314606Y-77561522D01*
X148152196Y-77510914D01*
X148152194Y-77510913D01*
X148152192Y-77510913D01*
X148102778Y-77506423D01*
X148081616Y-77504500D01*
X147568384Y-77504500D01*
X147549145Y-77506248D01*
X147497807Y-77510913D01*
X147335393Y-77561522D01*
X147189811Y-77649530D01*
X147069530Y-77769811D01*
X146981522Y-77915393D01*
X146930913Y-78077807D01*
X146924500Y-78148386D01*
X140225500Y-78148386D01*
X140225500Y-78148384D01*
X140219086Y-78077804D01*
X140168478Y-77915394D01*
X140080472Y-77769815D01*
X140080470Y-77769813D01*
X140080469Y-77769811D01*
X139960188Y-77649530D01*
X139925208Y-77628384D01*
X139814606Y-77561522D01*
X139652196Y-77510914D01*
X139652194Y-77510913D01*
X139652192Y-77510913D01*
X139602778Y-77506423D01*
X139581616Y-77504500D01*
X139068384Y-77504500D01*
X139049145Y-77506248D01*
X138997807Y-77510913D01*
X138835393Y-77561522D01*
X138689811Y-77649530D01*
X138569530Y-77769811D01*
X138481522Y-77915393D01*
X138430913Y-78077807D01*
X138424500Y-78148386D01*
X137000500Y-78148386D01*
X137000500Y-76464782D01*
X137020185Y-76397743D01*
X137072989Y-76351988D01*
X137142147Y-76342044D01*
X137205703Y-76371069D01*
X137212173Y-76377094D01*
X137410860Y-76575781D01*
X137410861Y-76575782D01*
X137484579Y-76649500D01*
X137550218Y-76715139D01*
X137714079Y-76824628D01*
X137714086Y-76824632D01*
X137825597Y-76870821D01*
X137896164Y-76900051D01*
X137992812Y-76919275D01*
X138068085Y-76934248D01*
X138089458Y-76938500D01*
X138089459Y-76938500D01*
X143447542Y-76938500D01*
X143475676Y-76932903D01*
X143544188Y-76919275D01*
X143640836Y-76900051D01*
X143711403Y-76870821D01*
X143822914Y-76824632D01*
X143986782Y-76715139D01*
X144126139Y-76575782D01*
X144126139Y-76575780D01*
X144133206Y-76568714D01*
X144133209Y-76568710D01*
X144930818Y-75771101D01*
X144992141Y-75737616D01*
X145061833Y-75742600D01*
X145106180Y-75771101D01*
X145910860Y-76575781D01*
X145910861Y-76575782D01*
X145984579Y-76649500D01*
X146050218Y-76715139D01*
X146214079Y-76824628D01*
X146214086Y-76824632D01*
X146325597Y-76870821D01*
X146396164Y-76900051D01*
X146492812Y-76919275D01*
X146568085Y-76934248D01*
X146589458Y-76938500D01*
X146589459Y-76938500D01*
X151947542Y-76938500D01*
X151975676Y-76932903D01*
X152044188Y-76919275D01*
X152140836Y-76900051D01*
X152211403Y-76870821D01*
X152322914Y-76824632D01*
X152486782Y-76715139D01*
X152626139Y-76575782D01*
X152626139Y-76575780D01*
X152633206Y-76568714D01*
X152633209Y-76568710D01*
X153430818Y-75771101D01*
X153492141Y-75737616D01*
X153561833Y-75742600D01*
X153606180Y-75771101D01*
X154410860Y-76575781D01*
X154410861Y-76575782D01*
X154484579Y-76649500D01*
X154550218Y-76715139D01*
X154714079Y-76824628D01*
X154714086Y-76824632D01*
X154825597Y-76870821D01*
X154896164Y-76900051D01*
X154992812Y-76919275D01*
X155068085Y-76934248D01*
X155089458Y-76938500D01*
X155089459Y-76938500D01*
X160447542Y-76938500D01*
X160475676Y-76932903D01*
X160544188Y-76919275D01*
X160640836Y-76900051D01*
X160711403Y-76870821D01*
X160822914Y-76824632D01*
X160986782Y-76715139D01*
X161126139Y-76575782D01*
X161126139Y-76575780D01*
X161133206Y-76568714D01*
X161133209Y-76568710D01*
X161930818Y-75771101D01*
X161992141Y-75737616D01*
X162061833Y-75742600D01*
X162106180Y-75771101D01*
X162910860Y-76575781D01*
X162910861Y-76575782D01*
X162984579Y-76649500D01*
X163050218Y-76715139D01*
X163214079Y-76824628D01*
X163214086Y-76824632D01*
X163325597Y-76870821D01*
X163396164Y-76900051D01*
X163492812Y-76919275D01*
X163568085Y-76934248D01*
X163589458Y-76938500D01*
X163589459Y-76938500D01*
X168947542Y-76938500D01*
X168975676Y-76932903D01*
X169044188Y-76919275D01*
X169140836Y-76900051D01*
X169211403Y-76870821D01*
X169322914Y-76824632D01*
X169486782Y-76715139D01*
X169626139Y-76575782D01*
X169626139Y-76575780D01*
X169633206Y-76568714D01*
X169633209Y-76568710D01*
X170618123Y-75583795D01*
X170634785Y-75569830D01*
X170641834Y-75564905D01*
X170661694Y-75554787D01*
X170796028Y-75457187D01*
X170796921Y-75456564D01*
X170828971Y-75445793D01*
X170860854Y-75434418D01*
X170862018Y-75434688D01*
X170863152Y-75434308D01*
X170895946Y-75442578D01*
X170928908Y-75450243D01*
X170930183Y-75451212D01*
X170930900Y-75451393D01*
X170932079Y-75452653D01*
X170955615Y-75470535D01*
X171937564Y-76452485D01*
X171971049Y-76513808D01*
X171966065Y-76583500D01*
X171924193Y-76639433D01*
X171881977Y-76659940D01*
X171842633Y-76670482D01*
X171768210Y-76690424D01*
X171768209Y-76690425D01*
X171725407Y-76715138D01*
X171725405Y-76715139D01*
X171631290Y-76769475D01*
X171631282Y-76769481D01*
X171540216Y-76860548D01*
X171519480Y-76881284D01*
X171519478Y-76881286D01*
X168395374Y-80005391D01*
X165287584Y-83113181D01*
X165226261Y-83146666D01*
X165199903Y-83149500D01*
X160586670Y-83149500D01*
X160586654Y-83149499D01*
X160579058Y-83149499D01*
X160420943Y-83149499D01*
X160355451Y-83167048D01*
X160268214Y-83190423D01*
X160268209Y-83190426D01*
X160131290Y-83269475D01*
X160131282Y-83269481D01*
X159019481Y-84381282D01*
X159019475Y-84381290D01*
X158980117Y-84449462D01*
X158980117Y-84449464D01*
X158940423Y-84518214D01*
X158940423Y-84518215D01*
X158899499Y-84670943D01*
X158899499Y-84670945D01*
X158899499Y-84839046D01*
X158899500Y-84839059D01*
X158899500Y-87249902D01*
X158879815Y-87316941D01*
X158863181Y-87337583D01*
X158485339Y-87715425D01*
X158424016Y-87748910D01*
X158421850Y-87749361D01*
X158266508Y-87780261D01*
X158266498Y-87780264D01*
X158120827Y-87840602D01*
X158120814Y-87840609D01*
X157989711Y-87928210D01*
X157989707Y-87928213D01*
X157878213Y-88039707D01*
X157878210Y-88039711D01*
X157790609Y-88170814D01*
X157790602Y-88170827D01*
X157730264Y-88316498D01*
X157730261Y-88316510D01*
X157699500Y-88471153D01*
X157699500Y-88628846D01*
X157730261Y-88783489D01*
X157730264Y-88783501D01*
X157790602Y-88929172D01*
X157790609Y-88929185D01*
X157878210Y-89060288D01*
X157878213Y-89060292D01*
X157989707Y-89171786D01*
X157989711Y-89171789D01*
X158120814Y-89259390D01*
X158120827Y-89259397D01*
X158266498Y-89319735D01*
X158266503Y-89319737D01*
X158421153Y-89350499D01*
X158421156Y-89350500D01*
X158421158Y-89350500D01*
X158578844Y-89350500D01*
X158578845Y-89350499D01*
X158733497Y-89319737D01*
X158879179Y-89259394D01*
X159010289Y-89171789D01*
X159121789Y-89060289D01*
X159209394Y-88929179D01*
X159269737Y-88783497D01*
X159289113Y-88686085D01*
X159300638Y-88628150D01*
X159333023Y-88566239D01*
X159334515Y-88564719D01*
X159980520Y-87918716D01*
X160059577Y-87781784D01*
X160100501Y-87629057D01*
X160100501Y-87470942D01*
X160100501Y-87463347D01*
X160100500Y-87463329D01*
X160100500Y-85050097D01*
X160120185Y-84983058D01*
X160136819Y-84962416D01*
X160712417Y-84386819D01*
X160773740Y-84353334D01*
X160800098Y-84350500D01*
X165413331Y-84350500D01*
X165413347Y-84350501D01*
X165420943Y-84350501D01*
X165579054Y-84350501D01*
X165579057Y-84350501D01*
X165731785Y-84309577D01*
X165746047Y-84301342D01*
X165784405Y-84279197D01*
X165784416Y-84279189D01*
X165784428Y-84279183D01*
X165868716Y-84230520D01*
X165980520Y-84118716D01*
X165980520Y-84118714D01*
X165990724Y-84108511D01*
X165990727Y-84108506D01*
X166687820Y-83411414D01*
X166749142Y-83377930D01*
X166818834Y-83382914D01*
X166874767Y-83424786D01*
X166899184Y-83490250D01*
X166899500Y-83499096D01*
X166899500Y-84278480D01*
X166879815Y-84345519D01*
X166863181Y-84366161D01*
X166739531Y-84489810D01*
X166739530Y-84489811D01*
X166651522Y-84635393D01*
X166600913Y-84797807D01*
X166594500Y-84868386D01*
X166594500Y-85381613D01*
X166600913Y-85452192D01*
X166600913Y-85452194D01*
X166600914Y-85452196D01*
X166651522Y-85614606D01*
X166721439Y-85730263D01*
X166739530Y-85760188D01*
X166859811Y-85880469D01*
X166859813Y-85880470D01*
X166859815Y-85880472D01*
X167005394Y-85968478D01*
X167167804Y-86019086D01*
X167238384Y-86025500D01*
X167238387Y-86025500D01*
X167901613Y-86025500D01*
X167901616Y-86025500D01*
X167972196Y-86019086D01*
X168134606Y-85968478D01*
X168280185Y-85880472D01*
X168400472Y-85760185D01*
X168488478Y-85614606D01*
X168539086Y-85452196D01*
X168545500Y-85381616D01*
X168545500Y-84868384D01*
X168539086Y-84797804D01*
X168488478Y-84635394D01*
X168400472Y-84489815D01*
X168400470Y-84489813D01*
X168400469Y-84489811D01*
X168280188Y-84369530D01*
X168248710Y-84350501D01*
X168160349Y-84297084D01*
X168113162Y-84245557D01*
X168100500Y-84190968D01*
X168100500Y-83492597D01*
X168120185Y-83425558D01*
X168136819Y-83404916D01*
X168784882Y-82756853D01*
X169544664Y-81997071D01*
X169605985Y-81963588D01*
X169608152Y-81963137D01*
X169608841Y-81963000D01*
X169608842Y-81963000D01*
X169763497Y-81932237D01*
X169909179Y-81871894D01*
X170040289Y-81784289D01*
X170106360Y-81718217D01*
X170167681Y-81684734D01*
X170237373Y-81689718D01*
X170293307Y-81731589D01*
X170317724Y-81797053D01*
X170316514Y-81825295D01*
X170312500Y-81850642D01*
X170312500Y-82049360D01*
X170343587Y-82245637D01*
X170404993Y-82434629D01*
X170404994Y-82434632D01*
X170495213Y-82611694D01*
X170612019Y-82772464D01*
X170612021Y-82772466D01*
X170701874Y-82862319D01*
X170735359Y-82923642D01*
X170730375Y-82993334D01*
X170701874Y-83037681D01*
X170612021Y-83127533D01*
X170495213Y-83288305D01*
X170404994Y-83465367D01*
X170404993Y-83465370D01*
X170343587Y-83654362D01*
X170330070Y-83739707D01*
X170312500Y-83850639D01*
X170312500Y-84049361D01*
X170323484Y-84118713D01*
X170343587Y-84245637D01*
X170404993Y-84434629D01*
X170404994Y-84434632D01*
X170472446Y-84567011D01*
X170495213Y-84611694D01*
X170612019Y-84772464D01*
X170752536Y-84912981D01*
X170913306Y-85029787D01*
X170970922Y-85059144D01*
X171090367Y-85120005D01*
X171090370Y-85120006D01*
X171184866Y-85150709D01*
X171279364Y-85181413D01*
X171475639Y-85212500D01*
X171475640Y-85212500D01*
X173124360Y-85212500D01*
X173124361Y-85212500D01*
X173320636Y-85181413D01*
X173509632Y-85120005D01*
X173509632Y-85120004D01*
X173512411Y-85119102D01*
X173582252Y-85117107D01*
X173642085Y-85153187D01*
X173672913Y-85215888D01*
X173672346Y-85261224D01*
X173649500Y-85376077D01*
X173649500Y-85376082D01*
X173649500Y-85404381D01*
X173649500Y-85523918D01*
X173649500Y-85523920D01*
X173649499Y-85523920D01*
X173678340Y-85668907D01*
X173678343Y-85668917D01*
X173734912Y-85805488D01*
X173734919Y-85805501D01*
X173817048Y-85928415D01*
X173817051Y-85928419D01*
X173921580Y-86032948D01*
X173921584Y-86032951D01*
X174017286Y-86096898D01*
X174062091Y-86150511D01*
X174070798Y-86219836D01*
X174040643Y-86282863D01*
X174017286Y-86303102D01*
X173921584Y-86367048D01*
X173921580Y-86367051D01*
X173817051Y-86471580D01*
X173817048Y-86471584D01*
X173734919Y-86594498D01*
X173734912Y-86594511D01*
X173678343Y-86731082D01*
X173678340Y-86731092D01*
X173649500Y-86876079D01*
X173649500Y-86876082D01*
X173649500Y-86904381D01*
X173649500Y-87023918D01*
X173649500Y-87023920D01*
X173649499Y-87023920D01*
X173678340Y-87168907D01*
X173678343Y-87168917D01*
X173734912Y-87305488D01*
X173734919Y-87305501D01*
X173817048Y-87428415D01*
X173817051Y-87428419D01*
X173921580Y-87532948D01*
X173921584Y-87532951D01*
X174044498Y-87615080D01*
X174044511Y-87615087D01*
X174181082Y-87671656D01*
X174181087Y-87671658D01*
X174181091Y-87671658D01*
X174181092Y-87671659D01*
X174326079Y-87700500D01*
X174326082Y-87700500D01*
X174473920Y-87700500D01*
X174571462Y-87681096D01*
X174618913Y-87671658D01*
X174755495Y-87615084D01*
X174756077Y-87614694D01*
X174757608Y-87613673D01*
X174758879Y-87613274D01*
X174760870Y-87612211D01*
X174761071Y-87612588D01*
X174824285Y-87592794D01*
X174891665Y-87611278D01*
X174938356Y-87663256D01*
X174950500Y-87716774D01*
X174950500Y-91024663D01*
X174930815Y-91091702D01*
X174914181Y-91112344D01*
X174664345Y-91362181D01*
X174603022Y-91395666D01*
X174576664Y-91398500D01*
X174139774Y-91398500D01*
X174072735Y-91378815D01*
X174026980Y-91326011D01*
X174017036Y-91256853D01*
X174039456Y-91201614D01*
X174075895Y-91151460D01*
X174104787Y-91111694D01*
X174195005Y-90934632D01*
X174256413Y-90745636D01*
X174287500Y-90549361D01*
X174287500Y-90350639D01*
X174256413Y-90154364D01*
X174219800Y-90041679D01*
X174195006Y-89965370D01*
X174195005Y-89965367D01*
X174104786Y-89788305D01*
X174076180Y-89748932D01*
X173987981Y-89627536D01*
X173847464Y-89487019D01*
X173686694Y-89370213D01*
X173509632Y-89279994D01*
X173509629Y-89279993D01*
X173320637Y-89218587D01*
X173222498Y-89203043D01*
X173124361Y-89187500D01*
X171475639Y-89187500D01*
X171410214Y-89197862D01*
X171279362Y-89218587D01*
X171090370Y-89279993D01*
X171090367Y-89279994D01*
X170913305Y-89370213D01*
X170752533Y-89487021D01*
X170612021Y-89627533D01*
X170554818Y-89706267D01*
X170499488Y-89748932D01*
X170429875Y-89754911D01*
X170368080Y-89722305D01*
X170333722Y-89661466D01*
X170330500Y-89633381D01*
X170330500Y-89583655D01*
X170330499Y-89583653D01*
X170317481Y-89518209D01*
X170299737Y-89429003D01*
X170279972Y-89381285D01*
X170239397Y-89283327D01*
X170239390Y-89283314D01*
X170151789Y-89152211D01*
X170151786Y-89152207D01*
X170040292Y-89040713D01*
X170040288Y-89040710D01*
X169909185Y-88953109D01*
X169909172Y-88953102D01*
X169763501Y-88892764D01*
X169763489Y-88892761D01*
X169608845Y-88862000D01*
X169608842Y-88862000D01*
X169451158Y-88862000D01*
X169451155Y-88862000D01*
X169296510Y-88892761D01*
X169296498Y-88892764D01*
X169150827Y-88953102D01*
X169150814Y-88953109D01*
X169019711Y-89040710D01*
X169019707Y-89040713D01*
X168908213Y-89152207D01*
X168908210Y-89152211D01*
X168820609Y-89283314D01*
X168820602Y-89283327D01*
X168760264Y-89428998D01*
X168760261Y-89429008D01*
X168729362Y-89584348D01*
X168696977Y-89646259D01*
X168695426Y-89647837D01*
X167131286Y-91211978D01*
X167019481Y-91323782D01*
X167019480Y-91323784D01*
X166980150Y-91391906D01*
X166940423Y-91460715D01*
X166899499Y-91613443D01*
X166899499Y-91613445D01*
X166899499Y-91781546D01*
X166899500Y-91781559D01*
X166899500Y-92778480D01*
X166879815Y-92845519D01*
X166863181Y-92866161D01*
X166739531Y-92989810D01*
X166739530Y-92989811D01*
X166651522Y-93135393D01*
X166600913Y-93297807D01*
X166598488Y-93324500D01*
X166594500Y-93368384D01*
X166594500Y-93881616D01*
X166595548Y-93893147D01*
X166600913Y-93952192D01*
X166600913Y-93952194D01*
X166600914Y-93952196D01*
X166651522Y-94114606D01*
X166680633Y-94162762D01*
X166739530Y-94260188D01*
X166859811Y-94380469D01*
X166859813Y-94380470D01*
X166859815Y-94380472D01*
X167005394Y-94468478D01*
X167167804Y-94519086D01*
X167238384Y-94525500D01*
X167238387Y-94525500D01*
X167901613Y-94525500D01*
X167901616Y-94525500D01*
X167972196Y-94519086D01*
X168134606Y-94468478D01*
X168280185Y-94380472D01*
X168400472Y-94260185D01*
X168488478Y-94114606D01*
X168539086Y-93952196D01*
X168545500Y-93881616D01*
X168545500Y-93368384D01*
X168539086Y-93297804D01*
X168488478Y-93135394D01*
X168400472Y-92989815D01*
X168400470Y-92989813D01*
X168400469Y-92989811D01*
X168280188Y-92869530D01*
X168278841Y-92868716D01*
X168160349Y-92797084D01*
X168113162Y-92745557D01*
X168100500Y-92690968D01*
X168100500Y-91992597D01*
X168120185Y-91925558D01*
X168136819Y-91904916D01*
X168829757Y-91211978D01*
X169544664Y-90497071D01*
X169605985Y-90463588D01*
X169608152Y-90463137D01*
X169608841Y-90463000D01*
X169608842Y-90463000D01*
X169763497Y-90432237D01*
X169909179Y-90371894D01*
X170040289Y-90284289D01*
X170106360Y-90218217D01*
X170167681Y-90184734D01*
X170237373Y-90189718D01*
X170293307Y-90231589D01*
X170317724Y-90297053D01*
X170316514Y-90325295D01*
X170312500Y-90350642D01*
X170312500Y-90549360D01*
X170343587Y-90745637D01*
X170404993Y-90934629D01*
X170404994Y-90934632D01*
X170495213Y-91111694D01*
X170612019Y-91272464D01*
X170612021Y-91272466D01*
X170701874Y-91362319D01*
X170735359Y-91423642D01*
X170730375Y-91493334D01*
X170701874Y-91537681D01*
X170612021Y-91627533D01*
X170495213Y-91788305D01*
X170404994Y-91965367D01*
X170404993Y-91965370D01*
X170343587Y-92154362D01*
X170312500Y-92350639D01*
X170312500Y-92549360D01*
X170343587Y-92745637D01*
X170404993Y-92934629D01*
X170404994Y-92934632D01*
X170495213Y-93111694D01*
X170612019Y-93272464D01*
X170752536Y-93412981D01*
X170913306Y-93529787D01*
X171000149Y-93574035D01*
X171090367Y-93620005D01*
X171090370Y-93620006D01*
X171181142Y-93649499D01*
X171279364Y-93681413D01*
X171475639Y-93712500D01*
X171475640Y-93712500D01*
X173124360Y-93712500D01*
X173124361Y-93712500D01*
X173320636Y-93681413D01*
X173509632Y-93620005D01*
X173509632Y-93620004D01*
X173512411Y-93619102D01*
X173582252Y-93617107D01*
X173642085Y-93653187D01*
X173672913Y-93715888D01*
X173672346Y-93761224D01*
X173649500Y-93876077D01*
X173649500Y-93876082D01*
X173649500Y-93904381D01*
X173649500Y-94023918D01*
X173649500Y-94023920D01*
X173649499Y-94023920D01*
X173678340Y-94168907D01*
X173678343Y-94168917D01*
X173734912Y-94305488D01*
X173734919Y-94305501D01*
X173817048Y-94428415D01*
X173817051Y-94428419D01*
X173921580Y-94532948D01*
X173921584Y-94532951D01*
X174017286Y-94596898D01*
X174062091Y-94650511D01*
X174070798Y-94719836D01*
X174040643Y-94782863D01*
X174017286Y-94803102D01*
X173921584Y-94867048D01*
X173921580Y-94867051D01*
X173817051Y-94971580D01*
X173817048Y-94971584D01*
X173734919Y-95094498D01*
X173734912Y-95094511D01*
X173678343Y-95231082D01*
X173678340Y-95231092D01*
X173649500Y-95376079D01*
X173649500Y-95376082D01*
X173649500Y-95404381D01*
X173649500Y-95523918D01*
X173649500Y-95523920D01*
X173649499Y-95523920D01*
X173678340Y-95668907D01*
X173678343Y-95668917D01*
X173734912Y-95805488D01*
X173734919Y-95805501D01*
X173817048Y-95928415D01*
X173817051Y-95928419D01*
X173921580Y-96032948D01*
X173921584Y-96032951D01*
X174044498Y-96115080D01*
X174044511Y-96115087D01*
X174181082Y-96171656D01*
X174181087Y-96171658D01*
X174181091Y-96171658D01*
X174181092Y-96171659D01*
X174326079Y-96200500D01*
X174326082Y-96200500D01*
X174473920Y-96200500D01*
X174578429Y-96179711D01*
X174618913Y-96171658D01*
X174755495Y-96115084D01*
X174756077Y-96114694D01*
X174757608Y-96113673D01*
X174758879Y-96113274D01*
X174760870Y-96112211D01*
X174761071Y-96112588D01*
X174824285Y-96092794D01*
X174891665Y-96111278D01*
X174938356Y-96163256D01*
X174950500Y-96216774D01*
X174950500Y-98482216D01*
X174930815Y-98549255D01*
X174914181Y-98569897D01*
X174499181Y-98984897D01*
X174437858Y-99018382D01*
X174368166Y-99013398D01*
X174312233Y-98971526D01*
X174287816Y-98906062D01*
X174287500Y-98897216D01*
X174287500Y-98850639D01*
X174276991Y-98784289D01*
X174256413Y-98654364D01*
X174215807Y-98529390D01*
X174195006Y-98465370D01*
X174195005Y-98465367D01*
X174130708Y-98339179D01*
X174104787Y-98288306D01*
X173987981Y-98127536D01*
X173847464Y-97987019D01*
X173686694Y-97870213D01*
X173668501Y-97860943D01*
X173509632Y-97779994D01*
X173509629Y-97779993D01*
X173320637Y-97718587D01*
X173222498Y-97703043D01*
X173124361Y-97687500D01*
X171475639Y-97687500D01*
X171410214Y-97697862D01*
X171279362Y-97718587D01*
X171090370Y-97779993D01*
X171090367Y-97779994D01*
X170913305Y-97870213D01*
X170752533Y-97987021D01*
X170612021Y-98127533D01*
X170598416Y-98146259D01*
X170559968Y-98199179D01*
X170554818Y-98206267D01*
X170499488Y-98248932D01*
X170429875Y-98254911D01*
X170368080Y-98222305D01*
X170333722Y-98161466D01*
X170330500Y-98133381D01*
X170330500Y-98083655D01*
X170330499Y-98083653D01*
X170324501Y-98053501D01*
X170299737Y-97929003D01*
X170279102Y-97879185D01*
X170239397Y-97783327D01*
X170239390Y-97783314D01*
X170151789Y-97652211D01*
X170151786Y-97652207D01*
X170040292Y-97540713D01*
X170040288Y-97540710D01*
X169909185Y-97453109D01*
X169909172Y-97453102D01*
X169763501Y-97392764D01*
X169763489Y-97392761D01*
X169608845Y-97362000D01*
X169608842Y-97362000D01*
X169451158Y-97362000D01*
X169451155Y-97362000D01*
X169296510Y-97392761D01*
X169296498Y-97392764D01*
X169150827Y-97453102D01*
X169150814Y-97453109D01*
X169019711Y-97540710D01*
X169019707Y-97540713D01*
X168908213Y-97652207D01*
X168908210Y-97652211D01*
X168820609Y-97783314D01*
X168820602Y-97783327D01*
X168760264Y-97928998D01*
X168760261Y-97929008D01*
X168729362Y-98084348D01*
X168696977Y-98146259D01*
X168695426Y-98147837D01*
X167655084Y-99188181D01*
X167593761Y-99221666D01*
X167567403Y-99224500D01*
X167238384Y-99224500D01*
X167219145Y-99226248D01*
X167167807Y-99230913D01*
X167005393Y-99281522D01*
X166859811Y-99369530D01*
X166739530Y-99489811D01*
X166651522Y-99635393D01*
X166600913Y-99797807D01*
X166596649Y-99844734D01*
X166594500Y-99868384D01*
X166594500Y-100381616D01*
X166595671Y-100394505D01*
X166600913Y-100452192D01*
X166600913Y-100452194D01*
X166600914Y-100452196D01*
X166651522Y-100614606D01*
X166723394Y-100733497D01*
X166739530Y-100760188D01*
X166859811Y-100880469D01*
X166859813Y-100880470D01*
X166859815Y-100880472D01*
X167005394Y-100968478D01*
X167167804Y-101019086D01*
X167238384Y-101025500D01*
X167238387Y-101025500D01*
X167901613Y-101025500D01*
X167901616Y-101025500D01*
X167972196Y-101019086D01*
X168134606Y-100968478D01*
X168280185Y-100880472D01*
X168400472Y-100760185D01*
X168488478Y-100614606D01*
X168539086Y-100452196D01*
X168545500Y-100381616D01*
X168545500Y-100047597D01*
X168565185Y-99980558D01*
X168581819Y-99959916D01*
X169051924Y-99489811D01*
X169544664Y-98997071D01*
X169605985Y-98963588D01*
X169608152Y-98963137D01*
X169608841Y-98963000D01*
X169608842Y-98963000D01*
X169763497Y-98932237D01*
X169909179Y-98871894D01*
X170040289Y-98784289D01*
X170106360Y-98718217D01*
X170167681Y-98684734D01*
X170237373Y-98689718D01*
X170293307Y-98731589D01*
X170317724Y-98797053D01*
X170316513Y-98825295D01*
X170312500Y-98850639D01*
X170312500Y-99049361D01*
X170325289Y-99130109D01*
X170343587Y-99245637D01*
X170404993Y-99434629D01*
X170404994Y-99434632D01*
X170482011Y-99585784D01*
X170495213Y-99611694D01*
X170612019Y-99772464D01*
X170612021Y-99772466D01*
X170701874Y-99862319D01*
X170735359Y-99923642D01*
X170730375Y-99993334D01*
X170701874Y-100037681D01*
X170612021Y-100127533D01*
X170495213Y-100288305D01*
X170404994Y-100465367D01*
X170404993Y-100465370D01*
X170343587Y-100654362D01*
X170326826Y-100760188D01*
X170312500Y-100850639D01*
X170312500Y-101049361D01*
X170320600Y-101100500D01*
X170343587Y-101245637D01*
X170404993Y-101434629D01*
X170404994Y-101434632D01*
X170477824Y-101577567D01*
X170495213Y-101611694D01*
X170612019Y-101772464D01*
X170752536Y-101912981D01*
X170913306Y-102029787D01*
X171000149Y-102074035D01*
X171090367Y-102120005D01*
X171090370Y-102120006D01*
X171184866Y-102150709D01*
X171279364Y-102181413D01*
X171475639Y-102212500D01*
X171475640Y-102212500D01*
X173124360Y-102212500D01*
X173124361Y-102212500D01*
X173320636Y-102181413D01*
X173509632Y-102120005D01*
X173509632Y-102120004D01*
X173512411Y-102119102D01*
X173582252Y-102117107D01*
X173642085Y-102153187D01*
X173672913Y-102215888D01*
X173672346Y-102261224D01*
X173649500Y-102376077D01*
X173649500Y-102376082D01*
X173649500Y-102404381D01*
X173649500Y-102523918D01*
X173649500Y-102523920D01*
X173649499Y-102523920D01*
X173678340Y-102668907D01*
X173678343Y-102668917D01*
X173734912Y-102805488D01*
X173734919Y-102805501D01*
X173817048Y-102928415D01*
X173817051Y-102928419D01*
X173921580Y-103032948D01*
X173921584Y-103032951D01*
X174044498Y-103115080D01*
X174044511Y-103115087D01*
X174181082Y-103171656D01*
X174181087Y-103171658D01*
X174181091Y-103171658D01*
X174181092Y-103171659D01*
X174326079Y-103200500D01*
X174326082Y-103200500D01*
X174473920Y-103200500D01*
X174571462Y-103181096D01*
X174618913Y-103171658D01*
X174755495Y-103115084D01*
X174878416Y-103032951D01*
X174982951Y-102928416D01*
X175065084Y-102805495D01*
X175121658Y-102668913D01*
X175150500Y-102523918D01*
X175150500Y-102376082D01*
X175150500Y-102376079D01*
X175121659Y-102231092D01*
X175121658Y-102231091D01*
X175121658Y-102231087D01*
X175121656Y-102231082D01*
X175065087Y-102094511D01*
X175065080Y-102094498D01*
X174982951Y-101971584D01*
X174982948Y-101971580D01*
X174878419Y-101867051D01*
X174878415Y-101867048D01*
X174755494Y-101784915D01*
X174755341Y-101784833D01*
X174755275Y-101784768D01*
X174750430Y-101781531D01*
X174751044Y-101780611D01*
X174736117Y-101765945D01*
X174714543Y-101749799D01*
X174711569Y-101741827D01*
X174705501Y-101735866D01*
X174699540Y-101709587D01*
X174690120Y-101684337D01*
X174691927Y-101676023D01*
X174690046Y-101667727D01*
X174699239Y-101642397D01*
X174704965Y-101616063D01*
X174712403Y-101606125D01*
X174713883Y-101602049D01*
X174726100Y-101587820D01*
X174726139Y-101587782D01*
X174726140Y-101587779D01*
X176728140Y-99585781D01*
X176837632Y-99421914D01*
X176913052Y-99239835D01*
X176951501Y-99046540D01*
X176951501Y-98849459D01*
X176951501Y-98844349D01*
X176951500Y-98844323D01*
X176951500Y-93209012D01*
X176941865Y-93160578D01*
X176941865Y-93160576D01*
X176921775Y-93059576D01*
X176913051Y-93015718D01*
X176864380Y-92898216D01*
X176837632Y-92833640D01*
X176837631Y-92833638D01*
X176837630Y-92833636D01*
X176728140Y-92669773D01*
X176677076Y-92618709D01*
X176588782Y-92530415D01*
X176588781Y-92530414D01*
X176545047Y-92486680D01*
X176511562Y-92425357D01*
X176516546Y-92355665D01*
X176545042Y-92311323D01*
X176728139Y-92128228D01*
X176742213Y-92107165D01*
X176837632Y-91964360D01*
X176896343Y-91822619D01*
X176913051Y-91782282D01*
X176951500Y-91588987D01*
X176951500Y-91391906D01*
X176951500Y-84852459D01*
X176938944Y-84789334D01*
X176913052Y-84659165D01*
X176848504Y-84503334D01*
X176837633Y-84477088D01*
X176837628Y-84477079D01*
X176728140Y-84313219D01*
X176728137Y-84313215D01*
X176377601Y-83962679D01*
X176344116Y-83901356D01*
X176349100Y-83831664D01*
X176377599Y-83787319D01*
X176588778Y-83576141D01*
X176588782Y-83576139D01*
X176728139Y-83436782D01*
X176837632Y-83272914D01*
X176839054Y-83269481D01*
X176900200Y-83121862D01*
X176913049Y-83090840D01*
X176913051Y-83090836D01*
X176940670Y-82951987D01*
X176951500Y-82897541D01*
X176951500Y-77709013D01*
X176951500Y-77709010D01*
X176913052Y-77515724D01*
X176913051Y-77515723D01*
X176913051Y-77515719D01*
X176899704Y-77483497D01*
X176874867Y-77423535D01*
X176837632Y-77333640D01*
X176837628Y-77333634D01*
X176728140Y-77169773D01*
X176687895Y-77129528D01*
X176588782Y-77030415D01*
X176588781Y-77030414D01*
X175911303Y-76352937D01*
X175877819Y-76291615D01*
X175882803Y-76221924D01*
X175911304Y-76177576D01*
X175935515Y-76153365D01*
X176011281Y-76022135D01*
X176050500Y-75875766D01*
X176050500Y-75724234D01*
X176011281Y-75577865D01*
X175935515Y-75446635D01*
X175828365Y-75339485D01*
X175755583Y-75297464D01*
X175697136Y-75263719D01*
X175623950Y-75244109D01*
X175550766Y-75224500D01*
X175399234Y-75224500D01*
X175252863Y-75263719D01*
X175121635Y-75339485D01*
X175121632Y-75339487D01*
X175014487Y-75446632D01*
X175014485Y-75446635D01*
X174938719Y-75577863D01*
X174899500Y-75724234D01*
X174899500Y-75774500D01*
X174879815Y-75841539D01*
X174827011Y-75887294D01*
X174775500Y-75898500D01*
X174264783Y-75898500D01*
X174197744Y-75878815D01*
X174177102Y-75862181D01*
X173250604Y-74935683D01*
X172239154Y-73924234D01*
X174899500Y-73924234D01*
X174899500Y-73965957D01*
X174899500Y-74075766D01*
X174918075Y-74145091D01*
X174938719Y-74222136D01*
X174976602Y-74287750D01*
X175014485Y-74353365D01*
X175121635Y-74460515D01*
X175252865Y-74536281D01*
X175399234Y-74575500D01*
X175399236Y-74575500D01*
X175550764Y-74575500D01*
X175550766Y-74575500D01*
X175697135Y-74536281D01*
X175828365Y-74460515D01*
X175935515Y-74353365D01*
X176011281Y-74222135D01*
X176050500Y-74075766D01*
X176050500Y-73924234D01*
X176011281Y-73777865D01*
X175935515Y-73646635D01*
X175828365Y-73539485D01*
X175762750Y-73501602D01*
X175697136Y-73463719D01*
X175623950Y-73444109D01*
X175550766Y-73424500D01*
X175399234Y-73424500D01*
X175252863Y-73463719D01*
X175121635Y-73539485D01*
X175121632Y-73539487D01*
X175014487Y-73646632D01*
X175014485Y-73646635D01*
X174938719Y-73777863D01*
X174925057Y-73828853D01*
X174899500Y-73924234D01*
X172239154Y-73924234D01*
X171427140Y-73112220D01*
X171427139Y-73112218D01*
X171295116Y-72980195D01*
X171275313Y-72943927D01*
X171261632Y-72918872D01*
X171260329Y-72911934D01*
X171231413Y-72729364D01*
X171231412Y-72729362D01*
X171169102Y-72537588D01*
X171167107Y-72467747D01*
X171203188Y-72407914D01*
X171265889Y-72377086D01*
X171311225Y-72377653D01*
X171426079Y-72400500D01*
X171426082Y-72400500D01*
X171573920Y-72400500D01*
X171671462Y-72381096D01*
X171718913Y-72371658D01*
X171855495Y-72315084D01*
X171978416Y-72232951D01*
X172082951Y-72128416D01*
X172165084Y-72005495D01*
X172221658Y-71868913D01*
X172241489Y-71769217D01*
X172250500Y-71723920D01*
X172250500Y-71576079D01*
X172221659Y-71431092D01*
X172221658Y-71431091D01*
X172221658Y-71431087D01*
X172175975Y-71320798D01*
X172165087Y-71294511D01*
X172165080Y-71294498D01*
X172082951Y-71171584D01*
X172082948Y-71171580D01*
X171978419Y-71067051D01*
X171978415Y-71067048D01*
X171855501Y-70984919D01*
X171855488Y-70984912D01*
X171718917Y-70928343D01*
X171718907Y-70928340D01*
X171573920Y-70899500D01*
X171573918Y-70899500D01*
X171426082Y-70899500D01*
X171426080Y-70899500D01*
X171281092Y-70928340D01*
X171281082Y-70928343D01*
X171144511Y-70984912D01*
X171144498Y-70984919D01*
X171021584Y-71067048D01*
X171021580Y-71067051D01*
X170917051Y-71171580D01*
X170917048Y-71171584D01*
X170834919Y-71294498D01*
X170834912Y-71294511D01*
X170778343Y-71431082D01*
X170778340Y-71431092D01*
X170749500Y-71576079D01*
X170749500Y-71576082D01*
X170749500Y-71604381D01*
X170749500Y-71723918D01*
X170750000Y-71726431D01*
X170758510Y-71769217D01*
X170752281Y-71838809D01*
X170709418Y-71893986D01*
X170643528Y-71917229D01*
X170580597Y-71903892D01*
X170484632Y-71854994D01*
X170484629Y-71854993D01*
X170295637Y-71793587D01*
X170141770Y-71769217D01*
X170099361Y-71762500D01*
X169900639Y-71762500D01*
X169858230Y-71769217D01*
X169704362Y-71793587D01*
X169515370Y-71854993D01*
X169515367Y-71854994D01*
X169338305Y-71945213D01*
X169177533Y-72062021D01*
X169087681Y-72151874D01*
X169026358Y-72185359D01*
X168956666Y-72180375D01*
X168912319Y-72151874D01*
X168822466Y-72062021D01*
X168822464Y-72062019D01*
X168661694Y-71945213D01*
X168606773Y-71917229D01*
X168484632Y-71854994D01*
X168484629Y-71854993D01*
X168295637Y-71793587D01*
X168141770Y-71769217D01*
X168099361Y-71762500D01*
X167900639Y-71762500D01*
X167858230Y-71769217D01*
X167704362Y-71793587D01*
X167515370Y-71854993D01*
X167515367Y-71854994D01*
X167338305Y-71945213D01*
X167177533Y-72062021D01*
X167037021Y-72202533D01*
X166920213Y-72363305D01*
X166829994Y-72540367D01*
X166829993Y-72540370D01*
X166768587Y-72729362D01*
X166768587Y-72729363D01*
X166768587Y-72729364D01*
X166737500Y-72925639D01*
X166737500Y-74574361D01*
X166741750Y-74601196D01*
X166768586Y-74770636D01*
X166770063Y-74775179D01*
X166772060Y-74845020D01*
X166735981Y-74904854D01*
X166673281Y-74935683D01*
X166652133Y-74937500D01*
X164153783Y-74937500D01*
X164086744Y-74917815D01*
X164066102Y-74901181D01*
X162798819Y-73633898D01*
X162765334Y-73572575D01*
X162762500Y-73546217D01*
X162762500Y-72925639D01*
X162760326Y-72911911D01*
X162731413Y-72729364D01*
X162670005Y-72540368D01*
X162669102Y-72537588D01*
X162667107Y-72467747D01*
X162703188Y-72407914D01*
X162765889Y-72377086D01*
X162811225Y-72377653D01*
X162926079Y-72400500D01*
X162926082Y-72400500D01*
X163073920Y-72400500D01*
X163171462Y-72381096D01*
X163218913Y-72371658D01*
X163355495Y-72315084D01*
X163478416Y-72232951D01*
X163582951Y-72128416D01*
X163646898Y-72032713D01*
X163700510Y-71987908D01*
X163769835Y-71979201D01*
X163832862Y-72009355D01*
X163853102Y-72032713D01*
X163917048Y-72128415D01*
X163917051Y-72128419D01*
X164021580Y-72232948D01*
X164021584Y-72232951D01*
X164144498Y-72315080D01*
X164144511Y-72315087D01*
X164260921Y-72363305D01*
X164281087Y-72371658D01*
X164281091Y-72371658D01*
X164281092Y-72371659D01*
X164426079Y-72400500D01*
X164426082Y-72400500D01*
X164573920Y-72400500D01*
X164671462Y-72381096D01*
X164718913Y-72371658D01*
X164855495Y-72315084D01*
X164978416Y-72232951D01*
X165082951Y-72128416D01*
X165165084Y-72005495D01*
X165221658Y-71868913D01*
X165241489Y-71769217D01*
X165250500Y-71723920D01*
X165250500Y-71576079D01*
X165221659Y-71431092D01*
X165221658Y-71431091D01*
X165221658Y-71431087D01*
X165175975Y-71320798D01*
X165165087Y-71294511D01*
X165165080Y-71294498D01*
X165082951Y-71171584D01*
X165082948Y-71171580D01*
X164978419Y-71067051D01*
X164978415Y-71067048D01*
X164855501Y-70984919D01*
X164855488Y-70984912D01*
X164718917Y-70928343D01*
X164718907Y-70928340D01*
X164573920Y-70899500D01*
X164573918Y-70899500D01*
X164426082Y-70899500D01*
X164426080Y-70899500D01*
X164281092Y-70928340D01*
X164281082Y-70928343D01*
X164144511Y-70984912D01*
X164144498Y-70984919D01*
X164021584Y-71067048D01*
X164021580Y-71067051D01*
X163917051Y-71171580D01*
X163917048Y-71171584D01*
X163853102Y-71267286D01*
X163799489Y-71312091D01*
X163730164Y-71320798D01*
X163667137Y-71290643D01*
X163646898Y-71267286D01*
X163582951Y-71171584D01*
X163582948Y-71171580D01*
X163478419Y-71067051D01*
X163478415Y-71067048D01*
X163355501Y-70984919D01*
X163355488Y-70984912D01*
X163218917Y-70928343D01*
X163218907Y-70928340D01*
X163073920Y-70899500D01*
X163073918Y-70899500D01*
X162926082Y-70899500D01*
X162926080Y-70899500D01*
X162781092Y-70928340D01*
X162781082Y-70928343D01*
X162644511Y-70984912D01*
X162644498Y-70984919D01*
X162521584Y-71067048D01*
X162521580Y-71067051D01*
X162417051Y-71171580D01*
X162417048Y-71171584D01*
X162334919Y-71294498D01*
X162334912Y-71294511D01*
X162278343Y-71431082D01*
X162278340Y-71431092D01*
X162249500Y-71576079D01*
X162249500Y-71576082D01*
X162249500Y-71604381D01*
X162249500Y-71723918D01*
X162250000Y-71726431D01*
X162258510Y-71769217D01*
X162252281Y-71838809D01*
X162209418Y-71893986D01*
X162143528Y-71917229D01*
X162080597Y-71903892D01*
X161984632Y-71854994D01*
X161984629Y-71854993D01*
X161795637Y-71793587D01*
X161641770Y-71769217D01*
X161599361Y-71762500D01*
X161400639Y-71762500D01*
X161358230Y-71769217D01*
X161204362Y-71793587D01*
X161015370Y-71854993D01*
X161015367Y-71854994D01*
X160838305Y-71945213D01*
X160677533Y-72062021D01*
X160587681Y-72151874D01*
X160526358Y-72185359D01*
X160456666Y-72180375D01*
X160412319Y-72151874D01*
X160322466Y-72062021D01*
X160322464Y-72062019D01*
X160161694Y-71945213D01*
X160106773Y-71917229D01*
X159984632Y-71854994D01*
X159984629Y-71854993D01*
X159795637Y-71793587D01*
X159641770Y-71769217D01*
X159599361Y-71762500D01*
X159400639Y-71762500D01*
X159358230Y-71769217D01*
X159204362Y-71793587D01*
X159015370Y-71854993D01*
X159015367Y-71854994D01*
X158838305Y-71945213D01*
X158677533Y-72062021D01*
X158537021Y-72202533D01*
X158420213Y-72363305D01*
X158329994Y-72540367D01*
X158329993Y-72540370D01*
X158268587Y-72729362D01*
X158268587Y-72729363D01*
X158268587Y-72729364D01*
X158237500Y-72925639D01*
X158237500Y-74574361D01*
X158241750Y-74601196D01*
X158268586Y-74770636D01*
X158270063Y-74775179D01*
X158272060Y-74845020D01*
X158235981Y-74904854D01*
X158173281Y-74935683D01*
X158152133Y-74937500D01*
X155653783Y-74937500D01*
X155586744Y-74917815D01*
X155566102Y-74901181D01*
X154298819Y-73633898D01*
X154265334Y-73572575D01*
X154262500Y-73546217D01*
X154262500Y-72925639D01*
X154260326Y-72911911D01*
X154231413Y-72729364D01*
X154170005Y-72540368D01*
X154169102Y-72537588D01*
X154167107Y-72467747D01*
X154203188Y-72407914D01*
X154265889Y-72377086D01*
X154311225Y-72377653D01*
X154426079Y-72400500D01*
X154426082Y-72400500D01*
X154573920Y-72400500D01*
X154671462Y-72381096D01*
X154718913Y-72371658D01*
X154855495Y-72315084D01*
X154978416Y-72232951D01*
X155082951Y-72128416D01*
X155146898Y-72032713D01*
X155200510Y-71987908D01*
X155269835Y-71979201D01*
X155332862Y-72009355D01*
X155353102Y-72032713D01*
X155417048Y-72128415D01*
X155417051Y-72128419D01*
X155521580Y-72232948D01*
X155521584Y-72232951D01*
X155644498Y-72315080D01*
X155644511Y-72315087D01*
X155760921Y-72363305D01*
X155781087Y-72371658D01*
X155781091Y-72371658D01*
X155781092Y-72371659D01*
X155926079Y-72400500D01*
X155926082Y-72400500D01*
X156073920Y-72400500D01*
X156171462Y-72381096D01*
X156218913Y-72371658D01*
X156355495Y-72315084D01*
X156478416Y-72232951D01*
X156582951Y-72128416D01*
X156665084Y-72005495D01*
X156721658Y-71868913D01*
X156741489Y-71769217D01*
X156750500Y-71723920D01*
X156750500Y-71576079D01*
X156721659Y-71431092D01*
X156721658Y-71431091D01*
X156721658Y-71431087D01*
X156675975Y-71320798D01*
X156665087Y-71294511D01*
X156665080Y-71294498D01*
X156582951Y-71171584D01*
X156582948Y-71171580D01*
X156478419Y-71067051D01*
X156478415Y-71067048D01*
X156355501Y-70984919D01*
X156355488Y-70984912D01*
X156218917Y-70928343D01*
X156218907Y-70928340D01*
X156073920Y-70899500D01*
X156073918Y-70899500D01*
X155926082Y-70899500D01*
X155926080Y-70899500D01*
X155781092Y-70928340D01*
X155781082Y-70928343D01*
X155644511Y-70984912D01*
X155644498Y-70984919D01*
X155521584Y-71067048D01*
X155521580Y-71067051D01*
X155417051Y-71171580D01*
X155417048Y-71171584D01*
X155353102Y-71267286D01*
X155299489Y-71312091D01*
X155230164Y-71320798D01*
X155167137Y-71290643D01*
X155146898Y-71267286D01*
X155082951Y-71171584D01*
X155082948Y-71171580D01*
X154978419Y-71067051D01*
X154978415Y-71067048D01*
X154855501Y-70984919D01*
X154855488Y-70984912D01*
X154718917Y-70928343D01*
X154718907Y-70928340D01*
X154573920Y-70899500D01*
X154573918Y-70899500D01*
X154426082Y-70899500D01*
X154426080Y-70899500D01*
X154281092Y-70928340D01*
X154281082Y-70928343D01*
X154144511Y-70984912D01*
X154144498Y-70984919D01*
X154021584Y-71067048D01*
X154021580Y-71067051D01*
X153917051Y-71171580D01*
X153917048Y-71171584D01*
X153834919Y-71294498D01*
X153834912Y-71294511D01*
X153778343Y-71431082D01*
X153778340Y-71431092D01*
X153749500Y-71576079D01*
X153749500Y-71576082D01*
X153749500Y-71604381D01*
X153749500Y-71723918D01*
X153750000Y-71726431D01*
X153758510Y-71769217D01*
X153752281Y-71838809D01*
X153709418Y-71893986D01*
X153643528Y-71917229D01*
X153580597Y-71903892D01*
X153484632Y-71854994D01*
X153484629Y-71854993D01*
X153295637Y-71793587D01*
X153141770Y-71769217D01*
X153099361Y-71762500D01*
X152900639Y-71762500D01*
X152858230Y-71769217D01*
X152704362Y-71793587D01*
X152515370Y-71854993D01*
X152515367Y-71854994D01*
X152338305Y-71945213D01*
X152177533Y-72062021D01*
X152087681Y-72151874D01*
X152026358Y-72185359D01*
X151956666Y-72180375D01*
X151912319Y-72151874D01*
X151822466Y-72062021D01*
X151822464Y-72062019D01*
X151661694Y-71945213D01*
X151606773Y-71917229D01*
X151484632Y-71854994D01*
X151484629Y-71854993D01*
X151295637Y-71793587D01*
X151141770Y-71769217D01*
X151099361Y-71762500D01*
X150900639Y-71762500D01*
X150858230Y-71769217D01*
X150704362Y-71793587D01*
X150515370Y-71854993D01*
X150515367Y-71854994D01*
X150338305Y-71945213D01*
X150177533Y-72062021D01*
X150037021Y-72202533D01*
X149920213Y-72363305D01*
X149829994Y-72540367D01*
X149829993Y-72540370D01*
X149768587Y-72729362D01*
X149768587Y-72729363D01*
X149768587Y-72729364D01*
X149737500Y-72925639D01*
X149737500Y-74574361D01*
X149741750Y-74601196D01*
X149768586Y-74770636D01*
X149770063Y-74775179D01*
X149772060Y-74845020D01*
X149735981Y-74904854D01*
X149673281Y-74935683D01*
X149652133Y-74937500D01*
X147153783Y-74937500D01*
X147086744Y-74917815D01*
X147066102Y-74901181D01*
X145798819Y-73633898D01*
X145765334Y-73572575D01*
X145762500Y-73546217D01*
X145762500Y-72925639D01*
X145760326Y-72911911D01*
X145731413Y-72729364D01*
X145670005Y-72540368D01*
X145669102Y-72537588D01*
X145667107Y-72467747D01*
X145703188Y-72407914D01*
X145765889Y-72377086D01*
X145811225Y-72377653D01*
X145926079Y-72400500D01*
X145926082Y-72400500D01*
X146073920Y-72400500D01*
X146171462Y-72381096D01*
X146218913Y-72371658D01*
X146355495Y-72315084D01*
X146478416Y-72232951D01*
X146582951Y-72128416D01*
X146646898Y-72032713D01*
X146700510Y-71987908D01*
X146769835Y-71979201D01*
X146832862Y-72009355D01*
X146853102Y-72032713D01*
X146917048Y-72128415D01*
X146917051Y-72128419D01*
X147021580Y-72232948D01*
X147021584Y-72232951D01*
X147144498Y-72315080D01*
X147144511Y-72315087D01*
X147260921Y-72363305D01*
X147281087Y-72371658D01*
X147281091Y-72371658D01*
X147281092Y-72371659D01*
X147426079Y-72400500D01*
X147426082Y-72400500D01*
X147573920Y-72400500D01*
X147671462Y-72381096D01*
X147718913Y-72371658D01*
X147855495Y-72315084D01*
X147978416Y-72232951D01*
X148082951Y-72128416D01*
X148165084Y-72005495D01*
X148221658Y-71868913D01*
X148241489Y-71769217D01*
X148250500Y-71723920D01*
X148250500Y-71576079D01*
X148221659Y-71431092D01*
X148221658Y-71431091D01*
X148221658Y-71431087D01*
X148175975Y-71320798D01*
X148165087Y-71294511D01*
X148165080Y-71294498D01*
X148082951Y-71171584D01*
X148082948Y-71171580D01*
X147978419Y-71067051D01*
X147978415Y-71067048D01*
X147855501Y-70984919D01*
X147855488Y-70984912D01*
X147718917Y-70928343D01*
X147718907Y-70928340D01*
X147573920Y-70899500D01*
X147573918Y-70899500D01*
X147426082Y-70899500D01*
X147426080Y-70899500D01*
X147281092Y-70928340D01*
X147281082Y-70928343D01*
X147144511Y-70984912D01*
X147144498Y-70984919D01*
X147021584Y-71067048D01*
X147021580Y-71067051D01*
X146917051Y-71171580D01*
X146917048Y-71171584D01*
X146853102Y-71267286D01*
X146799489Y-71312091D01*
X146730164Y-71320798D01*
X146667137Y-71290643D01*
X146646898Y-71267286D01*
X146582951Y-71171584D01*
X146582948Y-71171580D01*
X146478419Y-71067051D01*
X146478415Y-71067048D01*
X146355501Y-70984919D01*
X146355488Y-70984912D01*
X146218917Y-70928343D01*
X146218907Y-70928340D01*
X146073920Y-70899500D01*
X146073918Y-70899500D01*
X145926082Y-70899500D01*
X145926080Y-70899500D01*
X145781092Y-70928340D01*
X145781082Y-70928343D01*
X145644511Y-70984912D01*
X145644498Y-70984919D01*
X145521584Y-71067048D01*
X145521580Y-71067051D01*
X145417051Y-71171580D01*
X145417048Y-71171584D01*
X145334919Y-71294498D01*
X145334912Y-71294511D01*
X145278343Y-71431082D01*
X145278340Y-71431092D01*
X145249500Y-71576079D01*
X145249500Y-71576082D01*
X145249500Y-71604381D01*
X145249500Y-71723918D01*
X145250000Y-71726431D01*
X145258510Y-71769217D01*
X145252281Y-71838809D01*
X145209418Y-71893986D01*
X145143528Y-71917229D01*
X145080597Y-71903892D01*
X144984632Y-71854994D01*
X144984629Y-71854993D01*
X144795637Y-71793587D01*
X144641770Y-71769217D01*
X144599361Y-71762500D01*
X144400639Y-71762500D01*
X144358230Y-71769217D01*
X144204362Y-71793587D01*
X144015370Y-71854993D01*
X144015367Y-71854994D01*
X143838305Y-71945213D01*
X143677533Y-72062021D01*
X143587681Y-72151874D01*
X143526358Y-72185359D01*
X143456666Y-72180375D01*
X143412319Y-72151874D01*
X143322466Y-72062021D01*
X143322464Y-72062019D01*
X143161694Y-71945213D01*
X143106773Y-71917229D01*
X142984632Y-71854994D01*
X142984629Y-71854993D01*
X142795637Y-71793587D01*
X142641770Y-71769217D01*
X142599361Y-71762500D01*
X142400639Y-71762500D01*
X142358230Y-71769217D01*
X142204362Y-71793587D01*
X142015370Y-71854993D01*
X142015367Y-71854994D01*
X141838305Y-71945213D01*
X141677533Y-72062021D01*
X141537021Y-72202533D01*
X141420213Y-72363305D01*
X141329994Y-72540367D01*
X141329993Y-72540370D01*
X141268587Y-72729362D01*
X141268587Y-72729363D01*
X141268587Y-72729364D01*
X141237500Y-72925639D01*
X141237500Y-74574361D01*
X141241750Y-74601196D01*
X141268586Y-74770636D01*
X141270063Y-74775179D01*
X141272060Y-74845020D01*
X141235981Y-74904854D01*
X141173281Y-74935683D01*
X141152133Y-74937500D01*
X138653783Y-74937500D01*
X138586744Y-74917815D01*
X138566102Y-74901181D01*
X137298819Y-73633898D01*
X137265334Y-73572575D01*
X137262500Y-73546217D01*
X137262500Y-72925639D01*
X137260326Y-72911911D01*
X137231413Y-72729364D01*
X137170005Y-72540368D01*
X137169102Y-72537588D01*
X137167107Y-72467747D01*
X137203188Y-72407914D01*
X137265889Y-72377086D01*
X137311225Y-72377653D01*
X137426079Y-72400500D01*
X137426082Y-72400500D01*
X137573920Y-72400500D01*
X137671462Y-72381096D01*
X137718913Y-72371658D01*
X137855495Y-72315084D01*
X137978416Y-72232951D01*
X138082951Y-72128416D01*
X138146898Y-72032713D01*
X138200510Y-71987908D01*
X138269835Y-71979201D01*
X138332862Y-72009355D01*
X138353102Y-72032713D01*
X138417048Y-72128415D01*
X138417051Y-72128419D01*
X138521580Y-72232948D01*
X138521584Y-72232951D01*
X138644498Y-72315080D01*
X138644511Y-72315087D01*
X138760921Y-72363305D01*
X138781087Y-72371658D01*
X138781091Y-72371658D01*
X138781092Y-72371659D01*
X138926079Y-72400500D01*
X138926082Y-72400500D01*
X139073920Y-72400500D01*
X139171462Y-72381096D01*
X139218913Y-72371658D01*
X139355495Y-72315084D01*
X139478416Y-72232951D01*
X139582951Y-72128416D01*
X139665084Y-72005495D01*
X139721658Y-71868913D01*
X139741489Y-71769217D01*
X139750500Y-71723920D01*
X139750500Y-71576079D01*
X139721659Y-71431092D01*
X139721658Y-71431091D01*
X139721658Y-71431087D01*
X139675975Y-71320798D01*
X139665087Y-71294511D01*
X139665080Y-71294498D01*
X139582951Y-71171584D01*
X139582948Y-71171580D01*
X139478419Y-71067051D01*
X139478415Y-71067048D01*
X139355501Y-70984919D01*
X139355488Y-70984912D01*
X139218917Y-70928343D01*
X139218907Y-70928340D01*
X139073920Y-70899500D01*
X139073918Y-70899500D01*
X138926082Y-70899500D01*
X138926080Y-70899500D01*
X138781092Y-70928340D01*
X138781082Y-70928343D01*
X138644511Y-70984912D01*
X138644498Y-70984919D01*
X138521584Y-71067048D01*
X138521580Y-71067051D01*
X138417051Y-71171580D01*
X138417048Y-71171584D01*
X138353102Y-71267286D01*
X138299489Y-71312091D01*
X138230164Y-71320798D01*
X138167137Y-71290643D01*
X138146898Y-71267286D01*
X138082951Y-71171584D01*
X138082948Y-71171580D01*
X137978419Y-71067051D01*
X137978415Y-71067048D01*
X137855501Y-70984919D01*
X137855488Y-70984912D01*
X137718917Y-70928343D01*
X137718907Y-70928340D01*
X137573920Y-70899500D01*
X137573918Y-70899500D01*
X137426082Y-70899500D01*
X137426080Y-70899500D01*
X137281092Y-70928340D01*
X137281082Y-70928343D01*
X137144511Y-70984912D01*
X137144498Y-70984919D01*
X137021584Y-71067048D01*
X137021580Y-71067051D01*
X136917051Y-71171580D01*
X136917048Y-71171584D01*
X136834919Y-71294498D01*
X136834912Y-71294511D01*
X136778343Y-71431082D01*
X136778340Y-71431092D01*
X136749500Y-71576079D01*
X136749500Y-71576082D01*
X136749500Y-71604381D01*
X136749500Y-71723918D01*
X136750000Y-71726431D01*
X136758510Y-71769217D01*
X136752281Y-71838809D01*
X136709418Y-71893986D01*
X136643528Y-71917229D01*
X136580597Y-71903892D01*
X136484632Y-71854994D01*
X136484629Y-71854993D01*
X136295637Y-71793587D01*
X136141770Y-71769217D01*
X136099361Y-71762500D01*
X135900639Y-71762500D01*
X135858230Y-71769217D01*
X135704362Y-71793587D01*
X135515370Y-71854993D01*
X135515367Y-71854994D01*
X135338305Y-71945213D01*
X135177533Y-72062021D01*
X135087681Y-72151874D01*
X135026358Y-72185359D01*
X134956666Y-72180375D01*
X134912319Y-72151874D01*
X134822466Y-72062021D01*
X134822464Y-72062019D01*
X134661694Y-71945213D01*
X134606773Y-71917229D01*
X134484632Y-71854994D01*
X134484629Y-71854993D01*
X134295637Y-71793587D01*
X134141770Y-71769217D01*
X134099361Y-71762500D01*
X133900639Y-71762500D01*
X133858230Y-71769217D01*
X133704362Y-71793587D01*
X133515370Y-71854993D01*
X133515367Y-71854994D01*
X133338305Y-71945213D01*
X133177533Y-72062021D01*
X133037021Y-72202533D01*
X132920213Y-72363305D01*
X132829994Y-72540367D01*
X132829993Y-72540370D01*
X132768587Y-72729362D01*
X132768587Y-72729363D01*
X132768587Y-72729364D01*
X132737500Y-72925639D01*
X132737500Y-74574361D01*
X132753043Y-74672498D01*
X132768587Y-74770637D01*
X132829993Y-74959629D01*
X132829994Y-74959632D01*
X132920213Y-75136694D01*
X133037019Y-75297464D01*
X133177536Y-75437981D01*
X133338306Y-75554787D01*
X133383595Y-75577863D01*
X133515367Y-75645005D01*
X133515370Y-75645006D01*
X133609866Y-75675709D01*
X133704364Y-75706413D01*
X133900639Y-75737500D01*
X133900640Y-75737500D01*
X134099360Y-75737500D01*
X134099361Y-75737500D01*
X134295636Y-75706413D01*
X134484632Y-75645005D01*
X134661694Y-75554787D01*
X134802616Y-75452401D01*
X134868421Y-75428922D01*
X134936475Y-75444747D01*
X134985170Y-75494853D01*
X134999500Y-75552720D01*
X134999500Y-79848541D01*
X135003461Y-79868457D01*
X135003462Y-79868458D01*
X135003462Y-79868460D01*
X135037947Y-80041833D01*
X135037949Y-80041837D01*
X135060038Y-80095164D01*
X135113366Y-80223911D01*
X135113371Y-80223920D01*
X135222860Y-80387781D01*
X135222863Y-80387785D01*
X135366535Y-80531457D01*
X135366559Y-80531479D01*
X136213181Y-81378101D01*
X136246666Y-81439424D01*
X136249500Y-81465782D01*
X136249500Y-83259763D01*
X136235984Y-83316059D01*
X136230128Y-83327550D01*
X136176597Y-83492302D01*
X136149500Y-83663389D01*
X136149500Y-83836610D01*
X136173748Y-83989711D01*
X136176598Y-84007701D01*
X136199590Y-84078461D01*
X136229708Y-84171158D01*
X136230127Y-84172445D01*
X136235983Y-84183939D01*
X136249500Y-84240235D01*
X136249500Y-85483687D01*
X136229815Y-85550726D01*
X136177011Y-85596481D01*
X136107853Y-85606425D01*
X136044297Y-85577400D01*
X136037819Y-85571368D01*
X134836819Y-84370368D01*
X134803334Y-84309045D01*
X134800500Y-84282687D01*
X134800500Y-84171155D01*
X134800499Y-84171153D01*
X134790486Y-84120814D01*
X134769737Y-84016503D01*
X134766091Y-84007701D01*
X134709397Y-83870827D01*
X134709390Y-83870814D01*
X134621789Y-83739711D01*
X134621786Y-83739707D01*
X134510292Y-83628213D01*
X134510288Y-83628210D01*
X134379185Y-83540609D01*
X134379172Y-83540602D01*
X134233501Y-83480264D01*
X134233489Y-83480261D01*
X134078845Y-83449500D01*
X134078842Y-83449500D01*
X133921158Y-83449500D01*
X133921155Y-83449500D01*
X133766510Y-83480261D01*
X133766498Y-83480264D01*
X133620827Y-83540602D01*
X133620814Y-83540609D01*
X133568891Y-83575304D01*
X133502214Y-83596182D01*
X133434833Y-83577698D01*
X133431109Y-83575304D01*
X133379185Y-83540609D01*
X133379172Y-83540602D01*
X133233501Y-83480264D01*
X133233489Y-83480261D01*
X133078845Y-83449500D01*
X133078842Y-83449500D01*
X132921158Y-83449500D01*
X132921155Y-83449500D01*
X132766510Y-83480261D01*
X132766498Y-83480264D01*
X132620827Y-83540602D01*
X132620814Y-83540609D01*
X132489711Y-83628210D01*
X132424885Y-83693036D01*
X132363561Y-83726520D01*
X132293870Y-83721535D01*
X132237936Y-83679664D01*
X132222643Y-83652806D01*
X132209397Y-83620827D01*
X132209390Y-83620814D01*
X132121789Y-83489711D01*
X132121786Y-83489707D01*
X132010292Y-83378213D01*
X132010288Y-83378210D01*
X131879185Y-83290609D01*
X131879172Y-83290602D01*
X131733501Y-83230264D01*
X131733489Y-83230261D01*
X131578845Y-83199500D01*
X131578842Y-83199500D01*
X131421158Y-83199500D01*
X131421155Y-83199500D01*
X131266510Y-83230261D01*
X131266498Y-83230264D01*
X131120827Y-83290602D01*
X131120814Y-83290609D01*
X130989711Y-83378210D01*
X130989707Y-83378213D01*
X130878213Y-83489707D01*
X130878210Y-83489711D01*
X130790609Y-83620814D01*
X130790602Y-83620827D01*
X130730264Y-83766498D01*
X130730261Y-83766508D01*
X130699361Y-83921850D01*
X130666976Y-83983761D01*
X130665425Y-83985339D01*
X129686584Y-84964181D01*
X129659656Y-84978884D01*
X129633838Y-84995477D01*
X129627637Y-84996368D01*
X129625261Y-84997666D01*
X129598903Y-85000500D01*
X129548046Y-85000500D01*
X129481007Y-84980815D01*
X129435252Y-84928011D01*
X129426429Y-84900691D01*
X129399739Y-84766510D01*
X129399737Y-84766507D01*
X129399737Y-84766503D01*
X129389937Y-84742844D01*
X129380500Y-84695396D01*
X129380500Y-80056079D01*
X129351659Y-79911092D01*
X129351657Y-79911086D01*
X129351656Y-79911083D01*
X129351655Y-79911078D01*
X129295086Y-79774509D01*
X129295085Y-79774507D01*
X129284665Y-79758913D01*
X129262186Y-79725270D01*
X129232417Y-79680716D01*
X129212956Y-79651589D01*
X129212952Y-79651584D01*
X128826819Y-79265451D01*
X128793334Y-79204128D01*
X128790500Y-79177770D01*
X128790500Y-78128384D01*
X129924500Y-78128384D01*
X129924500Y-78791616D01*
X129926317Y-78811613D01*
X129930913Y-78862192D01*
X129930913Y-78862194D01*
X129930914Y-78862196D01*
X129981522Y-79024606D01*
X130007909Y-79068256D01*
X130069530Y-79170188D01*
X130189811Y-79290469D01*
X130189813Y-79290470D01*
X130189815Y-79290472D01*
X130335394Y-79378478D01*
X130497804Y-79429086D01*
X130568384Y-79435500D01*
X130568387Y-79435500D01*
X131081613Y-79435500D01*
X131081616Y-79435500D01*
X131152196Y-79429086D01*
X131314606Y-79378478D01*
X131460185Y-79290472D01*
X131580472Y-79170185D01*
X131668478Y-79024606D01*
X131719086Y-78862196D01*
X131725500Y-78791616D01*
X131725500Y-78128384D01*
X131719086Y-78057804D01*
X131668478Y-77895394D01*
X131580472Y-77749815D01*
X131580470Y-77749813D01*
X131580469Y-77749811D01*
X131460188Y-77629530D01*
X131458292Y-77628384D01*
X131314606Y-77541522D01*
X131152196Y-77490914D01*
X131152194Y-77490913D01*
X131152192Y-77490913D01*
X131102778Y-77486423D01*
X131081616Y-77484500D01*
X130568384Y-77484500D01*
X130549145Y-77486248D01*
X130497807Y-77490913D01*
X130335393Y-77541522D01*
X130189811Y-77629530D01*
X130069530Y-77749811D01*
X129981522Y-77895393D01*
X129930913Y-78057807D01*
X129925782Y-78114275D01*
X129924500Y-78128384D01*
X128790500Y-78128384D01*
X128790500Y-74216079D01*
X128764883Y-74087298D01*
X128762500Y-74063106D01*
X128762500Y-72925639D01*
X128760326Y-72911911D01*
X128731413Y-72729364D01*
X128670005Y-72540368D01*
X128669102Y-72537588D01*
X128667107Y-72467747D01*
X128703188Y-72407914D01*
X128765889Y-72377086D01*
X128811225Y-72377653D01*
X128926079Y-72400500D01*
X128926082Y-72400500D01*
X129073920Y-72400500D01*
X129171462Y-72381096D01*
X129218913Y-72371658D01*
X129355495Y-72315084D01*
X129478416Y-72232951D01*
X129582951Y-72128416D01*
X129646898Y-72032713D01*
X129700510Y-71987908D01*
X129769835Y-71979201D01*
X129832862Y-72009355D01*
X129853102Y-72032713D01*
X129917048Y-72128415D01*
X129917051Y-72128419D01*
X130021580Y-72232948D01*
X130021584Y-72232951D01*
X130144498Y-72315080D01*
X130144511Y-72315087D01*
X130260921Y-72363305D01*
X130281087Y-72371658D01*
X130281091Y-72371658D01*
X130281092Y-72371659D01*
X130426079Y-72400500D01*
X130426082Y-72400500D01*
X130573920Y-72400500D01*
X130671462Y-72381096D01*
X130718913Y-72371658D01*
X130855495Y-72315084D01*
X130978416Y-72232951D01*
X131082951Y-72128416D01*
X131165084Y-72005495D01*
X131221658Y-71868913D01*
X131241489Y-71769217D01*
X131250500Y-71723920D01*
X131250500Y-71576079D01*
X131221659Y-71431092D01*
X131221658Y-71431091D01*
X131221658Y-71431087D01*
X131175975Y-71320798D01*
X131165087Y-71294511D01*
X131165080Y-71294498D01*
X131082951Y-71171584D01*
X131082948Y-71171580D01*
X130978419Y-71067051D01*
X130978415Y-71067048D01*
X130855501Y-70984919D01*
X130855488Y-70984912D01*
X130718917Y-70928343D01*
X130718907Y-70928340D01*
X130573920Y-70899500D01*
X130573918Y-70899500D01*
X130426082Y-70899500D01*
X130426080Y-70899500D01*
X130281092Y-70928340D01*
X130281082Y-70928343D01*
X130144511Y-70984912D01*
X130144498Y-70984919D01*
X130021584Y-71067048D01*
X130021580Y-71067051D01*
X129917051Y-71171580D01*
X129917048Y-71171584D01*
X129853102Y-71267286D01*
X129799489Y-71312091D01*
X129730164Y-71320798D01*
X129667137Y-71290643D01*
X129646898Y-71267286D01*
X129582951Y-71171584D01*
X129582948Y-71171580D01*
X129478419Y-71067051D01*
X129478415Y-71067048D01*
X129355501Y-70984919D01*
X129355488Y-70984912D01*
X129218917Y-70928343D01*
X129218907Y-70928340D01*
X129073920Y-70899500D01*
X129073918Y-70899500D01*
X128926082Y-70899500D01*
X128926080Y-70899500D01*
X128781092Y-70928340D01*
X128781082Y-70928343D01*
X128644511Y-70984912D01*
X128644498Y-70984919D01*
X128521584Y-71067048D01*
X128521580Y-71067051D01*
X128417051Y-71171580D01*
X128417048Y-71171584D01*
X128334919Y-71294498D01*
X128334912Y-71294511D01*
X128278343Y-71431082D01*
X128278340Y-71431092D01*
X128249500Y-71576079D01*
X128249500Y-71576082D01*
X128249500Y-71604381D01*
X128249500Y-71723918D01*
X128250000Y-71726431D01*
X128258510Y-71769217D01*
X128252281Y-71838809D01*
X128209418Y-71893986D01*
X128143528Y-71917229D01*
X128080597Y-71903892D01*
X127984632Y-71854994D01*
X127984629Y-71854993D01*
X127795637Y-71793587D01*
X127641770Y-71769217D01*
X127599361Y-71762500D01*
X127400639Y-71762500D01*
X127358230Y-71769217D01*
X127204362Y-71793587D01*
X127015370Y-71854993D01*
X127015367Y-71854994D01*
X126838305Y-71945213D01*
X126677533Y-72062021D01*
X126587681Y-72151874D01*
X126526358Y-72185359D01*
X126456666Y-72180375D01*
X126412319Y-72151874D01*
X126322466Y-72062021D01*
X126322464Y-72062019D01*
X126161694Y-71945213D01*
X126106773Y-71917229D01*
X125984632Y-71854994D01*
X125984629Y-71854993D01*
X125795637Y-71793587D01*
X125641770Y-71769217D01*
X125599361Y-71762500D01*
X125400639Y-71762500D01*
X125358230Y-71769217D01*
X125204362Y-71793587D01*
X125015370Y-71854993D01*
X125015367Y-71854994D01*
X124838305Y-71945213D01*
X124677533Y-72062021D01*
X124587681Y-72151874D01*
X124526358Y-72185359D01*
X124456666Y-72180375D01*
X124412319Y-72151874D01*
X124322466Y-72062021D01*
X124322464Y-72062019D01*
X124161694Y-71945213D01*
X124106773Y-71917229D01*
X123984632Y-71854994D01*
X123984629Y-71854993D01*
X123795637Y-71793587D01*
X123641770Y-71769217D01*
X123599361Y-71762500D01*
X123400639Y-71762500D01*
X123358230Y-71769217D01*
X123204362Y-71793587D01*
X123015370Y-71854993D01*
X123015367Y-71854994D01*
X122838305Y-71945213D01*
X122677533Y-72062021D01*
X122537021Y-72202533D01*
X122420213Y-72363305D01*
X122329994Y-72540367D01*
X122329993Y-72540370D01*
X122268587Y-72729362D01*
X122268587Y-72729363D01*
X122268587Y-72729364D01*
X122237500Y-72925639D01*
X122237500Y-74574361D01*
X122253043Y-74672498D01*
X122268587Y-74770637D01*
X122329993Y-74959629D01*
X122329994Y-74959632D01*
X122420213Y-75136694D01*
X122537019Y-75297464D01*
X122677536Y-75437981D01*
X122838306Y-75554787D01*
X122883595Y-75577863D01*
X123015367Y-75645005D01*
X123015370Y-75645006D01*
X123109866Y-75675709D01*
X123204364Y-75706413D01*
X123400639Y-75737500D01*
X123400640Y-75737500D01*
X123599360Y-75737500D01*
X123599361Y-75737500D01*
X123795636Y-75706413D01*
X123984632Y-75645005D01*
X124161694Y-75554787D01*
X124322464Y-75437981D01*
X124412319Y-75348126D01*
X124473642Y-75314641D01*
X124543334Y-75319625D01*
X124587681Y-75348126D01*
X124677536Y-75437981D01*
X124838306Y-75554787D01*
X124883595Y-75577863D01*
X125015367Y-75645005D01*
X125015370Y-75645006D01*
X125109866Y-75675709D01*
X125204364Y-75706413D01*
X125400639Y-75737500D01*
X125400640Y-75737500D01*
X125599360Y-75737500D01*
X125599361Y-75737500D01*
X125795636Y-75706413D01*
X125984632Y-75645005D01*
X126161694Y-75554787D01*
X126322464Y-75437981D01*
X126412319Y-75348126D01*
X126473642Y-75314641D01*
X126543334Y-75319625D01*
X126587681Y-75348126D01*
X126677536Y-75437981D01*
X126838306Y-75554787D01*
X126883595Y-75577863D01*
X127015367Y-75645005D01*
X127015373Y-75645007D01*
X127124909Y-75680596D01*
X127203817Y-75706235D01*
X127261493Y-75745672D01*
X127288692Y-75810030D01*
X127289500Y-75824166D01*
X127289500Y-76860548D01*
X127269815Y-76927587D01*
X127217011Y-76973342D01*
X127164426Y-76983557D01*
X127164426Y-76984500D01*
X127161616Y-76984500D01*
X126648384Y-76984500D01*
X126629145Y-76986248D01*
X126577807Y-76990913D01*
X126415393Y-77041522D01*
X126269811Y-77129530D01*
X126149530Y-77249811D01*
X126061522Y-77395393D01*
X126010913Y-77557807D01*
X126004500Y-77628386D01*
X126004500Y-78291613D01*
X126010913Y-78362192D01*
X126010913Y-78362194D01*
X126010914Y-78362196D01*
X126061522Y-78524606D01*
X126148761Y-78668917D01*
X126149530Y-78670188D01*
X126269811Y-78790469D01*
X126269813Y-78790470D01*
X126269815Y-78790472D01*
X126415394Y-78878478D01*
X126577804Y-78929086D01*
X126648384Y-78935500D01*
X126648387Y-78935500D01*
X127164426Y-78935500D01*
X127164426Y-78936700D01*
X127227715Y-78952189D01*
X127275829Y-79002852D01*
X127289500Y-79059451D01*
X127289500Y-79613918D01*
X127289500Y-79613920D01*
X127289499Y-79613920D01*
X127318340Y-79758907D01*
X127318343Y-79758917D01*
X127374913Y-79895490D01*
X127374914Y-79895491D01*
X127374916Y-79895495D01*
X127385334Y-79911086D01*
X127385335Y-79911089D01*
X127457046Y-80018414D01*
X127457052Y-80018421D01*
X127843181Y-80404549D01*
X127876666Y-80465872D01*
X127879500Y-80492230D01*
X127879500Y-84695396D01*
X127876064Y-84724385D01*
X127873788Y-84733849D01*
X127860263Y-84766503D01*
X127833089Y-84903110D01*
X127832518Y-84905489D01*
X127816280Y-84933745D01*
X127801186Y-84962602D01*
X127798974Y-84963861D01*
X127797706Y-84966069D01*
X127768778Y-84981056D01*
X127740471Y-84997176D01*
X127736851Y-84997597D01*
X127735668Y-84998211D01*
X127733405Y-84997999D01*
X127711954Y-85000500D01*
X127113597Y-85000500D01*
X127046558Y-84980815D01*
X127025916Y-84964181D01*
X124584574Y-82522839D01*
X124551089Y-82461516D01*
X124550638Y-82459349D01*
X124519738Y-82304010D01*
X124519737Y-82304003D01*
X124495561Y-82245636D01*
X124459397Y-82158327D01*
X124459390Y-82158314D01*
X124371789Y-82027211D01*
X124371786Y-82027207D01*
X124260292Y-81915713D01*
X124260288Y-81915710D01*
X124129185Y-81828109D01*
X124129172Y-81828102D01*
X123983501Y-81767764D01*
X123983489Y-81767761D01*
X123828845Y-81737000D01*
X123828842Y-81737000D01*
X123671158Y-81737000D01*
X123671155Y-81737000D01*
X123516510Y-81767761D01*
X123516498Y-81767764D01*
X123370827Y-81828102D01*
X123370814Y-81828109D01*
X123239711Y-81915710D01*
X123239707Y-81915713D01*
X123128213Y-82027207D01*
X123128210Y-82027211D01*
X123040609Y-82158314D01*
X123040602Y-82158327D01*
X122980264Y-82303998D01*
X122980261Y-82304010D01*
X122949500Y-82458653D01*
X122949500Y-82616346D01*
X122980261Y-82770989D01*
X122980264Y-82771001D01*
X123040602Y-82916672D01*
X123040609Y-82916685D01*
X123128210Y-83047788D01*
X123128213Y-83047792D01*
X123239707Y-83159286D01*
X123239711Y-83159289D01*
X123370814Y-83246890D01*
X123370827Y-83246897D01*
X123476359Y-83290609D01*
X123516503Y-83307237D01*
X123581147Y-83320095D01*
X123671849Y-83338138D01*
X123733760Y-83370523D01*
X123735339Y-83372074D01*
X126328639Y-85965374D01*
X126328649Y-85965385D01*
X126332979Y-85969715D01*
X126332980Y-85969716D01*
X126444784Y-86081520D01*
X126512856Y-86120821D01*
X126581715Y-86160577D01*
X126734442Y-86201500D01*
X126734443Y-86201500D01*
X129812331Y-86201500D01*
X129812347Y-86201501D01*
X129819943Y-86201501D01*
X129978054Y-86201501D01*
X129978057Y-86201501D01*
X130130785Y-86160577D01*
X130199644Y-86120821D01*
X130267716Y-86081520D01*
X130379520Y-85969716D01*
X130379520Y-85969714D01*
X130389724Y-85959511D01*
X130389727Y-85959506D01*
X131514662Y-84834572D01*
X131575983Y-84801089D01*
X131578150Y-84800638D01*
X131636085Y-84789113D01*
X131733497Y-84769737D01*
X131853429Y-84720060D01*
X131879172Y-84709397D01*
X131879172Y-84709396D01*
X131879179Y-84709394D01*
X132010289Y-84621789D01*
X132075115Y-84556962D01*
X132136436Y-84523479D01*
X132206128Y-84528463D01*
X132262062Y-84570334D01*
X132277356Y-84597191D01*
X132290606Y-84629179D01*
X132290609Y-84629185D01*
X132378210Y-84760288D01*
X132378213Y-84760292D01*
X132489707Y-84871786D01*
X132489711Y-84871789D01*
X132620814Y-84959390D01*
X132620827Y-84959397D01*
X132766498Y-85019735D01*
X132766503Y-85019737D01*
X132902406Y-85046770D01*
X132921153Y-85050499D01*
X132921156Y-85050500D01*
X133049960Y-85050500D01*
X133079400Y-85059144D01*
X133109387Y-85065668D01*
X133114402Y-85069422D01*
X133116999Y-85070185D01*
X133137641Y-85086819D01*
X133266196Y-85215374D01*
X133266206Y-85215385D01*
X133270536Y-85219715D01*
X133270537Y-85219716D01*
X133382341Y-85331520D01*
X133382343Y-85331521D01*
X133382347Y-85331524D01*
X133508541Y-85404381D01*
X133519273Y-85410577D01*
X133613105Y-85435718D01*
X133668692Y-85467812D01*
X138966254Y-90765374D01*
X138966264Y-90765385D01*
X138970594Y-90769715D01*
X138970595Y-90769716D01*
X139082399Y-90881520D01*
X139169210Y-90931639D01*
X139188001Y-90942488D01*
X139236216Y-90993056D01*
X139250000Y-91049875D01*
X139250000Y-91275500D01*
X139230315Y-91342539D01*
X139177511Y-91388294D01*
X139126000Y-91399500D01*
X129150154Y-91399500D01*
X129083115Y-91379815D01*
X129062473Y-91363181D01*
X125083815Y-87384523D01*
X125050330Y-87323200D01*
X125055314Y-87253508D01*
X125097186Y-87197575D01*
X125102566Y-87193766D01*
X125210289Y-87121789D01*
X125321789Y-87010289D01*
X125409394Y-86879179D01*
X125469737Y-86733497D01*
X125500500Y-86578842D01*
X125500500Y-86421158D01*
X125500500Y-86421155D01*
X125500499Y-86421153D01*
X125489471Y-86365711D01*
X125469737Y-86266503D01*
X125459350Y-86241426D01*
X125409397Y-86120827D01*
X125409390Y-86120814D01*
X125321789Y-85989711D01*
X125321786Y-85989707D01*
X125210292Y-85878213D01*
X125210288Y-85878210D01*
X125079185Y-85790609D01*
X125079172Y-85790602D01*
X124933501Y-85730264D01*
X124933489Y-85730261D01*
X124778845Y-85699500D01*
X124778842Y-85699500D01*
X124621158Y-85699500D01*
X124621155Y-85699500D01*
X124466510Y-85730261D01*
X124466498Y-85730264D01*
X124320828Y-85790602D01*
X124320817Y-85790608D01*
X124296944Y-85806560D01*
X124230266Y-85827437D01*
X124162886Y-85808952D01*
X124140373Y-85791138D01*
X120136819Y-81787584D01*
X120103334Y-81726261D01*
X120100500Y-81699903D01*
X120100500Y-80326236D01*
X120100501Y-80326223D01*
X120100501Y-80158121D01*
X120100501Y-80158119D01*
X120059577Y-80005391D01*
X119980520Y-79868460D01*
X119894116Y-79782056D01*
X119868716Y-79756656D01*
X119792775Y-79680715D01*
X119688477Y-79620499D01*
X119655844Y-79601658D01*
X119596317Y-79585707D01*
X119589785Y-79583137D01*
X119573251Y-79570292D01*
X119547508Y-79555429D01*
X119531527Y-79539448D01*
X119531523Y-79539445D01*
X119400420Y-79451844D01*
X119400407Y-79451837D01*
X119254736Y-79391499D01*
X119254724Y-79391496D01*
X119100080Y-79360735D01*
X119100077Y-79360735D01*
X118942393Y-79360735D01*
X118942390Y-79360735D01*
X118787745Y-79391496D01*
X118787733Y-79391499D01*
X118642062Y-79451837D01*
X118642049Y-79451844D01*
X118510946Y-79539445D01*
X118510942Y-79539448D01*
X118399448Y-79650942D01*
X118399445Y-79650946D01*
X118311844Y-79782049D01*
X118311837Y-79782062D01*
X118251499Y-79927733D01*
X118251496Y-79927745D01*
X118220735Y-80082388D01*
X118220735Y-80240081D01*
X118251496Y-80394724D01*
X118251499Y-80394736D01*
X118311837Y-80540407D01*
X118311844Y-80540420D01*
X118399445Y-80671523D01*
X118399448Y-80671527D01*
X118510942Y-80783021D01*
X118510946Y-80783024D01*
X118642049Y-80870625D01*
X118642062Y-80870632D01*
X118716487Y-80901459D01*
X118787738Y-80930972D01*
X118799689Y-80933349D01*
X118861598Y-80965730D01*
X118896175Y-81026444D01*
X118899500Y-81054966D01*
X118899500Y-81595500D01*
X118879815Y-81662539D01*
X118827011Y-81708294D01*
X118775500Y-81719500D01*
X117074191Y-81719500D01*
X117007152Y-81699815D01*
X116961397Y-81647011D01*
X116950573Y-81605229D01*
X116947598Y-81567432D01*
X116947597Y-81567426D01*
X116901745Y-81409606D01*
X116901744Y-81409603D01*
X116901744Y-81409602D01*
X116818081Y-81268135D01*
X116818079Y-81268133D01*
X116818076Y-81268129D01*
X116701870Y-81151923D01*
X116701862Y-81151917D01*
X116560396Y-81068255D01*
X116560393Y-81068254D01*
X116402573Y-81022402D01*
X116402567Y-81022401D01*
X116365701Y-81019500D01*
X116365694Y-81019500D01*
X115323500Y-81019500D01*
X115314814Y-81016949D01*
X115305853Y-81018238D01*
X115281812Y-81007259D01*
X115256461Y-80999815D01*
X115250533Y-80992974D01*
X115242297Y-80989213D01*
X115228007Y-80966978D01*
X115210706Y-80947011D01*
X115208418Y-80936496D01*
X115204523Y-80930435D01*
X115199500Y-80895500D01*
X115199500Y-80744500D01*
X115219185Y-80677461D01*
X115271989Y-80631706D01*
X115323500Y-80620500D01*
X116365686Y-80620500D01*
X116365694Y-80620500D01*
X116402569Y-80617598D01*
X116402571Y-80617597D01*
X116402573Y-80617597D01*
X116444191Y-80605505D01*
X116560398Y-80571744D01*
X116701865Y-80488081D01*
X116818081Y-80371865D01*
X116901744Y-80230398D01*
X116941033Y-80095165D01*
X116947597Y-80072573D01*
X116947598Y-80072567D01*
X116948895Y-80056082D01*
X116950500Y-80035694D01*
X116950500Y-79604306D01*
X116947598Y-79567431D01*
X116943932Y-79554814D01*
X116907029Y-79427794D01*
X116901744Y-79409602D01*
X116818081Y-79268135D01*
X116818079Y-79268133D01*
X116818076Y-79268129D01*
X116717128Y-79167181D01*
X116683643Y-79105858D01*
X116688627Y-79036166D01*
X116730499Y-78980233D01*
X116795963Y-78955816D01*
X116804809Y-78955500D01*
X116849181Y-78955500D01*
X116849183Y-78955500D01*
X116982836Y-78919688D01*
X117102665Y-78850505D01*
X117200505Y-78752665D01*
X117269688Y-78632836D01*
X117305500Y-78499183D01*
X117305500Y-78360817D01*
X117269688Y-78227164D01*
X117269684Y-78227157D01*
X117246211Y-78186499D01*
X117229738Y-78118599D01*
X117252591Y-78052572D01*
X117307512Y-78009382D01*
X117353598Y-78000500D01*
X117928543Y-78000500D01*
X118073910Y-77971584D01*
X118121835Y-77962051D01*
X118272845Y-77899501D01*
X118303907Y-77886635D01*
X118303907Y-77886634D01*
X118303914Y-77886632D01*
X118467782Y-77777139D01*
X118607139Y-77637782D01*
X118613417Y-77628386D01*
X121180500Y-77628386D01*
X121180500Y-78291613D01*
X121186913Y-78362192D01*
X121186913Y-78362194D01*
X121186914Y-78362196D01*
X121237522Y-78524606D01*
X121324761Y-78668917D01*
X121325530Y-78670188D01*
X121445811Y-78790469D01*
X121445813Y-78790470D01*
X121445815Y-78790472D01*
X121591394Y-78878478D01*
X121753804Y-78929086D01*
X121824384Y-78935500D01*
X121824387Y-78935500D01*
X122337613Y-78935500D01*
X122337616Y-78935500D01*
X122408196Y-78929086D01*
X122570606Y-78878478D01*
X122716185Y-78790472D01*
X122836472Y-78670185D01*
X122924478Y-78524606D01*
X122975086Y-78362196D01*
X122981500Y-78291616D01*
X122981500Y-77628384D01*
X122975086Y-77557804D01*
X122924478Y-77395394D01*
X122836472Y-77249815D01*
X122836470Y-77249813D01*
X122836469Y-77249811D01*
X122716188Y-77129530D01*
X122570606Y-77041522D01*
X122465499Y-77008770D01*
X122408196Y-76990914D01*
X122408194Y-76990913D01*
X122408192Y-76990913D01*
X122358778Y-76986423D01*
X122337616Y-76984500D01*
X121824384Y-76984500D01*
X121805145Y-76986248D01*
X121753807Y-76990913D01*
X121591393Y-77041522D01*
X121445811Y-77129530D01*
X121325530Y-77249811D01*
X121237522Y-77395393D01*
X121186913Y-77557807D01*
X121180500Y-77628386D01*
X118613417Y-77628386D01*
X118655455Y-77565472D01*
X118661328Y-77556683D01*
X118716628Y-77473920D01*
X118716628Y-77473919D01*
X118716632Y-77473914D01*
X118792051Y-77291835D01*
X118824336Y-77129530D01*
X118830500Y-77098543D01*
X118830500Y-76901456D01*
X118792052Y-76708170D01*
X118792051Y-76708169D01*
X118792051Y-76708165D01*
X118784703Y-76690425D01*
X118716635Y-76526092D01*
X118716628Y-76526079D01*
X118607139Y-76362218D01*
X118607136Y-76362214D01*
X118467785Y-76222863D01*
X118467781Y-76222860D01*
X118303920Y-76113371D01*
X118303907Y-76113364D01*
X118121839Y-76037950D01*
X118121829Y-76037947D01*
X117928543Y-75999500D01*
X117928541Y-75999500D01*
X116631459Y-75999500D01*
X116631457Y-75999500D01*
X116438170Y-76037947D01*
X116438160Y-76037950D01*
X116256092Y-76113364D01*
X116256079Y-76113371D01*
X116092218Y-76222860D01*
X116092214Y-76222863D01*
X115952863Y-76362214D01*
X115952860Y-76362218D01*
X115843371Y-76526079D01*
X115843364Y-76526092D01*
X115767950Y-76708160D01*
X115767947Y-76708170D01*
X115729500Y-76901456D01*
X115729500Y-76901459D01*
X115729500Y-77098541D01*
X115729500Y-77098543D01*
X115729499Y-77098543D01*
X115767947Y-77291829D01*
X115767950Y-77291839D01*
X115843364Y-77473907D01*
X115843371Y-77473920D01*
X115952860Y-77637781D01*
X115952863Y-77637785D01*
X116092214Y-77777136D01*
X116092218Y-77777139D01*
X116256079Y-77886628D01*
X116256092Y-77886635D01*
X116313814Y-77910544D01*
X116368218Y-77954385D01*
X116390283Y-78020679D01*
X116373004Y-78088378D01*
X116363726Y-78100341D01*
X116364441Y-78100890D01*
X116359492Y-78107338D01*
X116290313Y-78227161D01*
X116290312Y-78227164D01*
X116254500Y-78360817D01*
X116254500Y-78499182D01*
X116290312Y-78632835D01*
X116290313Y-78632838D01*
X116359492Y-78752661D01*
X116359496Y-78752666D01*
X116414649Y-78807819D01*
X116448134Y-78869142D01*
X116443150Y-78938834D01*
X116401278Y-78994767D01*
X116335814Y-79019184D01*
X116326968Y-79019500D01*
X114984298Y-79019500D01*
X114947432Y-79022401D01*
X114947426Y-79022402D01*
X114789606Y-79068254D01*
X114789603Y-79068255D01*
X114648137Y-79151917D01*
X114648129Y-79151923D01*
X114531923Y-79268129D01*
X114531916Y-79268138D01*
X114448252Y-79409607D01*
X114447799Y-79410655D01*
X114446519Y-79412537D01*
X114444285Y-79416316D01*
X114444047Y-79416175D01*
X114421683Y-79449080D01*
X114230285Y-79640480D01*
X114118481Y-79752283D01*
X114118479Y-79752286D01*
X114068361Y-79839095D01*
X114068359Y-79839097D01*
X114039425Y-79889210D01*
X114039424Y-79889211D01*
X114033562Y-79911088D01*
X113998499Y-80041944D01*
X113998499Y-80200058D01*
X113998499Y-80200060D01*
X113998500Y-80210054D01*
X113998500Y-83074298D01*
X113998499Y-83074316D01*
X113998499Y-83240022D01*
X113998498Y-83240022D01*
X112981390Y-83240022D01*
X112918656Y-83177288D01*
X112778494Y-83090836D01*
X112769336Y-83085187D01*
X112769331Y-83085185D01*
X112743743Y-83076706D01*
X112602797Y-83030001D01*
X112602795Y-83030000D01*
X112500010Y-83019500D01*
X111099998Y-83019500D01*
X111099981Y-83019501D01*
X110997203Y-83030000D01*
X110997200Y-83030001D01*
X110863504Y-83074304D01*
X110793675Y-83076706D01*
X110733634Y-83040974D01*
X110702441Y-82978453D01*
X110700500Y-82956598D01*
X110700500Y-79683401D01*
X110720185Y-79616362D01*
X110772989Y-79570607D01*
X110842147Y-79560663D01*
X110863499Y-79565693D01*
X110997203Y-79609999D01*
X111099991Y-79620500D01*
X112500008Y-79620499D01*
X112602797Y-79609999D01*
X112769334Y-79554814D01*
X112918656Y-79462712D01*
X113042712Y-79338656D01*
X113134814Y-79189334D01*
X113189999Y-79022797D01*
X113200500Y-78920009D01*
X113200499Y-78124499D01*
X113220183Y-78057461D01*
X113272987Y-78011706D01*
X113324499Y-78000500D01*
X113598543Y-78000500D01*
X113743910Y-77971584D01*
X113791835Y-77962051D01*
X113942845Y-77899501D01*
X113973907Y-77886635D01*
X113973907Y-77886634D01*
X113973914Y-77886632D01*
X114137782Y-77777139D01*
X114277139Y-77637782D01*
X114386632Y-77473914D01*
X114462051Y-77291835D01*
X114494336Y-77129530D01*
X114500500Y-77098543D01*
X114500500Y-76901456D01*
X114462052Y-76708170D01*
X114462051Y-76708169D01*
X114462051Y-76708165D01*
X114454703Y-76690425D01*
X114386635Y-76526092D01*
X114386628Y-76526079D01*
X114277139Y-76362218D01*
X114277136Y-76362214D01*
X114137785Y-76222863D01*
X114137781Y-76222860D01*
X113973920Y-76113371D01*
X113973907Y-76113364D01*
X113791839Y-76037950D01*
X113791829Y-76037947D01*
X113598543Y-75999500D01*
X113598541Y-75999500D01*
X112601459Y-75999500D01*
X112601457Y-75999500D01*
X112408170Y-76037947D01*
X112408160Y-76037950D01*
X112226092Y-76113364D01*
X112226079Y-76113371D01*
X112062218Y-76222860D01*
X112062214Y-76222863D01*
X111922863Y-76362214D01*
X111922860Y-76362218D01*
X111813371Y-76526079D01*
X111813364Y-76526092D01*
X111737950Y-76708160D01*
X111737947Y-76708170D01*
X111699500Y-76901456D01*
X111699500Y-77098545D01*
X111733865Y-77271309D01*
X111727638Y-77340900D01*
X111684775Y-77396078D01*
X111618885Y-77419322D01*
X111612248Y-77419500D01*
X111099998Y-77419500D01*
X111099980Y-77419501D01*
X110997203Y-77430000D01*
X110997200Y-77430001D01*
X110863504Y-77474304D01*
X110793675Y-77476706D01*
X110733634Y-77440974D01*
X110702441Y-77378453D01*
X110700500Y-77356598D01*
X110700500Y-71723920D01*
X119249499Y-71723920D01*
X119278340Y-71868907D01*
X119278343Y-71868917D01*
X119334912Y-72005488D01*
X119334919Y-72005501D01*
X119417048Y-72128415D01*
X119417051Y-72128419D01*
X119521580Y-72232948D01*
X119521584Y-72232951D01*
X119644498Y-72315080D01*
X119644511Y-72315087D01*
X119760921Y-72363305D01*
X119781087Y-72371658D01*
X119781091Y-72371658D01*
X119781092Y-72371659D01*
X119926079Y-72400500D01*
X119926082Y-72400500D01*
X120073920Y-72400500D01*
X120171462Y-72381096D01*
X120218913Y-72371658D01*
X120355495Y-72315084D01*
X120478416Y-72232951D01*
X120582951Y-72128416D01*
X120665084Y-72005495D01*
X120721658Y-71868913D01*
X120741489Y-71769217D01*
X120750500Y-71723920D01*
X120750500Y-71576079D01*
X120721659Y-71431092D01*
X120721658Y-71431091D01*
X120721658Y-71431087D01*
X120675975Y-71320798D01*
X120665087Y-71294511D01*
X120665080Y-71294498D01*
X120582951Y-71171584D01*
X120582948Y-71171580D01*
X120478419Y-71067051D01*
X120478415Y-71067048D01*
X120355501Y-70984919D01*
X120355488Y-70984912D01*
X120218917Y-70928343D01*
X120218907Y-70928340D01*
X120073920Y-70899500D01*
X120073918Y-70899500D01*
X119926082Y-70899500D01*
X119926080Y-70899500D01*
X119781092Y-70928340D01*
X119781082Y-70928343D01*
X119644511Y-70984912D01*
X119644498Y-70984919D01*
X119521584Y-71067048D01*
X119521580Y-71067051D01*
X119417051Y-71171580D01*
X119417048Y-71171584D01*
X119334919Y-71294498D01*
X119334912Y-71294511D01*
X119278343Y-71431082D01*
X119278340Y-71431092D01*
X119249500Y-71576079D01*
X119249500Y-71576082D01*
X119249500Y-71604381D01*
X119249500Y-71723918D01*
X119249500Y-71723920D01*
X119249499Y-71723920D01*
X110700500Y-71723920D01*
X110700500Y-69003246D01*
X110700670Y-68996756D01*
X110717961Y-68666821D01*
X110719318Y-68653913D01*
X110770493Y-68330804D01*
X110773186Y-68318129D01*
X110857863Y-68002113D01*
X110861871Y-67989781D01*
X110979109Y-67684365D01*
X110984375Y-67672536D01*
X111132912Y-67381014D01*
X111139373Y-67369824D01*
X111317570Y-67095425D01*
X111325179Y-67084953D01*
X111531072Y-66830696D01*
X111539739Y-66821071D01*
X111771071Y-66589739D01*
X111780696Y-66581072D01*
X112034953Y-66375179D01*
X112045425Y-66367570D01*
X112319824Y-66189373D01*
X112331014Y-66182912D01*
X112622536Y-66034375D01*
X112634365Y-66029109D01*
X112939785Y-65911869D01*
X112952113Y-65907863D01*
X113268129Y-65823186D01*
X113280804Y-65820493D01*
X113603915Y-65769317D01*
X113616819Y-65767961D01*
X113946756Y-65750669D01*
X113953246Y-65750500D01*
X113989882Y-65750500D01*
X177010118Y-65750500D01*
X177046754Y-65750500D01*
X177053243Y-65750669D01*
G37*
G04 #@! TD.AperFunction*
G04 #@! TD*
M02*
